<?xml version="1.0" encoding="UTF-8" standalone="no"?>
<!DOCTYPE svg PUBLIC "-//W3C//DTD SVG 1.1//EN" "http://www.w3.org/Graphics/SVG/1.1/DTD/svg11.dtd">
<svg width="100%" height="100%" viewBox="0 0 600 600" version="1.1" xmlns="http://www.w3.org/2000/svg" xmlns:xlink="http://www.w3.org/1999/xlink" xml:space="preserve" xmlns:serif="http://www.serif.com/" style="fill-rule:evenodd;clip-rule:evenodd;stroke-linejoin:round;stroke-miterlimit:2;">
    <g id="g124">
        <path id="path154" d="M430.99,524.841c-55.511,-12.853 -75.521,-22.474 -99.037,-47.614c-15.559,-16.634 -24.53,-32.073 -30.767,-52.948c-4.577,-15.322 -7.681,-14.96 -10.723,1.253c-3.194,17.026 -15.571,39.614 -26.953,49.192c-14.362,12.084 -33.947,21.203 -74.033,34.466c-40.165,13.29 -40.016,13.322 -52.558,-11.428c-25.736,-50.787 -19.813,-96.123 17.421,-133.357l16.427,-16.427l-12.076,2.499c-6.642,1.374 -22.69,2.404 -35.663,2.289c-38.876,-0.345 -70.35,-17.872 -95.578,-53.226c-16.356,-22.922 -16.174,-23.874 8.922,-46.586c35.474,-32.105 75.977,-51.434 107.777,-51.434c18.073,0 46.951,7.521 71.34,18.58l19.236,8.722l-10.592,-17.557c-16.471,-27.301 -24.02,-55.951 -21.951,-83.311c0.965,-12.755 4.632,-29.442 8.327,-37.894c6.802,-15.559 37.706,-63.54 40.925,-63.54c0.995,0 17.971,15.82 37.725,35.156c28.434,27.832 37.936,39.389 45.61,55.469c12.835,26.896 17.779,52.5 15.296,79.219l-1.994,21.456l15.15,-13.619c39.537,-35.541 84.359,-46.449 160.737,-39.119c32.977,3.165 32.589,1.973 16.122,49.417c-22.664,65.298 -48.27,102.177 -82.941,119.454c-9.042,4.506 -20.523,8.192 -25.514,8.192l-9.075,0l15.715,17.195c30.191,33.033 39.837,64.806 37.122,122.268c-1.663,35.209 -5.205,51.701 -10.914,50.816c-1.228,-0.19 -16.296,-3.603 -33.483,-7.583Zm-122.614,-159.896c-3.843,-0.741 -10.875,-0.76 -15.625,-0.047c-4.75,0.718 -1.605,1.325 6.989,1.349c8.593,0.023 12.48,-0.565 8.636,-1.306l0,0.004Zm25.113,-5.978c16.782,-8.479 33.812,-27.783 33.313,-37.76c-0.069,-1.375 -2.354,1.719 -5.079,6.876c-7.92,14.99 -14.091,20.72 -30.733,28.537c-8.594,4.037 -13.798,7.353 -11.564,7.37c2.234,0.011 8.562,-2.244 14.063,-5.023Zm-68.124,-1.698c-3.438,-1.89 -11.706,-8.527 -18.375,-14.749c-10.366,-9.671 -11.346,-10.085 -6.761,-2.854c5.371,8.469 22.385,21.161 28.261,21.081c1.718,-0.023 0.312,-1.588 -3.125,-3.478Zm97.835,-86.246c-8.424,-16.275 -27.608,-31.202 -43.148,-33.573c-9.397,-1.434 -8.947,-1.017 3.199,2.964c16.199,5.309 33.293,20.572 39.45,35.225c2.325,5.53 4.486,17.483 4.804,26.562l0.578,16.507l1.164,-16.878c0.904,-13.107 -0.446,-19.989 -6.047,-30.807l0,-0Zm-134.692,23.466c-0.745,-3.867 -1.355,-0.703 -1.355,7.031c0,7.734 0.61,10.899 1.355,7.031c0.744,-3.867 0.744,-10.195 -0,-14.062Zm20.038,-38.683c4.094,-3.658 11.662,-8.875 16.819,-11.593c5.156,-2.719 8.25,-4.999 6.876,-5.068c-12.987,-0.65 -42.976,30.361 -42.745,44.201c0.038,2.261 2.664,-1.513 5.837,-8.388c3.173,-6.875 9.119,-15.493 13.213,-19.152Zm36.285,-18.674c-1.039,-1.038 -3.734,-1.149 -5.99,-0.247c-2.493,0.998 -1.752,1.738 1.888,1.888c3.294,0.136 5.14,-0.602 4.102,-1.641l-0,0Zm15.625,-3.125c-1.039,-1.038 -3.734,-1.149 -5.99,-0.247c-2.493,0.998 -1.752,1.738 1.888,1.888c3.294,0.136 5.14,-0.602 4.102,-1.641l-0,0Z" style="fill:#fcf4da;fill-rule:nonzero;"/>
        <path id="path152" d="M429.427,523.43c-50.577,-10.949 -80.848,-26.115 -100.85,-50.524c-12.548,-15.313 -26.171,-42.461 -29.157,-58.105c-2.226,-11.663 -7.493,-13.709 -7.493,-2.911c0,13.18 -9.025,37.924 -18.564,50.895c-5.723,7.781 -16.819,16.733 -28.381,22.896c-26.156,13.94 -88.302,34.536 -94.22,31.224c-6.943,-3.885 -24.313,-43.696 -27.387,-62.768c-5.685,-35.27 5.643,-65.355 35.35,-93.884c15.073,-14.474 15.463,-15.229 6.64,-12.837c-5.157,1.398 -23.438,2.516 -40.625,2.485c-25.232,-0.048 -34.065,-1.347 -45.862,-6.753c-26.747,-12.257 -63.516,-52.604 -61.376,-67.348c1.372,-9.454 45.893,-47.149 69.291,-58.668c40.532,-19.954 74.141,-19.588 123.777,1.345l25.119,10.594l-8.024,-12.994c-26.65,-43.157 -32.14,-84.349 -16.702,-125.315c5.362,-14.227 36.657,-63.904 40.407,-64.139c0.896,-0.057 17.341,15.014 36.545,33.491c30.357,29.208 36.467,36.857 46.807,58.594c11.742,24.682 11.893,25.48 11.893,62.829l-0,37.83l17.187,-15.357c39.38,-35.186 82.271,-45.552 160.156,-38.707c22.803,2.004 27.344,3.292 27.344,7.759c0,9.499 -21.284,68.896 -33.243,92.77c-20.688,41.3 -52.927,69.903 -84.475,74.948l-12.674,2.027l13.602,12.538c17.661,16.279 33.84,48.817 38.751,77.935c3.628,21.51 2.796,55.517 -2.071,84.646c-2.308,13.814 -2.972,13.901 -41.765,5.504Zm-106.007,-159.852c15.929,-4.772 32.866,-19.201 40.803,-34.759c9.59,-18.798 7.272,-47.485 -5.281,-65.345c-25.466,-36.234 -83.392,-39.99 -113.471,-7.359c-20.31,22.034 -24.204,47.577 -11.374,74.613c13.481,28.41 54.183,43.378 89.323,32.85Z" style="fill:#cfd0d0;fill-rule:nonzero;"/>
        <path id="path150" d="M429.427,521.67c-65.714,-15.05 -97.092,-35.844 -117.018,-77.549c-5.858,-12.259 -11.615,-27.577 -12.795,-34.042c-2.655,-14.545 -7.687,-18.439 -7.687,-5.947c0,15.457 -11.771,48.294 -21.548,60.109c-5.078,6.137 -17.557,15.595 -27.731,21.018c-23.019,12.269 -84.071,32.948 -90.261,30.573c-2.527,-0.97 -9.754,-12.673 -16.06,-26.006c-10.533,-22.271 -11.47,-26.532 -11.526,-52.368c-0.077,-35.45 6.817,-50.373 35.799,-77.493c11.214,-10.494 17.653,-18.032 14.309,-16.751c-3.344,1.281 -16.189,3.901 -28.544,5.822c-25.644,3.986 -47.809,0.851 -70.979,-10.04c-24.782,-11.649 -60.974,-52.752 -57.126,-64.877c2.921,-9.205 44.005,-42.894 67.042,-54.976c45.509,-23.867 75.135,-22.096 145.187,8.675l11.999,5.27l-7.929,-10.395c-4.361,-5.717 -12.573,-20.203 -18.249,-32.19c-9.647,-20.373 -10.32,-23.946 -10.32,-54.753c-0,-31.834 0.398,-33.752 11.688,-56.25c6.428,-12.811 16.742,-30.117 22.92,-38.458l11.232,-15.166l10.034,10.478c5.518,5.763 18.611,17.814 29.094,26.78c39.769,34.01 59.135,76.996 56.462,125.326c-0.825,14.918 -2.564,29.624 -3.865,32.68c-1.301,3.057 5.46,-2.081 15.024,-11.418c19.898,-19.428 52.941,-37.223 79.403,-42.763c19.917,-4.169 105.944,-2.19 110.681,2.547c4.01,4.01 -17.511,66.58 -33.733,98.078c-21.668,42.071 -48.606,64.721 -86.775,72.964l-9.084,1.962l11.046,9.106c14.821,12.216 29.848,36.282 37.506,60.066c4.749,14.749 6.234,27.553 6.071,52.338c-0.243,36.823 -3.65,63.138 -8.331,64.354c-1.718,0.446 -17.889,-2.571 -35.936,-6.704Zm-100.681,-159.365c17.361,-7.232 34.187,-25.305 40.082,-43.053c9.745,-29.34 -4.786,-62.386 -34.234,-77.857c-19.321,-10.149 -51.653,-9.738 -72.39,0.92c-51.567,26.506 -46.278,100.758 8.595,120.658c14.649,5.313 44.414,4.97 57.947,-0.668l0,0Z" style="fill:#b0b1b0;fill-rule:nonzero;"/>
        <path id="path148" d="M427.865,520.365c-49.018,-11.294 -80.287,-27.178 -98.316,-49.941c-11.976,-15.121 -27.774,-48.269 -30.265,-63.504c-2.372,-14.505 -7.357,-18.511 -7.357,-5.913c0,5.076 -2.912,18.658 -6.471,30.181c-11.612,37.593 -35.358,55.241 -102.771,76.376l-28.652,8.983l-8.744,-12.071c-13.834,-19.098 -23.256,-52.49 -21.385,-75.794c2.432,-30.299 16.372,-53.194 47.576,-78.136c8.668,-6.928 12.95,-11.563 9.517,-10.3c-29.303,10.781 -78.979,10.466 -101.935,-0.646c-19.567,-9.472 -37.004,-25.082 -51.455,-46.064l-12.232,-17.761l24.33,-22.951c59.65,-56.271 113.639,-63.295 189.812,-24.695l15.582,7.896l-14.032,-20.496c-28.149,-41.116 -34.389,-91.257 -16.279,-130.814c6.892,-15.054 23.372,-41.052 33.626,-53.045c1.252,-1.464 14.981,8.057 30.51,21.158c31.158,26.288 52.444,54.845 61.92,83.068c6.161,18.351 7.772,57.727 3.238,79.158l-2.533,11.97l17.162,-16.889c20.154,-19.835 45.554,-34.123 73.841,-41.537c16.643,-4.363 28.734,-4.993 66.929,-3.491c25.638,1.009 47.668,2.934 48.955,4.28c3.367,3.521 -17.031,63.699 -31.547,93.071c-22.239,44.999 -52.844,71.483 -87.326,75.567l-15.714,1.861l10.793,8.161c16.909,12.786 32.644,35.379 40.864,58.672c6.279,17.792 7.512,27.111 7.374,55.739c-0.091,18.906 -1.117,40.703 -2.278,48.438c-2.571,17.114 -6.134,17.903 -42.737,9.47l-0,-0.001Zm-92.442,-161.491c29.702,-14.801 43.597,-47.525 33.319,-78.469c-17.945,-54.027 -97.989,-64.37 -131.305,-16.966c-12.55,17.855 -14.904,46.568 -5.353,65.289c7.081,13.88 21.878,27.731 36.406,34.077c16.695,7.293 48.111,5.448 66.933,-3.931Z" style="fill:#8e9290;fill-rule:nonzero;"/>
        <path id="path146" d="M432.552,520.217c-50.453,-10.785 -76.713,-23.42 -98.997,-47.635c-15.85,-17.223 -23.134,-31.035 -32.553,-61.725l-7.182,-23.399l-3.9,22.878c-6.62,38.831 -20.995,60.192 -50.709,75.35c-18.87,9.628 -80.878,29.302 -86.07,27.31c-6.126,-2.351 -18.62,-27.177 -25.382,-50.438c-12.846,-44.19 5.28,-84.693 53.364,-119.24l9.242,-6.64l-23.438,6.07c-59.92,15.518 -108.981,-2.989 -142.601,-53.793l-8.81,-13.313l23.672,-22.331c15.182,-14.322 32.272,-26.696 47.646,-34.5c20.783,-10.549 27.433,-12.35 49.975,-13.533c29.613,-1.554 49.101,2.951 85.669,19.806c23.108,10.651 23.778,10.266 11.241,-6.456c-26.164,-34.897 -35.251,-80.743 -23.605,-119.084c5.114,-16.837 28.302,-57.338 39.768,-69.459c1.428,-1.51 36.19,28.685 54.73,47.539c17.64,17.939 32.15,43.883 38.78,69.339c5.878,22.565 5.999,41.17 0.424,64.864l-4.263,18.119l20.718,-20.001c39.375,-38.012 75.209,-48.671 149.267,-44.399c33.435,1.928 38.639,2.945 38.639,7.55c0,2.927 -4.789,19.541 -10.642,36.92c-26.822,79.648 -62.302,121.434 -108.484,127.764l-14.138,1.937l16.242,15.36c19.712,18.644 33.907,44.4 39.074,70.897c3.862,19.806 2.637,83.729 -1.822,95.077c-2.526,6.431 -1.788,6.448 -35.855,-0.833l0,-0.001Zm-95.697,-161.92c38.729,-21.779 47.214,-68.995 18.185,-101.192c-15.271,-16.939 -31.861,-24.198 -55.3,-24.198c-30.352,0 -55.139,13.933 -67.432,37.903c-13.006,25.36 -9.175,51.311 10.822,73.306c24.173,26.589 61.592,32.251 93.725,14.181Z" style="fill:#7c8683;fill-rule:nonzero;"/>
        <path id="path144" d="M435.076,520.352c-33.194,-7 -46.591,-11.245 -65.69,-20.815c-31.226,-15.647 -55.956,-46.509 -66.224,-82.644c-3.136,-11.033 -6.429,-22.17 -7.32,-24.748c-0.89,-2.578 -3.606,5.682 -6.035,18.355c-7.99,41.688 -23.783,62.701 -58.752,78.169c-24.1,10.661 -73.742,25.928 -78.441,24.125c-6.947,-2.666 -22.824,-38.691 -26.667,-60.507c-6.861,-38.95 8.814,-72.767 47.325,-102.106c11.12,-8.471 17.845,-14.526 14.944,-13.454c-30.842,11.39 -76.09,13.334 -101.794,4.374c-18.472,-6.44 -45.547,-29.338 -60.658,-51.3l-9.56,-13.895l15.205,-15.485c8.363,-8.516 24.346,-21.731 35.518,-29.366c49.139,-33.582 90.992,-35.223 154.953,-6.075c12.745,5.808 23.172,9.788 23.172,8.845c0,-0.944 -3.593,-5.986 -7.986,-11.205c-18.127,-21.543 -32.639,-61.094 -32.639,-88.953c0,-9.196 2.888,-25.464 6.417,-36.152c6.303,-19.087 36.636,-68.668 41.054,-67.104c6.82,2.413 62.601,57.426 70.84,69.864c24.344,36.753 30.818,81.884 17.661,123.12c-1.923,6.029 2.515,3.093 19.446,-12.863c38.992,-36.749 76.231,-48.824 138.332,-44.856c19.766,1.262 39.102,2.259 42.969,2.213c9.368,-0.106 9.039,3.402 -3.966,42.267c-26.095,77.983 -64.087,122.526 -108.422,127.118c-7.366,0.763 -13.661,1.468 -13.988,1.567c-0.326,0.094 6.825,7.195 15.892,15.77c32.098,30.357 44.455,66.795 41.343,121.909c-1.019,18.047 -2.471,35.625 -3.226,39.063c-0.756,3.437 -1.481,7.304 -1.613,8.593c-0.3,2.944 0.403,3.028 -32.09,-3.824Zm-112.645,-154.837c39.239,-11.653 61.007,-55.646 44.809,-90.557c-12.464,-26.864 -37.526,-42.188 -68.997,-42.188c-23.693,0 -43.202,8.701 -57.831,25.792c-22.595,26.397 -20.926,63.578 3.919,87.325c24.282,23.21 46.898,28.894 78.1,19.628Z" style="fill:#6e716f;fill-rule:nonzero;"/>
        <path id="path142" d="M432.552,518.515c-86.499,-18.36 -116.508,-46.574 -136.075,-127.932c-1.938,-8.058 -2.861,-5.911 -6.572,15.276c-7.288,41.606 -20.851,62.867 -49.54,77.656c-11.918,6.144 -81.179,30.505 -86.727,30.505c-4.603,0 -24.012,-44.581 -27.397,-62.926c-7.448,-40.369 13.005,-78.764 57.628,-108.184c17.252,-11.374 17.212,-11.99 -0.38,-5.783c-17.377,6.131 -39.609,9.163 -64.381,8.781c-36.222,-0.56 -64.244,-17.3 -92.096,-55.016l-11.31,-15.316l19.752,-18.566c59.923,-56.323 110.188,-65.545 181.717,-33.337c14.929,6.722 28.004,12.222 29.054,12.222c1.051,0 -2.867,-6.259 -8.707,-13.91c-22.676,-29.707 -35.203,-67.594 -31.93,-96.568c3.644,-32.258 12.389,-50.938 44.679,-95.441c1.919,-2.644 61.279,54.494 70.43,67.795c21.502,31.251 29.632,69.038 22.994,106.874c-2.261,12.891 -3.849,23.758 -3.529,24.149c0.321,0.391 9.649,-8.135 20.73,-18.947c37.477,-36.566 83.418,-49.972 148.847,-43.433c19.859,1.985 36.816,4.317 37.681,5.182c2.805,2.806 -24.362,77.802 -35.301,97.449c-22.301,40.057 -55.635,66.476 -85.369,67.662c-7.122,0.283 -12.948,1.024 -12.948,1.645c0,0.62 7.443,7.931 16.539,16.244c31.795,29.059 44.872,66.885 41.61,120.362c-1.048,17.187 -2.959,35.586 -4.246,40.885l-2.34,9.636l-32.813,-6.964Zm-107.799,-153.42c18.402,-6.27 39.83,-26.692 45.255,-43.128c14.851,-44.999 -22.142,-91.168 -71.949,-89.796c-23.051,0.636 -38.599,6.898 -53.728,21.64c-53.515,52.146 7.242,136.218 80.422,111.284Z" style="fill:#f1002c;fill-rule:nonzero;"/>
        <path id="path140" d="M432.552,518.515c-86.499,-18.36 -116.508,-46.574 -136.075,-127.932c-1.938,-8.058 -2.861,-5.911 -6.572,15.276c-7.288,41.606 -20.851,62.867 -49.54,77.656c-11.918,6.144 -81.179,30.505 -86.727,30.505c-4.603,0 -24.012,-44.581 -27.397,-62.926c-4.895,-26.533 1.99,-51.635 21.036,-76.693c8.228,-10.825 41.088,-36.859 43.491,-34.457c0.818,0.819 -3.306,4.451 -9.166,8.072c-15.374,9.502 -39.062,35.856 -46.034,51.217c-4.395,9.681 -5.889,19.506 -5.577,36.662l0.426,23.438l1.887,-26.582c2.23,-31.43 10.429,-48.157 33.602,-68.554c16.484,-14.51 49.77,-35.593 56.194,-35.593c2.311,-0 4.202,-1.172 4.202,-2.605c0,-3.765 -1.99,-3.31 -15.362,3.512c-6.594,3.364 -12.647,5.458 -13.451,4.654c-0.804,-0.804 -7.061,0.514 -13.905,2.929c-17.469,6.163 -39.663,9.197 -64.476,8.814c-36.222,-0.56 -64.244,-17.3 -92.096,-55.016l-11.31,-15.316l19.752,-18.566c60.103,-56.493 110.141,-65.566 182.331,-33.061c15.266,6.874 28.572,11.683 29.568,10.687c0.996,-0.997 3.605,-0.324 5.796,1.495c2.855,2.37 6.482,1.954 12.788,-1.464c4.841,-2.624 7.655,-4.828 6.253,-4.897c-1.402,-0.071 -5.451,1.428 -8.997,3.326c-5.474,2.93 -7.567,2.103 -13.845,-5.469c-11.828,-14.263 -20.455,-28.846 -28.189,-47.645c-3.964,-9.638 -7.228,-15.415 -7.252,-12.837c-0.06,6.478 14.434,37.015 22.98,48.415c11.199,14.938 12.586,19.75 2.379,8.252c-21.731,-24.478 -36.991,-69.065 -33.678,-98.395c3.644,-32.258 12.389,-50.938 44.679,-95.441c1.919,-2.644 61.28,54.494 70.43,67.795c21.479,31.218 29.619,69 23.026,106.874c-2.603,14.951 -2.98,24.145 -1.042,25.391c1.861,1.196 1.599,2.842 -0.674,4.248c-2.526,1.56 -0.385,5.229 6.697,11.474l10.411,9.181l-12.978,-8.174c-19.811,-12.478 -37.33,-16.702 -57.717,-13.917c-21.147,2.888 -28.797,6.563 -44.089,21.18c-40.008,38.24 -17.643,101.882 40.057,113.985c29.852,6.261 61.54,-6.917 78.606,-32.689c7.217,-10.899 8.621,-16.365 8.621,-33.568c-0,-11.301 -1.147,-24.064 -2.549,-28.361c-2.016,-6.181 -1.803,-6.834 1.019,-3.125c3.172,4.167 3.426,4.167 2.288,0c-0.703,-2.578 -2.568,-4.709 -4.144,-4.735c-4.677,-0.083 -10.677,-4.761 -10.677,-8.332c0,-2.036 2.118,-1.719 5.469,0.817c3.008,2.278 -0.07,-1.748 -6.839,-8.945l-12.307,-13.087l6.839,-7.279c3.761,-4.004 6.791,-8.595 6.734,-10.203c-0.057,-1.608 -2.87,0.396 -6.25,4.454c-3.38,4.057 -6.146,5.967 -6.146,4.243c0,-6.313 37.734,-37.84 55.151,-46.08c29.645,-14.024 66.658,-18.994 109.536,-14.709c19.859,1.985 36.816,4.317 37.681,5.182c2.805,2.805 -24.362,77.801 -35.3,97.448c-22.302,40.057 -55.636,66.477 -85.37,67.663c-7.121,0.283 -12.948,1.774 -12.948,3.311c0,1.538 -2.461,1.79 -5.469,0.56c-3.007,-1.229 -12.626,-3.955 -21.374,-6.058l-15.905,-3.822l-10.053,11.973c-5.528,6.585 -8.747,11.973 -7.153,11.973c1.594,0 6.11,-4.686 10.035,-10.414l7.136,-10.415l16.136,3.751c22.216,5.164 26.252,7.753 46.981,30.143c9.976,10.776 16.365,16.277 14.196,12.225c-2.168,-4.051 -10.084,-13.509 -17.591,-21.016c-7.507,-7.507 -12.473,-13.649 -11.034,-13.649c4.723,0 30.874,30.086 37.585,43.24c11.901,23.328 16.761,51.989 14.659,86.448c-1.048,17.187 -2.959,35.586 -4.246,40.886l-2.34,9.636l-32.813,-6.964Zm30.888,-5.276c-0.284,-5.491 -0.681,-5.805 -1.817,-1.433c-0.903,3.477 -3.431,5.021 -6.669,4.073c-2.868,-0.84 -10.839,-2.246 -17.714,-3.125c-11.332,-1.45 -11.04,-1.202 3.125,2.658c21.792,5.939 23.485,5.78 23.075,-2.173Zm-46.513,-5.469c-10.685,-3.422 -18.901,-3.422 -10.937,0c3.437,1.477 9.062,2.645 12.5,2.594c5.024,-0.071 4.717,-0.582 -1.563,-2.594Zm-258.193,-2.153c-4.059,-0.797 -8.795,-6.099 -12.208,-13.669c-3.067,-6.801 -6.158,-11.785 -6.868,-11.075c-0.711,0.71 1.647,7.053 5.24,14.094c4.88,9.568 8.292,12.696 13.499,12.378c6.771,-0.414 6.78,-0.463 0.337,-1.728Zm50.579,-13.899c37.863,-13.7 54.148,-25.416 64.562,-46.448c4.68,-9.453 9.251,-23.516 10.158,-31.25c1.474,-12.578 1.145,-12.1 -3.111,4.532c-10.492,40.996 -23.394,52.635 -82.131,74.096c-18.384,6.718 -29.557,11.435 -24.829,10.482c4.729,-0.952 20.637,-6.087 35.351,-11.412Zm256.699,-3.443c-0.747,-3.887 -1.387,-1.442 -1.422,5.433c-0.034,6.875 0.577,10.055 1.359,7.067c0.782,-2.987 0.811,-8.612 0.063,-12.5l0,0Zm-90.244,5.894c-30.404,-14.904 -48.825,-34.764 -61.717,-66.536c-3.387,-8.346 -6.235,-13.239 -6.329,-10.871c-0.093,2.367 4.231,13.243 9.61,24.17c11.08,22.507 33.577,45.378 53.558,54.448c18.584,8.436 22.549,7.452 4.878,-1.211Zm93.424,-40.249c-0.696,-5.617 -1.279,-1.775 -1.297,8.538c-0.018,10.312 0.552,14.908 1.265,10.212c0.713,-4.696 0.727,-13.133 0.032,-18.75l-0,-0Zm-6.919,-41.809c-2.8,-9.632 -5.659,-16.944 -6.354,-16.25c-0.694,0.695 0.795,8.101 3.31,16.458c2.515,8.357 4.765,18.838 4.999,23.292c0.387,7.371 0.547,7.466 1.781,1.055c0.745,-3.872 -0.936,-14.922 -3.736,-24.554l0,-0.001Zm-156.674,-13.325c-1.098,-5.491 -2.648,-9.331 -3.444,-8.535c-0.796,0.796 -0.477,5.867 0.71,11.269c2.814,12.816 5.339,10.292 2.734,-2.734l-0,-0Zm-44.946,-31.654c3.225,1.726 7.01,3.082 8.412,3.013c1.402,-0.071 -1.442,-2.288 -6.32,-4.932c-4.879,-2.644 -9.214,-4.345 -9.635,-3.781c-4.77,6.401 -23.679,40.007 -23.666,42.059c0.01,1.494 5.716,-6.781 12.681,-18.39c10.996,-18.327 13.436,-20.694 18.528,-17.969Zm-25.022,12.226l13.166,-22.161l-8.88,-9.87c-4.883,-5.428 -9.945,-11.205 -11.247,-12.838c-1.302,-1.633 -2.368,-2.033 -2.368,-0.891c0,1.144 4.339,7.02 9.641,13.06l9.641,10.98l-11.704,19.597c-14.495,24.27 -14.503,24.285 -12.806,24.285c0.765,-0 7.316,-9.973 14.557,-22.162l-0,0Zm53.707,6.537c0.655,-6.875 0.1,-12.5 -1.235,-12.5c-1.334,0 -2.426,5.625 -2.426,12.5c0,6.875 0.555,12.5 1.234,12.5c0.679,0 1.771,-5.625 2.427,-12.5Zm96.339,8.188c0,-0.653 -7.734,-7.026 -17.187,-14.164c-9.454,-7.137 -17.188,-12.292 -17.188,-11.455c0,1.371 31.719,26.633 33.594,26.755c0.43,0.024 0.781,-0.483 0.781,-1.136l0,0Zm-77.152,-18.508c5.631,-1.093 5.32,-1.404 -1.754,-1.754c-7.051,-0.35 -8.529,0.836 -8.231,6.605c0.256,4.982 0.768,5.494 1.754,1.755c0.766,-2.902 4.47,-5.875 8.231,-6.606Zm64.151,-2.662c-21.724,-16.901 -27.015,-20.598 -22.936,-16.025c5.763,6.461 34.345,28.783 36.999,28.896c1.443,0.059 -4.885,-5.731 -14.063,-12.871Zm-90.97,-1.406c-1.039,-1.038 -3.734,-1.149 -5.99,-0.247c-2.493,0.998 -1.752,1.738 1.888,1.888c3.294,0.136 5.14,-0.602 4.102,-1.641l-0,0Zm60.958,-5.483c3.101,-0.125 4.252,-1.39 2.688,-2.954c-1.564,-1.564 -6.563,-0.523 -11.674,2.431c-4.916,2.842 -6.126,4.171 -2.688,2.954c3.437,-1.217 8.69,-2.311 11.674,-2.431Zm-217.924,-26.864c-19.02,-1.334 -33.184,-4.254 -43.75,-9.019c-16.974,-7.653 -38.68,-27.056 -49.199,-43.976l-6.631,-10.668l19.17,-18.018c21.561,-20.266 41.653,-32.978 64.744,-40.963c8.616,-2.979 12.69,-5.463 9.054,-5.519c-11.992,-0.185 -49.387,21.154 -73.956,42.202l-24.165,20.701l12.937,18.443c24.245,34.564 53.878,49.931 94.921,49.223l25,-0.432l-28.125,-1.974Zm46.875,-3.265c7.963,-3.422 -0.253,-3.422 -10.938,0c-6.28,2.011 -6.587,2.52 -1.562,2.594c3.437,0.047 9.062,-1.117 12.5,-2.594Zm20.312,-6.25c5.712,-3.692 0.778,-3.692 -7.812,0c-4.121,1.771 -4.654,2.744 -1.563,2.858c2.578,0.094 6.797,-1.192 9.375,-2.858Zm254.351,-1.931c24.131,-8.222 48.809,-33.658 65.724,-67.741c7.865,-15.847 14.255,-30.209 14.2,-31.914c-0.059,-1.706 -6.286,9.647 -13.848,25.228c-23.941,49.333 -50.641,71.899 -90.46,76.452c-17.948,2.052 -18.217,2.2 -4.742,2.604c7.858,0.235 20.964,-1.848 29.126,-4.629Zm-47.32,-0.138c-2.148,-0.867 -5.664,-0.867 -7.812,-0c-2.149,0.867 -0.391,1.576 3.906,1.576c4.297,-0 6.055,-0.71 3.906,-1.576Zm-191.406,-4.181c2.578,-1.666 3.281,-3.029 1.563,-3.029c-1.719,-0 -5.235,1.363 -7.813,3.029c-2.578,1.666 -3.281,3.03 -1.562,3.03c1.718,-0 5.234,-1.364 7.812,-3.03Zm178.125,1.927c0,-0.659 -2.812,-1.933 -6.25,-2.832c-3.437,-0.899 -6.25,-0.36 -6.25,1.198c0,1.558 2.813,2.832 6.25,2.832c3.438,0 6.25,-0.538 6.25,-1.198Zm-6.753,-31.794c-0.883,-11.103 0.072,-14.218 5.179,-16.89c5.539,-2.898 5.36,-3.049 -1.551,-1.308c-4.297,1.081 -7.868,2.144 -7.937,2.36c-0.068,0.216 0.519,9.533 1.305,20.705c0.787,11.172 2.028,17.71 2.758,14.53c0.731,-3.181 0.841,-11.91 0.246,-19.397l-0,-0Zm-158.872,4.867c0,-9.915 -1.131,-12.449 -5.469,-12.253c-3.267,0.148 -3.896,0.881 -1.562,1.823c2.148,0.867 3.906,6.381 3.906,12.253c0,5.873 0.703,10.677 1.563,10.677c0.859,0 1.562,-5.625 1.562,-12.5Zm-21.094,-14.569c-2.148,-0.867 -5.664,-0.867 -7.812,-0c-2.149,0.867 -0.391,1.576 3.906,1.576c4.297,-0 6.055,-0.71 3.906,-1.576Zm-18.75,-3.125c-2.148,-0.867 -5.664,-0.867 -7.812,-0c-2.149,0.867 -0.391,1.576 3.906,1.576c4.297,-0 6.055,-0.71 3.906,-1.576Zm-23.437,-3.21c-7.815,-2.042 -6.761,-7.154 1.562,-7.583c5.788,-0.299 6.005,-0.626 1.231,-1.856c-6.818,-1.755 -13.006,3.32 -9.993,8.196c1.155,1.868 4.478,3.234 7.384,3.035c4.764,-0.327 4.746,-0.503 -0.184,-1.792l-0,0Zm74.02,-11.851c4.514,-7.703 11.248,-15.632 14.966,-17.622c6.292,-3.368 5.295,-4.355 -14.479,-14.323c-11.68,-5.888 -21.78,-10.162 -22.445,-9.498c-0.664,0.665 7.062,5.161 17.169,9.992l18.377,8.784l-10.601,13.888c-5.83,7.638 -10.601,15.089 -10.601,16.556c0,1.468 -3.164,3.278 -7.031,4.023c-6.864,1.322 -6.871,1.364 -0.297,1.78c4.888,0.309 8.985,-3.415 14.942,-13.58Zm-28.648,8.83c-2.116,-0.856 -6.335,-0.908 -9.375,-0.118c-3.041,0.793 -1.31,1.493 3.847,1.557c5.156,0.059 7.644,-0.585 5.528,-1.441l-0,0.002Zm-21.875,-3.125c-2.116,-0.856 -6.335,-0.908 -9.375,-0.118c-3.041,0.793 -1.31,1.493 3.847,1.557c5.156,0.059 7.644,-0.585 5.528,-1.441l-0,0.002Zm208.534,-5.762c4.297,-2.457 6.406,-4.466 4.688,-4.466c-1.719,-0 -6.641,2.009 -10.938,4.466c-4.297,2.456 -6.406,4.466 -4.687,4.466c1.718,-0 6.64,-2.01 10.937,-4.466Zm18.75,1.562c2.578,-1.666 3.281,-3.029 1.563,-3.029c-1.719,-0 -5.235,1.363 -7.813,3.029c-2.578,1.666 -3.281,3.03 -1.562,3.03c1.718,-0 5.234,-1.364 7.812,-3.03Zm18.75,-7.812c4.297,-2.457 6.406,-4.466 4.688,-4.466c-1.719,-0 -6.641,2.009 -10.938,4.466c-4.297,2.456 -6.406,4.466 -4.687,4.466c1.718,-0 6.64,-2.01 10.937,-4.466Zm-15.625,-3.125c4.297,-2.457 6.406,-4.466 4.688,-4.466c-1.719,-0 -6.641,2.009 -10.938,4.466c-4.297,2.456 -6.406,4.466 -4.687,4.466c1.718,-0 6.64,-2.01 10.937,-4.466Zm18.75,-7.813c2.578,-1.666 3.281,-3.029 1.563,-3.029c-1.719,-0 -5.235,1.363 -7.813,3.029c-2.578,1.666 -3.281,3.03 -1.562,3.03c1.718,-0 5.234,-1.364 7.812,-3.03Zm-94.112,-19.531c-0.259,-5.013 -0.764,-5.511 -1.759,-1.736c-0.873,3.315 -3.368,4.666 -6.668,3.612c-4.505,-1.439 -4.59,-1.193 -0.586,1.688c7.091,5.1 9.412,4.183 9.013,-3.564Zm-46.513,-2.051c0,-1.558 -2.812,-2.097 -6.25,-1.198c-3.437,0.899 -6.25,2.173 -6.25,2.832c0,0.659 2.813,1.198 6.25,1.198c3.438,0 6.25,-1.274 6.25,-2.832Zm30.404,0.945c-1.039,-1.038 -3.734,-1.15 -5.99,-0.247c-2.493,0.998 -1.752,1.738 1.888,1.888c3.294,0.136 5.14,-0.603 4.102,-1.641l-0,-0Zm-123.705,-9.45c-5.769,-2.517 -14.91,-5.253 -20.313,-6.08c-5.789,-0.886 -2.765,0.967 7.364,4.511c20.394,7.137 27.75,8.028 12.949,1.569Zm89.186,-4.874c-0.998,-2.493 -1.738,-1.752 -1.888,1.888c-0.136,3.294 0.603,5.14 1.641,4.102c1.039,-1.038 1.15,-3.734 0.247,-5.99l-0,0Zm9.375,0c-0.998,-2.493 -1.738,-1.752 -1.888,1.888c-0.136,3.294 0.603,5.14 1.641,4.102c1.039,-1.038 1.15,-3.734 0.247,-5.99l-0,0Zm47.307,-35.351c0.084,-36.678 -1.748,-30.703 -3.353,10.937c-0.696,18.047 -0.241,29.297 1.011,25c1.252,-4.297 2.306,-20.469 2.342,-35.937l-0,-0Zm33.46,26.035c3.486,-3.032 14.033,-9.753 23.437,-14.936c9.404,-5.183 15.61,-9.449 13.79,-9.48c-5.481,-0.095 -39.883,21.576 -48.254,30.395c-8.122,8.557 -1.665,5.056 11.027,-5.979Zm-219.621,4.516c-5.586,-0.693 -14.726,-0.693 -20.312,0c-5.586,0.694 -1.016,1.261 10.156,1.261c11.172,-0 15.742,-0.567 10.156,-1.261Zm126.289,-11.02c-0.867,-2.149 -1.576,-0.391 -1.576,3.906c-0,4.297 0.709,6.055 1.576,3.906c0.867,-2.148 0.867,-5.664 -0,-7.812Zm9.44,0.195c-0.998,-2.493 -1.738,-1.753 -1.888,1.888c-0.136,3.294 0.603,5.14 1.641,4.101c1.039,-1.038 1.15,-3.733 0.247,-5.989l-0,-0Zm250.364,-14.258c2.602,-7.714 2.526,-10.153 -0.318,-10.142c-2.104,0.007 -3.998,4.939 -4.325,11.258c-0.671,12.974 -0.059,12.827 4.642,-1.116l0.001,-0Zm-262.864,1.758c-0.998,-2.493 -1.738,-1.753 -1.888,1.888c-0.136,3.294 0.603,5.14 1.641,4.101c1.039,-1.038 1.15,-3.733 0.247,-5.989l-0,-0Zm9.375,-0c-0.998,-2.493 -1.738,-1.753 -1.888,1.888c-0.136,3.294 0.603,5.14 1.641,4.101c1.039,-1.038 1.15,-3.733 0.247,-5.989l-0,-0Zm-12.5,-12.5c-0.998,-2.493 -1.738,-1.753 -1.888,1.888c-0.136,3.294 0.603,5.14 1.641,4.101c1.039,-1.038 1.15,-3.733 0.247,-5.989l-0,-0Zm9.375,-0c-0.998,-2.493 -1.738,-1.753 -1.888,1.888c-0.136,3.294 0.603,5.14 1.641,4.101c1.039,-1.038 1.15,-3.733 0.247,-5.989l-0,-0Zm146.303,3.711c3.939,-1.693 4.517,-2.686 1.562,-2.686c-2.578,-0 -7.5,1.209 -10.937,2.686c-3.94,1.693 -4.518,2.685 -1.563,2.685c2.578,0 7.5,-1.208 10.938,-2.685Zm25.817,-5.272c-2.988,-0.782 -8.613,-0.811 -12.5,-0.06c-3.887,0.748 -1.442,1.388 5.433,1.423c6.875,0.035 10.055,-0.577 7.067,-1.359l0,-0.004Zm65.589,-0.095c-4.727,-0.716 -12.461,-0.716 -17.188,0c-4.726,0.716 -0.859,1.302 8.594,1.302c9.453,-0 13.32,-0.586 8.594,-1.302Zm-32.77,-3.086c-3.843,-0.742 -10.875,-0.761 -15.625,-0.048c-4.75,0.718 -1.605,1.326 6.989,1.349c8.593,0.024 12.48,-0.565 8.636,-1.306l0,0.005Zm-276.783,-18.835c-0.793,-3.04 -1.493,-1.309 -1.557,3.847c-0.063,5.156 0.585,7.644 1.441,5.528c0.856,-2.116 0.908,-6.334 0.116,-9.375l-0,0Zm114.906,-31.375c-11.429,-23.125 -24.905,-38.791 -61.459,-71.446l-14.464,-12.921l-14.367,20.837c-15.146,21.967 -26.921,48.776 -26.576,60.508c0.113,3.849 2.201,-0.413 4.639,-9.471c5.383,-19.996 11.336,-32.014 25.499,-51.482l10.786,-14.825l20.841,17.405c11.463,9.572 26.308,23.978 32.989,32.012c12.049,14.49 29.806,47.791 30.284,56.796c0.189,3.559 0.65,3.685 1.912,0.522c0.915,-2.291 -3.623,-14.861 -10.084,-27.934l-0,-0.001Z" style="fill:#db022b;fill-rule:nonzero;"/>
        <path id="path138" d="M432.552,518.515c-86.499,-18.36 -116.508,-46.574 -136.075,-127.932c-1.938,-8.058 -2.861,-5.911 -6.572,15.276c-7.288,41.606 -20.851,62.867 -49.54,77.656c-11.918,6.144 -81.179,30.505 -86.727,30.505c-4.603,0 -24.012,-44.581 -27.397,-62.926c-7.448,-40.369 13.005,-78.764 57.628,-108.184c17.252,-11.374 17.212,-11.99 -0.38,-5.783c-17.377,6.131 -39.609,9.163 -64.381,8.781c-36.222,-0.56 -64.244,-17.3 -92.096,-55.016l-11.31,-15.316l19.752,-18.566c59.923,-56.323 110.188,-65.545 181.717,-33.337c14.929,6.722 28.004,12.222 29.054,12.222c1.051,0 -2.867,-6.259 -8.707,-13.91c-22.676,-29.707 -35.203,-67.594 -31.93,-96.568c3.644,-32.258 12.389,-50.938 44.679,-95.441c1.919,-2.644 61.279,54.494 70.43,67.795c21.502,31.251 29.632,69.038 22.994,106.874c-2.261,12.891 -3.849,23.758 -3.529,24.149c0.321,0.391 9.649,-8.135 20.73,-18.947c35.193,-34.338 77.099,-47.977 136.497,-44.422c17.613,1.054 35.191,3.227 39.062,4.828c4.933,2.04 2.832,2.255 -7.024,0.718c-7.734,-1.206 -29.531,-2.2 -48.437,-2.208c-56.07,-0.023 -95.158,15.613 -126.264,50.513l-15.375,17.25l13.325,12.966c7.329,7.131 14.676,15.482 16.326,18.558c2.776,5.176 5.492,4.549 36.4,-8.4c18.37,-7.696 33.4,-12.828 33.4,-11.403c0,1.425 -14.414,8.513 -32.031,15.75l-32.031,13.16l-0,24.522c-0,28.181 -1.614,26.779 34.375,29.865c56.324,4.83 94.986,-34.299 125.296,-126.807c6.459,-19.715 12.232,-34.381 12.829,-32.592c1.859,5.577 -23.979,76.838 -35.134,96.899c-22.261,40.036 -55.616,66.477 -85.356,67.662c-7.122,0.284 -12.948,1.024 -12.948,1.645c0,0.62 7.443,7.931 16.539,16.245c31.795,29.059 44.872,66.884 41.61,120.361c-1.048,17.188 -2.959,35.586 -4.246,40.886l-2.34,9.636l-32.813,-6.964Zm33.398,-9.964c1.337,-6.445 2.386,-27.187 2.331,-46.093c-0.08,-27.568 -1.504,-38.347 -7.186,-54.429c-13.911,-39.368 -40.309,-66.753 -71.291,-73.955l-17.633,-4.099l-11.869,13.116c-6.528,7.214 -11.868,13.82 -11.868,14.679c-0,0.86 9.198,8.362 20.439,16.672c11.242,8.31 19.739,15.81 18.884,16.665c-0.856,0.855 -10.919,-5.803 -22.363,-14.796l-20.807,-16.352l-10.748,5.126c-5.911,2.819 -16.354,6.021 -23.205,7.117c-14.284,2.284 -14.516,3.225 -7.516,30.43c11.809,45.893 36.385,78.471 71.232,94.424c13.837,6.335 72.351,22.063 85.404,22.957c2.071,0.141 4.859,-5.016 6.196,-11.462Zm-228.959,-27.908c30.183,-15.246 42.914,-35.531 50.032,-79.718c2.301,-14.282 3.994,-26.067 3.763,-26.189c-3.203,-1.687 -37.781,-13.415 -38.139,-12.937c-0.271,0.362 -6.478,10.217 -13.792,21.9c-7.315,11.683 -13.933,20.608 -14.707,19.834c-0.774,-0.774 4.316,-10.828 11.311,-22.342c6.995,-11.514 12.718,-21.979 12.718,-23.256c0,-1.277 -3.012,-5 -6.693,-8.274c-10.127,-9.008 -21.367,-35.522 -21.401,-50.485c-0.017,-7.304 -0.476,-13.281 -1.019,-13.281c-0.544,0 -8.63,-1.327 -17.969,-2.949c-9.339,-1.622 -23.977,-3.814 -32.528,-4.871c-8.552,-1.057 -16.169,-2.542 -16.927,-3.301c-4.424,-4.423 5.876,-4.111 36.603,1.109l34.594,5.878l3.61,-8.715c1.985,-4.794 8.31,-13.555 14.055,-19.47l10.445,-10.755l-22.479,-10.791c-38.688,-18.572 -54.173,-22.701 -84.978,-22.658c-25.232,0.035 -30.358,1.092 -49.823,10.274c-21.603,10.191 -39.72,23.047 -61.751,43.821l-11.573,10.912l12.769,18.203c31.741,45.251 75.742,58.994 138.658,43.308c15.383,-3.835 31.968,-9.022 36.854,-11.527c18.674,-9.572 10.725,-0.898 -14.157,15.448c-41.668,27.373 -57.877,46.934 -64.914,78.336c-3.882,17.321 0.336,42.798 11.124,67.191c12.115,27.395 9.575,26.757 50.441,12.666c19.937,-6.875 40.58,-14.687 45.873,-17.361l0,0Zm87.762,-115.548c18.402,-6.27 39.83,-26.692 45.255,-43.128c14.851,-44.999 -22.142,-91.168 -71.949,-89.796c-23.051,0.636 -38.599,6.898 -53.728,21.64c-53.515,52.146 7.242,136.218 80.422,111.284Zm-57.826,-130.762c4.297,-2.457 10.977,-4.516 14.844,-4.577c8.516,-0.135 8.555,-1.7 0.781,-31.361c-3.378,-12.891 -6.167,-26.133 -6.196,-29.427c-0.108,-11.969 4.135,-1.322 10.681,26.812l6.693,28.759l15.505,3.694c8.527,2.031 17.676,4.626 20.33,5.765c11.147,4.786 16.528,-64.192 7.403,-94.917c-6.779,-22.829 -26.16,-52.526 -45.847,-70.251c-9.01,-8.112 -21.565,-19.599 -27.901,-25.526l-11.52,-10.777l-12.985,19.122c-32.934,48.497 -38.197,90.605 -17.089,136.711c8.169,17.845 31.116,50.753 35.246,50.549c1.234,-0.059 5.758,-2.12 10.055,-4.576l0,-0Z" style="fill:#52504f;fill-rule:nonzero;"/>
        <path id="path136" d="M448.177,520.026c-6.309,-2.218 -5.605,-2.44 3.659,-1.156c9.19,1.274 11.759,0.484 12.919,-3.974c1.119,-4.303 1.529,-3.971 1.81,1.467c0.392,7.608 -4.43,8.569 -18.388,3.663l0,0Zm-34.375,-6.767c-7.734,-1.769 -12.656,-3.691 -10.937,-4.269c1.718,-0.579 10.859,0.863 20.312,3.206c19.892,4.928 11.621,5.866 -9.375,1.063l0,-0Zm-263.649,-5.032c-8.152,-9.008 -20.851,-40.901 -22.397,-56.251l-1.462,-14.518l4.136,17.187c4.439,18.448 12.169,37.947 19.465,49.101l4.522,6.913l36.724,-12.639c61.396,-21.131 74.148,-30.085 86.849,-60.976c4.146,-10.085 7.558,-16.227 7.582,-13.649c0.088,9.418 -14.897,36.42 -24.866,44.808c-14.407,12.123 -28.244,18.67 -69.601,32.931c-33.897,11.688 -36.401,12.122 -40.952,7.093Zm220.533,-10.008c-10.513,-5.254 -25.578,-16.108 -33.478,-24.122c-13.474,-13.667 -32.968,-47.959 -32.629,-57.399c0.084,-2.332 3.758,4.573 8.165,15.345c13.13,32.093 38.387,56.428 72.35,69.708c8.055,3.15 12.409,5.793 9.676,5.873c-2.733,0.083 -13.571,-4.152 -24.084,-9.405Zm96.966,0.176c0,-6.016 0.643,-8.477 1.429,-5.469c0.786,3.008 0.786,7.93 0,10.937c-0.786,3.008 -1.429,0.547 -1.429,-5.468Zm3.337,-37.5c-0,-9.454 0.585,-13.321 1.301,-8.594c0.716,4.727 0.716,12.461 0,17.187c-0.716,4.727 -1.301,0.86 -1.301,-8.593Zm-7.605,-43.122c-2.69,-9.798 -5.903,-20.628 -7.14,-24.065c-1.415,-3.933 -0.498,-3.354 2.472,1.562c4.976,8.235 12.916,36.962 10.8,39.078c-0.682,0.683 -3.442,-6.777 -6.132,-16.575Zm-336.699,2.497c-0.247,-7.851 10.253,-34.375 13.607,-34.375c0.988,0 -0.362,4.173 -3,9.274c-2.637,5.1 -6.048,14.592 -7.579,21.093c-2.055,8.73 -2.847,9.778 -3.028,4.008Zm160.954,-20.021c0.954,-10.152 2.356,-20.076 3.115,-22.053c0.798,-2.082 -5.568,-5.912 -15.13,-9.101c-9.08,-3.028 -17.916,-6.099 -19.634,-6.824c-1.719,-0.725 -9.246,8.603 -16.728,20.728c-7.481,12.125 -14.259,21.389 -15.062,20.586c-0.803,-0.803 4.264,-10.88 11.259,-22.394c6.995,-11.514 12.718,-21.979 12.718,-23.256c0,-1.277 -3.012,-5 -6.693,-8.274c-10.127,-9.008 -21.367,-35.522 -21.401,-50.485c-0.017,-7.304 -0.476,-13.281 -1.019,-13.281c-0.544,0 -8.63,-1.327 -17.969,-2.949c-9.339,-1.622 -23.977,-3.814 -32.528,-4.871c-8.552,-1.057 -16.169,-2.542 -16.927,-3.301c-4.424,-4.423 5.876,-4.111 36.603,1.109l34.594,5.878l3.61,-8.715c1.985,-4.794 8.225,-13.467 13.865,-19.275c9.176,-9.448 9.718,-10.956 5.154,-14.334c-2.806,-2.076 -3.344,-2.936 -1.195,-1.911c6.382,3.044 4.543,-1.489 -6.966,-17.166c-11.836,-16.124 -26.593,-45.732 -26.523,-53.215c0.023,-2.578 3.479,3.67 7.679,13.886c7.501,18.248 26.212,48.065 34.452,54.904c3.124,2.593 6.594,2.235 13.634,-1.406c5.195,-2.686 12.327,-4.884 15.85,-4.884c7.846,-0 7.855,-1.872 0.155,-31.25c-3.378,-12.891 -6.167,-26.133 -6.196,-29.427c-0.108,-11.969 4.135,-1.322 10.681,26.812l6.693,28.759l15.505,3.694c8.527,2.031 17.849,4.692 20.715,5.913c3.814,1.624 10.413,-3.079 24.618,-17.547l19.408,-19.766l-34.709,39.613l13.368,13.006c7.351,7.153 14.717,15.522 16.367,18.599c2.776,5.175 5.492,4.548 36.4,-8.401c18.37,-7.696 33.4,-12.827 33.4,-11.402c0,1.425 -14.414,8.512 -32.031,15.75l-32.031,13.159l-0,24.522c-0,28.179 -1.624,26.767 34.375,29.882c17.635,1.526 25.054,0.673 38.281,-4.399c18.687,-7.166 22.484,-5.99 4.687,1.452c-18.725,7.83 -43.044,9.931 -62.528,5.402l-17.384,-4.041l-11.869,13.116c-6.528,7.214 -11.868,13.82 -11.868,14.679c-0,0.86 9.198,8.362 20.439,16.672c11.242,8.31 19.739,15.809 18.884,16.665c-0.856,0.855 -10.919,-5.803 -22.363,-14.796l-20.807,-16.352l-10.748,5.125c-5.911,2.82 -16.354,6.022 -23.205,7.118c-9.801,1.567 -12.457,3.35 -12.457,8.363c0,3.505 -1.055,5.3 -2.344,3.99c-1.289,-1.309 -4.05,5.839 -6.137,15.886l-3.793,18.266l1.736,-18.458Zm33.115,-33.246c17.067,-4.74 37.361,-21.409 45.392,-37.284c23.714,-46.874 -13.14,-98.936 -69.531,-98.223c-21.637,0.274 -38.411,7.656 -53.748,23.657c-20.81,21.709 -24.875,47.235 -11.725,73.624c16.215,32.538 53.233,48.329 89.612,38.226Zm-21.014,34.517c-1.187,-5.402 -1.506,-10.473 -0.71,-11.269c0.796,-0.796 2.346,3.044 3.444,8.535c2.605,13.026 0.08,15.55 -2.734,2.734Zm145.345,-26.509c-3.699,-5.986 -12.603,-16.002 -19.786,-22.257c-7.183,-6.256 -10.126,-9.87 -6.54,-8.031c7.458,3.826 27.201,24.94 32.395,34.646c5.697,10.644 1.213,7.425 -6.069,-4.358Zm-298.47,1.509c3.11,-3.437 6.359,-6.25 7.218,-6.25c0.86,0 -0.983,2.813 -4.093,6.25c-3.111,3.438 -6.36,6.25 -7.219,6.25c-0.859,0 0.983,-2.812 4.094,-6.25Zm17.095,-16.548c4.234,-4.805 13.719,-12.539 21.077,-17.188c7.359,-4.648 13.381,-9.47 13.384,-10.715c0.008,-2.958 18.886,-12.711 20.833,-10.763c0.823,0.823 -8.8,8.103 -21.384,16.179c-12.584,8.076 -27.094,18.404 -32.244,22.953l-9.364,8.27l7.698,-8.736Zm-31.158,-17.798c16.328,-1.458 36.653,-4.823 45.167,-7.476c8.513,-2.653 16.035,-4.268 16.714,-3.588c3.608,3.607 -36.124,11.733 -61.881,12.654l-29.687,1.063l29.687,-2.653Zm-38.086,-2.164c2.256,-0.902 4.951,-0.791 5.99,0.247c1.038,1.038 -0.808,1.777 -4.102,1.641c-3.64,-0.15 -4.381,-0.89 -1.888,-1.888l0,0Zm-26.561,-10.345c-15.501,-8.89 -32.784,-26.565 -45.29,-46.318l-5.825,-9.199l17.342,-15.85c9.538,-8.717 21.874,-18.852 27.412,-22.522l10.071,-6.673l-7.813,6.7c-4.297,3.685 -15.918,13.75 -25.825,22.368l-18.012,15.669l12.958,18.473c13.698,19.528 24.521,29.127 44.942,39.861c6.875,3.613 11.093,6.619 9.375,6.679c-1.719,0.059 -10.42,-4.075 -19.335,-9.188Zm412.514,-23.664c17.115,-17.53 33.054,-44.276 46.006,-77.203c4.888,-12.425 8.968,-21.184 9.068,-19.465c0.094,1.718 -2.679,10.649 -6.174,19.846c-14.873,39.129 -36.418,73.172 -54.029,85.367c-7.53,5.215 -6.292,3.153 5.129,-8.545Zm-260.367,-77.918c-7.734,-4.142 -12.656,-7.53 -10.937,-7.53c1.718,-0 9.453,3.388 17.187,7.53c7.734,4.141 12.656,7.53 10.938,7.53c-1.719,-0 -9.454,-3.389 -17.188,-7.53Zm-146.875,0.023c0,-2.117 25.383,-14.744 26.797,-13.33c0.655,0.655 -5.106,4.251 -12.803,7.99c-7.697,3.739 -13.994,6.142 -13.994,5.34l0,0Zm264.419,-4.71c4.824,-20.789 4.903,-65.276 0.145,-81.509c-2.693,-9.185 -4.354,-17.242 -3.693,-17.904c0.662,-0.662 3.409,6.222 6.104,15.297c6.021,20.275 6.034,62.335 0.025,79.428c-2.417,6.876 -3.579,8.985 -2.582,4.688l0.001,0Zm-150.356,-8.55c-8.235,-3.283 -22.961,-5.074 -43.154,-5.248c-30.376,-0.262 -30.761,-4.041 -0.472,-4.641c15.635,-0.309 47.547,6.461 57.293,12.155c7.778,4.543 0.301,3.304 -13.667,-2.266l-0,0Zm348.665,-11.987c-0.321,-4.719 9.593,-33.183 11.051,-31.726c0.66,0.661 -1.504,8.823 -4.811,18.138c-3.306,9.316 -6.114,15.43 -6.24,13.588Zm-150.228,-12.056c0,-0.859 2.813,-3.067 6.25,-4.907c3.438,-1.84 6.25,-2.642 6.25,-1.782c0,0.859 -2.812,3.067 -6.25,4.907c-3.437,1.84 -6.25,2.642 -6.25,1.782Zm15.625,-9.343c0,-2.061 28.162,-10.845 44.458,-13.866c8.287,-1.537 14.036,-1.55 13.097,-0.036c-0.921,1.49 -4.981,2.708 -9.023,2.708c-4.043,0 -16.264,2.795 -27.16,6.21c-22.213,6.963 -21.372,6.767 -21.372,4.979l0,0.005Zm133.789,-10.199c2.256,-0.902 4.951,-0.791 5.99,0.247c1.038,1.038 -0.808,1.777 -4.102,1.641c-3.64,-0.15 -4.381,-0.89 -1.888,-1.888l0,0Zm-25.195,-3.195c3.867,-0.746 10.195,-0.746 14.062,-0c3.868,0.745 0.703,1.354 -7.031,1.354c-7.734,-0 -10.898,-0.61 -7.031,-1.354Zm-37.5,-3.125c3.867,-0.746 10.195,-0.746 14.062,-0c3.868,0.745 0.703,1.354 -7.031,1.354c-7.734,-0 -10.898,-0.61 -7.031,-1.354Zm-264.119,-13.42c0,-6.016 0.643,-8.477 1.429,-5.469c0.786,3.008 0.786,7.93 0,10.938c-0.786,3.008 -1.429,0.547 -1.429,-5.469Zm-3.603,-17.448c0.15,-3.64 0.89,-4.381 1.888,-1.888c0.903,2.256 0.792,4.951 -0.247,5.99c-1.038,1.038 -1.777,-0.808 -1.641,-4.102l-0,0Zm3.603,-16.927c0,-6.016 0.643,-8.477 1.429,-5.469c0.786,3.008 0.786,7.93 0,10.938c-0.786,3.008 -1.429,0.547 -1.429,-5.469Zm110.828,-15.037c-6.165,-9.989 -18.67,-24.882 -27.788,-33.095c-9.117,-8.212 -21.637,-19.659 -27.822,-25.437c-8.985,-8.395 -12.094,-9.751 -15.474,-6.749c-3.555,3.156 -3.557,2.868 -0.015,-1.806c3.93,-5.186 5.071,-4.764 16.9,6.25c35.725,33.263 55.115,54.187 61.119,65.956c9.463,18.549 6.198,16.134 -6.92,-5.119l0,-0Zm-108.354,-0.87c-0.105,-7.037 17.816,-42.019 24.113,-47.066c3.159,-2.533 2.288,0.015 -2.183,6.387c-4.091,5.831 -10.682,18.487 -14.647,28.125c-3.965,9.638 -7.242,15.287 -7.283,12.554Z" style="fill:#ce0015;fill-rule:nonzero;"/>
        <path id="path134" d="M457.552,521.117c2.578,-0.981 5.721,-3.331 6.983,-5.222c1.417,-2.12 2.315,-1.342 2.344,2.031c0.032,3.674 -2.259,5.388 -6.983,5.222c-4.698,-0.165 -5.476,-0.838 -2.344,-2.031Zm-13.086,-2.982c2.256,-0.902 4.951,-0.791 5.99,0.247c1.038,1.038 -0.808,1.777 -4.102,1.641c-3.64,-0.15 -4.381,-0.89 -1.888,-1.888l0,0Zm-294.176,-9.927c-5.221,-5.968 -14.67,-23.985 -14.488,-27.626c0.069,-1.375 2.332,1.719 5.029,6.876c12.575,24.043 11.935,23.624 27.785,18.223c7.851,-2.675 14.876,-4.263 15.611,-3.528c0.734,0.735 -5.592,3.551 -14.058,6.259c-14.148,4.524 -15.757,4.507 -19.879,-0.204Zm262.926,3.677c2.256,-0.902 4.951,-0.791 5.99,0.247c1.038,1.038 -0.808,1.777 -4.102,1.642c-3.64,-0.15 -4.381,-0.891 -1.888,-1.888l0,-0.001Zm-39.258,-11.814c-9.023,-4.201 -16.406,-8.442 -16.406,-9.425c0,-0.983 4.438,0.509 9.863,3.314c5.424,2.805 14.916,6.961 21.093,9.235c6.178,2.274 9.122,4.22 6.544,4.324c-2.578,0.107 -12.07,-3.247 -21.094,-7.448Zm93.694,-1.676c0,-6.015 0.643,-8.476 1.429,-5.469c0.786,3.008 0.786,7.93 0,10.938c-0.786,3.008 -1.429,0.547 -1.429,-5.469Zm-256.975,-6.25c2.578,-1.666 6.094,-3.029 7.813,-3.029c1.718,-0 1.015,1.363 -1.563,3.029c-2.578,1.666 -6.094,3.029 -7.812,3.029c-1.719,0 -1.016,-1.363 1.562,-3.029Zm15.625,-6.25c2.578,-1.666 6.094,-3.029 7.813,-3.029c1.718,-0 1.015,1.363 -1.563,3.029c-2.578,1.666 -6.094,3.029 -7.812,3.029c-1.719,0 -1.016,-1.363 1.562,-3.029Zm117.188,-5.077c-5.62,-4.782 -6.769,-6.683 -2.868,-4.746c5.728,2.845 16.472,13.132 13.406,12.836c-0.64,-0.059 -5.382,-3.703 -10.538,-8.09Zm-212.114,-9.106c-1.072,-2.793 -1.86,-6.721 -1.751,-8.729c0.109,-2.008 1.546,-0.282 3.192,3.835c1.647,4.116 2.435,8.044 1.751,8.728c-0.684,0.684 -2.121,-1.042 -3.192,-3.834Zm339.613,-10.817c-0,-9.453 0.585,-13.32 1.301,-8.594c0.716,4.727 0.716,12.461 0,17.188c-0.716,4.726 -1.301,0.86 -1.301,-8.594Zm-208.774,3.114c14.817,-17.313 15.022,-17.505 11.632,-10.926c-1.772,3.437 -7.217,9.76 -12.102,14.051l-8.88,7.801l9.35,-10.926Zm57.768,-11.538c-5.118,-8.071 -9.289,-16.157 -9.268,-17.969c0.02,-1.812 3.651,3.028 8.068,10.756c4.417,7.728 9.494,15.814 11.282,17.969c1.789,2.155 2.346,3.918 1.238,3.918c-1.107,0 -6.201,-6.603 -11.32,-14.674Zm-193.072,-2.513c0.064,-5.157 0.764,-6.888 1.557,-3.847c0.792,3.04 0.74,7.259 -0.116,9.375c-0.856,2.116 -1.504,-0.372 -1.441,-5.528l0,-0Zm149.487,-6.25c-0,-1.719 1.363,-5.235 3.029,-7.813c1.666,-2.578 3.029,-3.281 3.029,-1.562c0,1.718 -1.363,5.234 -3.029,7.812c-1.666,2.578 -3.029,3.281 -3.029,1.563Zm191.022,-14.063c0,-4.297 0.71,-6.055 1.577,-3.906c0.867,2.148 0.867,5.664 -0,7.812c-0.867,2.149 -1.577,0.391 -1.577,-3.906Zm-184.621,-4.948c0.15,-3.64 0.89,-4.381 1.888,-1.888c0.903,2.256 0.792,4.951 -0.247,5.99c-1.038,1.038 -1.777,-0.807 -1.641,-4.102Zm23.577,0.14c-1.072,-2.793 -1.86,-6.721 -1.751,-8.729c0.109,-2.008 1.546,-0.282 3.192,3.834c1.647,4.117 2.435,8.045 1.751,8.729c-0.684,0.684 -2.121,-1.042 -3.192,-3.834Zm-179.58,-7.692c-0,-4.297 0.709,-6.055 1.576,-3.907c0.867,2.149 0.867,5.665 -0,7.813c-0.867,2.148 -1.576,0.391 -1.576,-3.906Zm337.253,-1.823c0.15,-3.641 0.89,-4.381 1.888,-1.888c0.903,2.256 0.791,4.951 -0.247,5.989c-1.038,1.039 -1.777,-0.807 -1.641,-4.101l-0,-0Zm-177.878,-4.427c-0,-4.297 0.709,-6.055 1.576,-3.906c0.867,2.148 0.867,5.664 -0,7.812c-0.867,2.149 -1.576,0.391 -1.576,-3.906Zm-156.744,-4.322c0,-3.354 9.298,-20.678 11.098,-20.678c0.859,-0 -0.762,4.57 -3.603,10.156c-5.8,11.406 -7.495,13.785 -7.495,10.522Zm93.75,-3.436c0,-0.829 5.787,-10.962 12.86,-22.517c8.017,-13.099 11.842,-22.326 10.156,-24.503c-10.131,-13.086 -23.016,-34.715 -23.016,-38.635c0,-2.579 3.637,2.608 8.081,11.528c4.445,8.919 12.31,19.227 17.477,22.907c5.167,3.679 8.072,7.556 6.455,8.615c-1.617,1.059 -8.904,11.418 -16.194,23.019c-12.058,19.19 -15.819,23.847 -15.819,19.586Zm75.247,-6.565c0.15,-3.641 0.89,-4.381 1.888,-1.888c0.903,2.256 0.792,4.951 -0.247,5.989c-1.038,1.039 -1.777,-0.806 -1.641,-4.101l-0,-0Zm-9.111,-4.427c-0.88,-16.158 2.64,-21.906 13.135,-21.45c7.357,0.32 8.043,0.762 2.76,1.78c-4.481,0.864 -7.031,3.609 -7.031,7.572c0,3.419 -1.31,5.407 -2.912,4.417c-1.602,-0.99 -3.501,2.091 -4.22,6.847c-1.239,8.2 -1.328,8.243 -1.732,0.833l-0,0.001Zm76.052,-15.815c-10.313,-8.478 -20.86,-14.875 -23.438,-14.217c-2.578,0.659 -7.5,2.21 -10.937,3.447c-3.438,1.237 -1.329,-0.856 4.687,-4.651c6.016,-3.796 15.156,-10.625 20.313,-15.177l9.375,-8.275l-9.148,10.124c-5.031,5.568 -8.546,10.593 -7.812,11.167c0.734,0.574 10.124,7.702 20.866,15.84c10.742,8.138 19.531,15.418 19.531,16.177c0,3.564 -6.157,-0.228 -23.437,-14.435Zm-223.438,5.26c0,-0.649 2.461,-3.11 5.469,-5.469c4.956,-3.887 5.067,-3.776 1.18,1.18c-4.083,5.206 -6.649,6.861 -6.649,4.289l0,-0Zm290.314,-20.785c-9.624,-10.107 -15.249,-17.15 -12.5,-15.65c4.929,2.689 20.158,18.361 28.2,29.021c7.451,9.875 2.079,5.301 -15.7,-13.371Zm-162.189,6.34c-5.712,-3.692 -0.778,-3.692 7.813,-0c4.121,1.771 4.653,2.744 1.562,2.857c-2.578,0.095 -6.797,-1.191 -9.375,-2.857Zm46.289,0.99c2.256,-0.903 4.951,-0.792 5.99,0.246c1.038,1.039 -0.808,1.777 -4.102,1.642c-3.64,-0.15 -4.381,-0.891 -1.888,-1.888l0,-0Zm-149.414,-11.928c4.037,-4.297 8.043,-7.813 8.902,-7.813c0.859,0 -1.74,3.516 -5.777,7.813c-4.037,4.297 -8.042,7.812 -8.902,7.812c-0.859,0 1.74,-3.515 5.777,-7.812Zm-50.699,-13.23c7.351,-0.66 18.601,-0.651 25,0.024c6.4,0.671 0.387,1.211 -13.363,1.2c-13.75,-0.012 -18.987,-0.561 -11.637,-1.221l0,-0.003Zm40.543,-2.902c2.148,-0.867 5.664,-0.867 7.812,-0c2.149,0.867 0.391,1.576 -3.906,1.576c-4.297,-0 -6.055,-0.71 -3.906,-1.576Zm-77.344,-4.181c-2.578,-1.666 -3.281,-3.029 -1.562,-3.029c1.718,0 5.234,1.363 7.812,3.029c2.578,1.666 3.281,3.03 1.563,3.03c-1.719,-0 -5.235,-1.364 -7.813,-3.03Zm100,-1.562c14.268,-5.495 19.882,-5.414 7.813,0.118c-5.157,2.361 -11.485,4.249 -14.063,4.196c-2.578,-0.048 0.234,-1.992 6.25,-4.309l0,-0.005Zm209.473,-0.404c-13.238,-3.033 -18.107,-3.077 -21.605,-0.194c-3.91,3.222 -3.955,2.673 -0.341,-4.091c2.297,-4.296 5.257,-16.249 6.578,-26.562l2.403,-18.75l-2.01,41.83l15.405,3.304c8.473,1.817 22.601,3.303 31.397,3.303c8.795,0 15.406,0.517 14.69,1.147c-3.865,3.404 -31.682,3.411 -46.517,0.012l0,0.001Zm-190.723,-0.998c0,-1.719 4.149,-5.271 9.22,-7.893c10.745,-5.556 13.786,-6.001 11.079,-1.621c-3.04,4.919 -20.299,13.008 -20.299,9.514Zm-139.576,-9.135c-11.802,-8.549 -25.301,-23.799 -36.468,-41.196c-5.054,-7.873 -4.92,-8.175 9.679,-21.875l14.803,-13.892l-13.416,14.317l-13.415,14.318l14.12,19.181c7.766,10.55 19.78,22.927 26.697,27.504c11.296,7.476 14.694,10.617 11.482,10.617c-0.601,0 -6.668,-4.038 -13.482,-8.974Zm389.836,4.71c0.717,-0.626 4.818,-2.813 9.115,-4.86c7.367,-3.508 7.466,-3.443 1.747,1.14c-4.979,3.988 -15.15,7.473 -10.862,3.721l0,-0.001Zm32.92,-22.885c9.667,-9.714 21.386,-26.603 29.627,-42.698c7.499,-14.645 14.106,-26.157 14.681,-25.581c1.911,1.91 -18.704,40.508 -29.661,55.536c-5.933,8.137 -15.254,17.949 -20.714,21.804c-6.637,4.687 -4.627,1.685 6.067,-9.061Zm-260.517,-5.663c0.034,-6.875 0.675,-9.32 1.422,-5.433c0.748,3.888 0.719,9.513 -0.062,12.501c-0.782,2.987 -1.394,-0.193 -1.359,-7.068l-0.001,-0Zm-38.288,-19.562c-16.328,-2.573 -30.273,-5.202 -30.989,-5.84c-4.242,-3.781 5.078,-3.624 30.686,0.517c15.939,2.578 32.372,4.968 36.517,5.311c9.524,0.788 10.006,5.655 0.505,5.101c-3.867,-0.226 -20.391,-2.516 -36.719,-5.089l0,0Zm186.271,-5.221c-2.543,-10.132 -23.385,-31.374 -37.037,-37.748c-5.594,-2.612 -7.609,-4.03 -4.476,-3.151c3.132,0.879 8.757,0.023 12.5,-1.899c5.515,-2.834 6.086,-2.735 3.013,0.522c-3.017,3.197 -1.035,6.627 9.699,16.788c7.42,7.024 14.839,15.288 16.486,18.364c2.77,5.175 5.489,4.548 36.394,-8.4c18.37,-7.697 33.4,-12.869 33.4,-11.494c0,1.375 -14.414,8.453 -32.031,15.729c-17.617,7.277 -32.9,14.636 -33.961,16.354c-1.062,1.719 -2.856,-0.561 -3.987,-5.065l0,0Zm-142.509,-1.069c-0.007,-2.186 5.548,-10.008 12.344,-17.38c12.069,-13.094 12.246,-13.617 7.623,-22.529l-4.733,-9.123l7.707,7.241c6.52,6.125 8.757,6.679 14.52,3.594c3.747,-2.005 7.501,-2.957 8.343,-2.115c0.841,0.842 -1.481,2.486 -5.161,3.654c-9.04,2.869 -27.896,19.751 -34.914,31.259c-3.145,5.157 -5.723,7.586 -5.729,5.399Zm-173.449,-31.96c3.11,-3.437 6.359,-6.25 7.218,-6.25c0.86,0 -0.983,2.813 -4.093,6.25c-3.111,3.438 -6.36,6.25 -7.219,6.25c-0.859,0 0.983,-2.812 4.094,-6.25Zm228.906,-11.58c8.503,-1.638 8.527,-2.617 0.781,-32.17c-3.378,-12.891 -6.124,-26.25 -6.101,-29.687c0.075,-11.364 4.974,1.559 10.66,28.125c2.944,13.75 7.363,26.577 9.821,28.505c3.627,2.845 2.62,3.876 -5.346,5.469c-5.398,1.08 -11.397,1.772 -13.331,1.538c-1.933,-0.234 -0.351,-1.035 3.516,-1.78l-0,-0Zm28.125,0.136c2.148,-0.867 5.664,-0.867 7.812,-0c2.149,0.866 0.391,1.576 -3.906,1.576c-4.297,-0 -6.055,-0.71 -3.906,-1.576Zm-236.719,-2.398c0,-0.86 2.813,-3.068 6.25,-4.908c3.438,-1.84 6.25,-2.642 6.25,-1.782c0,0.86 -2.812,3.067 -6.25,4.907c-3.437,1.84 -6.25,2.642 -6.25,1.783Zm140.625,-3.345c-4.297,-2.457 -6.406,-4.466 -4.687,-4.466c1.718,-0 6.64,2.009 10.937,4.466c4.297,2.456 6.406,4.466 4.688,4.466c-1.719,-0 -6.641,-2.01 -10.938,-4.466Zm143.619,-11.719c7.663,-8.164 14.343,-14.844 14.844,-14.844c2.347,0 -0.134,2.806 -13.932,15.756l-14.843,13.932l13.931,-14.844Zm-122.143,4.687c-3.887,-4.956 -3.776,-5.067 1.18,-1.179c3.008,2.358 5.469,4.819 5.469,5.468c0,2.572 -2.566,0.917 -6.649,-4.289l0,0Zm294.417,3.907c0.326,-5.92 5.533,-15.887 5.715,-10.938c0.094,2.578 -1.192,6.797 -2.858,9.375c-1.666,2.578 -2.952,3.281 -2.857,1.563Zm-190.646,-6.511c0.15,-3.64 0.89,-4.381 1.888,-1.888c0.903,2.256 0.791,4.951 -0.247,5.99c-1.038,1.038 -1.777,-0.808 -1.641,-4.102l-0,0Zm-169.778,-6.497c2.148,-0.866 5.664,-0.866 7.812,0c2.149,0.867 0.391,1.577 -3.906,1.577c-4.297,-0 -6.055,-0.71 -3.906,-1.577Zm57.031,-4.18c-1.84,-3.437 -2.642,-6.25 -1.782,-6.25c0.859,0 3.067,2.813 4.907,6.25c1.84,3.438 2.642,6.25 1.782,6.25c-0.859,0 -3.067,-2.812 -4.907,-6.25Zm-91.406,0.865c5.586,-0.694 14.726,-0.694 20.312,-0c5.586,0.693 1.016,1.26 -10.156,1.26c-11.172,0 -15.742,-0.567 -10.156,-1.26Zm207.756,-7.115c0,-6.015 0.643,-8.476 1.429,-5.468c0.786,3.007 0.786,7.929 0,10.937c-0.786,3.008 -1.429,0.547 -1.429,-5.469Zm-125.217,-11.071c-5.236,-11.491 -4.237,-13.943 1.424,-3.496c2.644,4.878 4.222,9.455 3.508,10.169c-0.715,0.715 -2.934,-2.288 -4.932,-6.673Zm324.76,-4.554c-0.095,-2.578 1.191,-6.797 2.857,-9.375c3.692,-5.712 3.692,-0.778 0,7.813c-1.771,4.121 -2.744,4.653 -2.857,1.562Zm-99.427,-14.665c3.04,-0.793 7.259,-0.741 9.375,0.118c2.116,0.856 -0.372,1.504 -5.528,1.441c-5.157,-0.06 -6.888,-0.765 -3.847,-1.557l-0,-0.002Zm70.289,-0.047c3.888,-0.748 9.513,-0.72 12.5,0.059c2.988,0.782 -0.192,1.393 -7.067,1.359c-6.875,-0.036 -9.32,-0.675 -5.433,-1.422l0,0.004Zm-170.521,-8.728c0.064,-5.156 0.764,-6.887 1.557,-3.846c0.792,3.04 0.74,7.259 -0.116,9.374c-0.856,2.116 -1.505,-0.372 -1.441,-5.528l0,0Zm129.86,5.607c3.867,-0.745 10.195,-0.745 14.062,0c3.868,0.746 0.703,1.355 -7.031,1.355c-7.734,-0 -10.898,-0.61 -7.031,-1.355Zm-264.597,-8.992c0.15,-3.641 0.89,-4.381 1.888,-1.888c0.903,2.256 0.792,4.951 -0.247,5.989c-1.038,1.039 -1.777,-0.807 -1.641,-4.101l-0,-0Zm131.25,-12.5c0.15,-3.641 0.89,-4.381 1.888,-1.888c0.903,2.256 0.791,4.951 -0.247,5.989c-1.038,1.039 -1.777,-0.806 -1.641,-4.101l-0,-0Zm-134.375,-9.373c0.15,-3.64 0.89,-4.381 1.888,-1.888c0.903,2.256 0.792,4.951 -0.247,5.99c-1.038,1.038 -1.777,-0.807 -1.641,-4.102l-0,0Zm129.827,-2.985c-3.016,-7.859 -2.126,-9.886 1.558,-3.551c1.824,3.137 2.658,6.361 1.853,7.166c-0.804,0.804 -2.34,-0.822 -3.411,-3.615Zm-15.976,-31.514c-2.954,-4.509 -3.827,-7.243 -1.939,-6.076c3.608,2.229 10.883,14.273 8.623,14.273c-0.722,0 -3.73,-3.689 -6.684,-8.197Zm-104.723,-8.594c0,-3.375 12.413,-26.959 14.19,-26.959c0.859,0 -1.452,5.977 -5.136,13.281c-7.244,14.366 -9.054,17.1 -9.054,13.678Zm75,-24.544c-12.891,-12.26 -17.812,-17.937 -10.937,-12.618c12.134,9.39 38.642,35.353 35.79,35.055c-0.778,-0.081 -11.962,-10.178 -24.853,-22.437Zm-59.375,-6.72c0,-0.649 2.461,-3.11 5.469,-5.468c4.956,-3.888 5.067,-3.777 1.18,1.179c-4.083,5.206 -6.649,6.861 -6.649,4.289l0,0Zm28.093,-22.296c-2.983,-3.595 -4.945,-3.877 -8.195,-1.18c-2.35,1.951 -4.273,2.843 -4.273,1.984c0,-0.859 1.896,-3.136 4.213,-5.059c3.215,-2.668 5.552,-2.018 9.86,2.742c3.105,3.432 4.897,6.239 3.982,6.239c-0.916,0 -3.43,-2.127 -5.587,-4.726l0,0Z" style="fill:#8e1328;fill-rule:nonzero;"/>
        <path id="path132" d="M457.552,521.117c2.578,-0.981 5.721,-3.331 6.983,-5.222c1.417,-2.12 2.315,-1.342 2.344,2.031c0.032,3.674 -2.259,5.388 -6.983,5.222c-4.698,-0.165 -5.476,-0.838 -2.344,-2.031Zm-13.086,-2.982c2.256,-0.902 4.951,-0.791 5.99,0.247c1.038,1.038 -0.808,1.777 -4.102,1.641c-3.64,-0.15 -4.381,-0.89 -1.888,-1.888l0,0Zm-294.176,-9.927c-5.221,-5.968 -14.67,-23.985 -14.488,-27.626c0.069,-1.375 2.332,1.719 5.029,6.876c12.575,24.043 11.935,23.624 27.785,18.223c7.851,-2.675 14.876,-4.263 15.611,-3.528c0.734,0.735 -5.592,3.551 -14.058,6.259c-14.148,4.524 -15.757,4.507 -19.879,-0.204Zm223.668,-8.137c-9.023,-4.201 -16.406,-8.442 -16.406,-9.425c0,-0.983 4.438,0.509 9.863,3.314c5.424,2.805 14.916,6.961 21.093,9.235c6.178,2.274 9.122,4.22 6.544,4.324c-2.578,0.107 -12.07,-3.247 -21.094,-7.448Zm93.462,-4.801c0,-4.297 0.71,-6.055 1.577,-3.906c0.867,2.148 0.867,5.664 -0,7.812c-0.867,2.149 -1.577,0.391 -1.577,-3.906Zm-259.868,-1.228c0,-0.676 2.182,-2.066 4.85,-3.089c2.781,-1.068 4.035,-0.544 2.94,1.228c-1.835,2.969 -7.79,4.392 -7.79,1.861Zm18.75,-8.147c2.578,-1.666 6.094,-3.029 7.813,-3.029c1.718,-0 1.015,1.363 -1.563,3.029c-2.578,1.666 -6.094,3.029 -7.812,3.029c-1.719,0 -1.016,-1.363 1.562,-3.029Zm117.188,-5.077c-5.62,-4.782 -6.769,-6.683 -2.868,-4.746c5.728,2.845 16.472,13.132 13.406,12.836c-0.64,-0.059 -5.382,-3.703 -10.538,-8.09Zm-212.114,-9.106c-1.072,-2.793 -1.86,-6.721 -1.751,-8.729c0.109,-2.008 1.546,-0.282 3.192,3.835c1.647,4.116 2.435,8.044 1.751,8.728c-0.684,0.684 -2.121,-1.042 -3.192,-3.834Zm339.613,-10.817c-0,-9.453 0.585,-13.32 1.301,-8.594c0.716,4.727 0.716,12.461 0,17.188c-0.716,4.726 -1.301,0.86 -1.301,-8.594Zm-208.774,3.114c14.817,-17.313 15.022,-17.505 11.632,-10.926c-1.772,3.437 -7.217,9.76 -12.102,14.051l-8.88,7.801l9.35,-10.926Zm57.768,-11.538c-5.118,-8.071 -9.289,-16.157 -9.268,-17.969c0.02,-1.812 3.651,3.028 8.068,10.756c4.417,7.728 9.494,15.814 11.282,17.969c1.789,2.155 2.346,3.918 1.238,3.918c-1.107,0 -6.201,-6.603 -11.32,-14.674Zm-193.434,-5.899c0.15,-3.64 0.89,-4.381 1.888,-1.888c0.903,2.256 0.792,4.951 -0.247,5.99c-1.038,1.038 -1.777,-0.807 -1.641,-4.102l-0,0Zm149.849,-2.864c-0,-1.719 1.363,-5.235 3.029,-7.813c1.666,-2.578 3.029,-3.281 3.029,-1.562c0,1.718 -1.363,5.234 -3.029,7.812c-1.666,2.578 -3.029,3.281 -3.029,1.563Zm6.401,-19.011c0.15,-3.64 0.89,-4.381 1.888,-1.888c0.903,2.256 0.792,4.951 -0.247,5.99c-1.038,1.038 -1.777,-0.807 -1.641,-4.102Zm23.577,0.14c-1.072,-2.793 -1.86,-6.721 -1.751,-8.729c0.109,-2.008 1.546,-0.282 3.192,3.834c1.647,4.117 2.435,8.045 1.751,8.729c-0.684,0.684 -2.121,-1.042 -3.192,-3.834Zm157.673,-9.515c0.15,-3.64 0.89,-4.381 1.888,-1.888c0.903,2.256 0.791,4.951 -0.247,5.99c-1.038,1.038 -1.777,-0.808 -1.641,-4.102l-0,-0Zm-177.878,-4.427c-0,-4.297 0.709,-6.055 1.576,-3.906c0.867,2.148 0.867,5.664 -0,7.812c-0.867,2.149 -1.576,0.391 -1.576,-3.906Zm-156.744,-4.322c0,-3.354 9.298,-20.678 11.098,-20.678c0.859,-0 -0.762,4.57 -3.603,10.156c-5.8,11.406 -7.495,13.785 -7.495,10.522Zm159.695,-16.588c-0.176,-5.484 1.109,-10.855 2.856,-11.934c1.747,-1.08 2.367,-3.272 1.378,-4.872c-0.989,-1.6 2.856,-2.746 8.543,-2.547c6.583,0.232 8.069,0.91 4.091,1.866c-8.799,2.116 -11.26,5.09 -14.079,17.014l-2.469,10.445l-0.32,-9.972Zm83.996,-8.849c-3.303,-3.979 -3.109,-4.437 1.18,-2.791c2.821,1.083 5.129,3.224 5.129,4.759c0,4.019 -1.809,3.454 -6.309,-1.968l-0,-0Zm-231.191,0.453c0,-0.648 2.461,-3.11 5.469,-5.468c4.956,-3.888 5.067,-3.777 1.18,1.179c-4.083,5.206 -6.649,6.861 -6.649,4.289l0,0Zm300,-11.32c-3.671,-5.156 -5.972,-9.375 -5.113,-9.375c0.859,0 4.567,4.219 8.238,9.375c3.672,5.156 5.973,9.375 5.113,9.375c-0.859,0 -4.566,-4.219 -8.238,-9.375Zm-171.875,-3.125c-2.578,-1.666 -3.281,-3.029 -1.562,-3.029c1.718,-0 5.234,1.363 7.812,3.029c2.578,1.666 3.281,3.029 1.563,3.029c-1.719,0 -5.235,-1.363 -7.813,-3.029Zm65.625,-6.58c6.016,-3.606 15.156,-10.281 20.313,-14.832l9.375,-8.275l-9.375,10.435c-5.157,5.739 -13.173,12.419 -17.814,14.844c-12.979,6.78 -14.797,5.2 -2.499,-2.172Zm-168.75,-4.357c4.037,-4.297 8.043,-7.813 8.902,-7.813c0.859,0 -1.74,3.516 -5.777,7.813c-4.037,4.297 -8.042,7.812 -8.902,7.812c-0.859,0 1.74,-3.515 5.777,-7.812Zm77.466,-3.907c-9.127,-9.709 -21.206,-28.879 -21.167,-33.593c0.015,-1.719 3.587,3.203 7.939,10.937c4.352,7.735 12.421,17.892 17.931,22.572c5.51,4.681 8.524,8.548 6.697,8.594c-1.827,0.047 -6.957,-3.783 -11.4,-8.51Zm177.222,-2.733c-5.62,-4.782 -6.769,-6.683 -2.868,-4.746c5.728,2.845 16.472,13.132 13.406,12.836c-0.64,-0.059 -5.382,-3.703 -10.538,-8.09Zm-299.219,-6.366c2.148,-0.867 5.664,-0.867 7.812,-0c2.149,0.866 0.391,1.576 -3.906,1.576c-4.297,-0 -6.055,-0.71 -3.906,-1.576Zm34.375,-3.126c2.148,-0.866 5.664,-0.866 7.812,0c2.149,0.867 0.391,1.577 -3.906,1.577c-4.297,-0 -6.055,-0.71 -3.906,-1.577Zm-77.344,-4.18c-2.578,-1.666 -3.281,-3.029 -1.562,-3.029c1.718,-0 5.234,1.363 7.812,3.029c2.578,1.666 3.281,3.029 1.563,3.029c-1.719,0 -5.235,-1.363 -7.813,-3.029Zm98.385,0.083c0.835,-1.351 4.354,-3.198 7.821,-4.105c3.466,-0.907 5.62,-0.543 4.785,0.808c-0.835,1.351 -4.355,3.198 -7.822,4.105c-3.466,0.907 -5.619,0.543 -4.784,-0.808l-0,-0Zm226.615,0.639c0,-1.386 4.497,-2.863 9.993,-3.281c11.573,-0.883 10.953,0.776 -1.399,3.739c-4.727,1.134 -8.594,0.927 -8.594,-0.458l0,-0Zm-36.49,-10.099c2.436,-6.016 5.297,-13.047 6.36,-15.625c1.062,-2.579 1.104,0.233 0.092,6.25c-1.012,6.015 -3.874,13.046 -6.36,15.625c-3.944,4.09 -3.956,3.294 -0.092,-6.25Zm-309.336,-2.725c-11.802,-8.549 -25.301,-23.799 -36.468,-41.196c-5.054,-7.873 -4.92,-8.175 9.679,-21.875l14.803,-13.892l-13.416,14.318l-13.415,14.317l14.12,19.182c7.766,10.549 19.78,22.926 26.697,27.503c11.296,7.476 14.694,10.618 11.482,10.618c-0.601,-0 -6.668,-4.039 -13.482,-8.975Zm141.139,6.552c1.718,-1.719 6.64,-4.144 10.937,-5.39c5.208,-1.51 6.771,-1.223 4.688,0.86c-1.719,1.719 -6.641,4.144 -10.938,5.39c-5.208,1.51 -6.771,1.223 -4.687,-0.86l-0,0Zm248.697,-1.842c0.717,-0.626 4.818,-2.813 9.115,-4.86c7.367,-3.508 7.466,-3.443 1.747,1.14c-4.979,3.988 -15.15,7.473 -10.862,3.721l0,-0.001Zm32.92,-22.885c9.667,-9.714 21.386,-26.603 29.627,-42.698c7.499,-14.645 14.106,-26.157 14.681,-25.581c1.911,1.911 -18.704,40.509 -29.661,55.536c-5.933,8.137 -15.254,17.949 -20.714,21.804c-6.637,4.687 -4.627,1.685 6.067,-9.061Zm-260.517,-5.663c0.034,-6.875 0.675,-9.32 1.422,-5.432c0.748,3.887 0.719,9.512 -0.062,12.5c-0.782,2.987 -1.394,-0.193 -1.359,-7.068l-0.001,0Zm152.584,-0.261c0.15,-3.64 0.89,-4.381 1.888,-1.888c0.903,2.256 0.791,4.951 -0.247,5.99c-1.038,1.038 -1.777,-0.808 -1.641,-4.102l-0,0Zm-8.12,-31.508c-3.32,-6.165 -12.128,-15.861 -19.574,-21.546c-13.48,-10.292 -13.506,-10.352 -6.326,-14.179c6.351,-3.384 6.739,-3.271 3.259,0.951c-3.328,4.036 -2.264,6.081 6.735,12.945c10.285,7.845 25.847,29.134 23.217,31.764c-0.701,0.701 -3.991,-3.77 -7.311,-9.935l-0,0Zm-136.608,0.519c1.839,-3.438 8.376,-11.092 14.527,-17.01c8.251,-7.938 10.162,-11.483 7.288,-13.519c-3.031,-2.147 -2.976,-2.516 0.244,-1.663c6.214,1.647 4.23,5.661 -11.277,22.817c-7.769,8.593 -12.62,12.812 -10.782,9.375l0,-0Zm-175.831,-26.56c3.11,-3.437 6.359,-6.25 7.218,-6.25c0.86,0 -0.983,2.813 -4.093,6.25c-3.111,3.438 -6.36,6.25 -7.219,6.25c-0.859,0 0.983,-2.812 4.094,-6.25Zm210.937,-6.25c2.578,-1.666 6.094,-3.029 7.813,-3.029c1.718,-0 1.015,1.363 -1.563,3.029c-2.578,1.666 -6.094,3.029 -7.812,3.029c-1.719,0 -1.016,-1.363 1.562,-3.029Zm15.039,-5.26c2.256,-0.902 4.951,-0.791 5.99,0.247c1.038,1.038 -0.808,1.777 -4.102,1.642c-3.64,-0.15 -4.381,-0.891 -1.888,-1.888l0,-0.001Zm34.375,0c2.256,-0.902 4.951,-0.791 5.99,0.247c1.038,1.038 -0.808,1.777 -4.102,1.642c-3.64,-0.15 -4.381,-0.891 -1.888,-1.888l0,-0.001Zm-240.039,-2.332c0,-0.86 2.813,-3.068 6.25,-4.908c3.438,-1.84 6.25,-2.642 6.25,-1.782c0,0.86 -2.812,3.067 -6.25,4.907c-3.437,1.84 -6.25,2.642 -6.25,1.783Zm140.625,-3.345c-4.297,-2.457 -6.406,-4.466 -4.687,-4.466c1.718,-0 6.64,2.009 10.937,4.466c4.297,2.456 6.406,4.466 4.688,4.466c-1.719,-0 -6.641,-2.01 -10.938,-4.466Zm77.344,2.617c2.148,-0.866 5.664,-0.866 7.812,0c2.149,0.867 0.391,1.577 -3.906,1.577c-4.297,-0 -6.055,-0.71 -3.906,-1.577Zm66.275,-14.336c7.663,-8.164 14.343,-14.844 14.844,-14.844c2.347,0 -0.134,2.806 -13.932,15.756l-14.843,13.932l13.931,-14.844Zm-122.143,4.687c-3.887,-4.956 -3.776,-5.067 1.18,-1.179c3.008,2.358 5.469,4.819 5.469,5.468c0,2.572 -2.566,0.917 -6.649,-4.289l0,0Zm294.417,3.907c0.326,-5.92 5.533,-15.887 5.715,-10.938c0.094,2.578 -1.192,6.797 -2.858,9.375c-1.666,2.578 -2.952,3.281 -2.857,1.563Zm-360.424,-13.008c2.148,-0.866 5.664,-0.866 7.812,0c2.149,0.867 0.391,1.577 -3.906,1.577c-4.297,-0 -6.055,-0.71 -3.906,-1.577Zm57.031,-4.18c-1.84,-3.437 -2.642,-6.25 -1.782,-6.25c0.859,0 3.067,2.813 4.907,6.25c1.84,3.438 2.642,6.25 1.782,6.25c-0.859,0 -3.067,-2.812 -4.907,-6.25Zm-96.034,0.959c3.04,-0.792 7.259,-0.74 9.375,0.118c2.116,0.857 -0.372,1.505 -5.528,1.441c-5.157,-0.059 -6.888,-0.764 -3.847,-1.556l-0,-0.003Zm21.875,0c3.04,-0.792 7.259,-0.74 9.375,0.118c2.116,0.857 -0.372,1.505 -5.528,1.441c-5.157,-0.059 -6.888,-0.764 -3.847,-1.556l-0,-0.003Zm65.292,-18.281c-5.236,-11.491 -4.237,-13.943 1.424,-3.496c2.644,4.879 4.222,9.455 3.508,10.17c-0.715,0.714 -2.934,-2.289 -4.932,-6.674Zm324.76,-4.553c-0.095,-2.578 1.191,-6.797 2.857,-9.375c3.692,-5.713 3.692,-0.779 0,7.812c-1.771,4.121 -2.744,4.654 -2.857,1.563Zm-32.104,-14.635c2.256,-0.902 4.951,-0.791 5.99,0.247c1.038,1.038 -0.808,1.777 -4.102,1.641c-3.64,-0.15 -4.381,-0.89 -1.888,-1.888l0,0Zm-34.534,-3.2c3.887,-0.748 9.512,-0.72 12.5,0.059c2.988,0.782 -0.192,1.393 -7.067,1.359c-6.875,-0.036 -9.32,-0.675 -5.433,-1.422l0,0.004Zm-267.758,-8.988c0.15,-3.641 0.89,-4.381 1.888,-1.888c0.903,2.256 0.792,4.951 -0.247,5.989c-1.038,1.039 -1.777,-0.807 -1.641,-4.101l-0,-0Zm-3.125,-21.875c0.15,-3.641 0.89,-4.381 1.888,-1.888c0.903,2.256 0.792,4.951 -0.247,5.989c-1.038,1.039 -1.777,-0.807 -1.641,-4.101l-0,-0Zm129.827,-2.985c-3.016,-7.859 -2.126,-9.886 1.558,-3.551c1.824,3.137 2.658,6.361 1.853,7.166c-0.804,0.804 -2.34,-0.822 -3.411,-3.615Zm-15.976,-31.514c-2.954,-4.509 -3.827,-7.243 -1.939,-6.076c3.608,2.229 10.883,14.273 8.623,14.273c-0.722,0 -3.73,-3.689 -6.684,-8.197Zm-104.723,-8.594c0,-3.375 12.413,-26.959 14.19,-26.959c0.859,0 -1.452,5.977 -5.136,13.281c-7.244,14.366 -9.054,17.1 -9.054,13.678Zm78.442,-21.176c-10.998,-10.45 -17.326,-17.538 -14.063,-15.751c5.853,3.204 38.308,35.071 35.504,34.859c-0.795,-0.06 -10.444,-8.658 -21.441,-19.108Zm-62.817,-10.088c0,-0.649 2.461,-3.11 5.469,-5.468c4.956,-3.888 5.067,-3.777 1.18,1.179c-4.083,5.206 -6.649,6.861 -6.649,4.289l0,0Zm28.093,-22.296c-2.983,-3.595 -4.945,-3.877 -8.195,-1.18c-2.35,1.951 -4.273,2.843 -4.273,1.984c0,-0.859 1.896,-3.136 4.213,-5.059c3.215,-2.668 5.552,-2.018 9.86,2.742c3.105,3.432 4.897,6.239 3.982,6.239c-0.916,0 -3.43,-2.127 -5.587,-4.726l0,0Z" style="fill:#b0000f;fill-rule:nonzero;"/>
        <path id="path130" d="M464.049,518.447c0.15,-3.64 0.89,-4.381 1.888,-1.888c0.903,2.256 0.791,4.951 -0.247,5.99c-1.038,1.038 -1.777,-0.807 -1.641,-4.102l-0,0Zm-313.35,-9.896c-5.506,-6.411 -9.634,-13.281 -7.982,-13.281c0.638,0 4.279,4.219 8.091,9.375c7.532,10.188 7.462,12.722 -0.109,3.906l0,0Zm225.603,-7.031c-2.578,-1.666 -3.281,-3.029 -1.562,-3.029c1.718,-0 5.234,1.363 7.812,3.029c2.578,1.666 3.281,3.029 1.563,3.029c-1.719,0 -5.235,-1.363 -7.813,-3.029Zm-28.524,-17.969c-3.887,-4.956 -3.776,-5.067 1.18,-1.18c3.008,2.359 5.469,4.82 5.469,5.469c0,2.572 -2.566,0.917 -6.648,-4.289l-0.001,0Zm123.211,-22.656c-0,-9.453 0.585,-13.32 1.301,-8.594c0.716,4.727 0.716,12.461 0,17.188c-0.716,4.726 -1.301,0.86 -1.301,-8.594Zm-216.562,11.522c0,-0.537 4.57,-5.108 10.156,-10.156l10.157,-9.178l-9.179,10.156c-8.555,9.467 -11.134,11.593 -11.134,9.178Zm71.476,-10.741c-3.887,-4.956 -3.776,-5.067 1.18,-1.179c3.008,2.358 5.469,4.819 5.469,5.468c0,2.572 -2.566,0.917 -6.648,-4.289l-0.001,0Zm-10.689,-16.696c-2.749,-5.316 -4.443,-10.22 -3.765,-10.898c0.678,-0.678 3.572,3.671 6.43,9.665c6.427,13.477 4.2,14.507 -2.665,1.233Zm-29.29,-32.783c0.15,-3.64 0.89,-4.381 1.888,-1.888c0.903,2.256 0.792,4.951 -0.247,5.99c-1.038,1.038 -1.777,-0.808 -1.641,-4.102l-0,0Zm3.125,-18.75c0.15,-3.64 0.89,-4.381 1.888,-1.888c0.903,2.256 0.792,4.951 -0.247,5.99c-1.038,1.038 -1.777,-0.808 -1.641,-4.102l-0,0Zm83.729,-13.021c-3.887,-4.956 -3.776,-5.067 1.18,-1.18c5.206,4.083 6.861,6.649 4.289,6.649c-0.649,0 -3.11,-2.461 -5.468,-5.469l-0.001,0Zm-78.507,-9.1c2.148,-0.867 5.664,-0.867 7.812,-0c2.149,0.866 0.391,1.576 -3.906,1.576c-4.297,-0 -6.055,-0.71 -3.906,-1.576Zm144.132,-6.525c-3.887,-4.956 -3.776,-5.067 1.18,-1.18c5.206,4.083 6.861,6.649 4.289,6.649c-0.649,-0 -3.11,-2.461 -5.469,-5.469l0,0Zm-188.401,-9.035c-1.645,-4.289 -1.188,-4.483 2.791,-1.18c5.423,4.5 5.987,6.309 1.968,6.309c-1.534,0 -3.676,-2.308 -4.759,-5.129Zm90.363,3.144c1.718,-1.513 8.041,-6.959 14.051,-12.102l10.926,-9.35l-7.801,8.88c-4.291,4.885 -10.614,10.33 -14.051,12.102c-3.438,1.771 -4.844,1.982 -3.125,0.47Zm-173.438,-2.32c0,-0.648 2.461,-3.11 5.469,-5.469c4.956,-3.887 5.067,-3.776 1.18,1.18c-4.083,5.206 -6.649,6.861 -6.649,4.289l0,0Zm257.516,-5.851l-5.953,-7.031l7.031,5.953c3.867,3.274 7.031,6.438 7.031,7.031c0,2.501 -2.515,0.654 -8.109,-5.953Zm-195.05,-18.75c-3.406,-5.586 -6.198,-11.445 -6.204,-13.021c-0.014,-3.562 0.428,-2.978 8.693,11.458c8.217,14.353 6.114,15.674 -2.489,1.563Zm175.034,4.63c0,-1.385 4.497,-2.862 9.993,-3.281c11.573,-0.882 10.953,0.776 -1.399,3.74c-4.727,1.133 -8.594,0.927 -8.594,-0.459l0,0Zm-204.531,-6.623c1.633,-1.525 6.484,-3.693 10.781,-4.817l7.813,-2.045l-7.813,4.708c-8.707,5.246 -15.554,6.614 -10.781,2.154Zm169.251,-6.601c0.899,-3.437 2.173,-6.25 2.832,-6.25c0.659,0 1.198,2.813 1.198,6.25c0,3.438 -1.275,6.25 -2.832,6.25c-1.558,0 -2.097,-2.812 -1.198,-6.25Zm-324.263,-11.719l-10.769,-11.718l11.718,10.769c10.908,10.024 13.156,12.668 10.77,12.668c-0.523,0 -5.796,-5.273 -11.719,-11.719Zm437.668,-5.468c4.037,-4.297 8.043,-7.813 8.902,-7.813c0.859,0 -1.74,3.516 -5.777,7.813c-4.037,4.297 -8.043,7.812 -8.902,7.812c-0.859,0 1.74,-3.515 5.777,-7.812Zm-262.253,-6.511c0.15,-3.64 0.89,-4.381 1.888,-1.888c0.903,2.256 0.792,4.951 -0.247,5.99c-1.038,1.038 -1.777,-0.808 -1.641,-4.102l-0,0Zm153.125,0c0.15,-3.64 0.89,-4.381 1.888,-1.888c0.903,2.256 0.791,4.951 -0.247,5.99c-1.038,1.038 -1.777,-0.808 -1.641,-4.102l-0,0Zm-347.122,-10.677c-3.671,-5.156 -5.972,-9.375 -5.113,-9.375c0.859,0 4.567,4.219 8.238,9.375c3.672,5.156 5.973,9.375 5.113,9.375c-0.859,0 -4.566,-4.219 -8.238,-9.375Zm465.625,5.07c0,-0.648 2.461,-3.11 5.469,-5.468c4.956,-3.888 5.067,-3.777 1.18,1.179c-4.083,5.206 -6.649,6.861 -6.649,4.289l0,0Zm12.5,-17.57c1.84,-3.437 4.048,-6.25 4.907,-6.25c0.86,0 0.057,2.813 -1.782,6.25c-1.84,3.438 -4.048,6.25 -4.907,6.25c-0.86,0 -0.057,-2.812 1.782,-6.25Zm-135.737,-2.209c-1.695,-4.454 -1.336,-4.813 1.75,-1.749c2.136,2.12 3.096,4.641 2.134,5.603c-0.963,0.963 -2.71,-0.772 -3.884,-3.854Zm-339.394,-11.072c7.663,-8.164 14.343,-14.844 14.844,-14.844c2.347,0 -0.134,2.806 -13.932,15.756l-14.843,13.932l13.931,-14.844Zm213.699,-10.582c8.46,-9.108 10.767,-13.419 7.812,-14.597c-2.714,-1.082 -2.88,-1.758 -0.471,-1.918c8.448,-0.56 6.197,5.694 -6.195,17.214l-13.151,12.227l12.005,-12.926Zm96.721,-10.228c-6.598,-5.507 -6.543,-9.659 0.128,-9.659c1.719,0 2.184,0.94 1.035,2.09c-1.15,1.149 0.24,4.665 3.088,7.813c6.594,7.285 4.635,7.173 -4.251,-0.244l0,0Zm180.432,4.404c-0,-1.719 1.363,-5.235 3.029,-7.813c1.666,-2.578 3.029,-3.281 3.029,-1.562c0,1.718 -1.363,5.234 -3.029,7.812c-1.666,2.578 -3.029,3.281 -3.029,1.563Zm-468.846,-2.743c0,-0.648 2.461,-3.11 5.469,-5.469c4.956,-3.887 5.067,-3.776 1.18,1.18c-4.083,5.206 -6.649,6.861 -6.649,4.289l0,0Zm306.119,-30.851c7.663,-8.164 14.343,-14.844 14.844,-14.844c2.347,0 -0.134,2.806 -13.932,15.756l-14.843,13.932l13.931,-14.844Zm-227.153,-7.634c3.04,-0.793 7.259,-0.741 9.375,0.118c2.116,0.856 -0.372,1.504 -5.528,1.44c-5.157,-0.059 -6.888,-0.764 -3.847,-1.556l-0,-0.002Zm21.875,-0c3.04,-0.793 7.259,-0.741 9.375,0.118c2.116,0.856 -0.372,1.504 -5.528,1.44c-5.157,-0.059 -6.888,-0.764 -3.847,-1.556l-0,-0.002Zm323.414,-40.67c3.887,-0.748 9.512,-0.719 12.5,0.059c2.988,0.782 -0.192,1.394 -7.067,1.359c-6.875,-0.035 -9.32,-0.674 -5.433,-1.422l0,0.004Zm-270.883,-30.863c0.15,-3.64 0.89,-4.381 1.888,-1.888c0.903,2.256 0.792,4.951 -0.247,5.99c-1.038,1.038 -1.777,-0.807 -1.641,-4.102l-0,0Zm111.854,-38.021c-3.887,-4.956 -3.776,-5.067 1.18,-1.179c5.206,4.082 6.861,6.648 4.289,6.648c-0.649,0 -3.11,-2.461 -5.468,-5.469l-0.001,0Zm-21.583,-25l-17.08,-17.968l17.968,17.08c16.694,15.869 19.401,18.857 17.081,18.857c-0.488,0 -8.574,-8.086 -17.969,-17.969Zm-39.252,-35.937l-5.953,-7.031l7.031,5.953c6.607,5.594 8.454,8.109 5.953,8.109c-0.593,0 -3.757,-3.164 -7.031,-7.031Z" style="fill:#651722;fill-rule:nonzero;"/>
        <path id="path128" d="M148.114,506.132c-2.174,-2.619 -3.347,-5.368 -2.608,-6.108c0.74,-0.739 3.062,1.404 5.16,4.763c4.537,7.265 3.023,8.063 -2.552,1.345Zm112.563,-40.549c4.037,-4.297 8.043,-7.813 8.902,-7.813c0.859,0 -1.74,3.516 -5.777,7.813c-4.037,4.297 -8.043,7.812 -8.902,7.812c-0.859,0 1.74,-3.515 5.777,-7.812Zm65.226,-3.907c-3.887,-4.956 -3.776,-5.067 1.18,-1.179c3.008,2.358 5.469,4.819 5.469,5.468c0,2.572 -2.566,0.917 -6.648,-4.289l-0.001,0Zm-7.542,-10.364c-1.133,-1.833 -1.39,-4.003 -0.57,-4.822c0.819,-0.82 2.322,0.68 3.339,3.333c2.114,5.506 0.313,6.475 -2.769,1.489l0,0Zm-24.09,-79.986c2.148,-0.867 5.664,-0.867 7.812,-0c2.149,0.866 0.391,1.576 -3.906,1.576c-4.297,-0 -6.055,-0.71 -3.906,-1.576Zm-42.969,-13.74c0,-1.821 1.406,-2.441 3.125,-1.378c1.719,1.061 3.125,2.551 3.125,3.309c0,0.758 -1.406,1.378 -3.125,1.378c-1.719,0 -3.125,-1.489 -3.125,-3.309Zm90.625,-1.044c0,-0.676 2.182,-2.066 4.85,-3.09c2.781,-1.067 4.035,-0.543 2.94,1.228c-1.835,2.97 -7.79,4.392 -7.79,1.862Zm68.181,-21.328c1.667,-1.667 5.641,-2.477 8.831,-1.801c4.296,0.911 3.51,1.697 -3.03,3.03c-5.703,1.162 -7.757,0.728 -5.801,-1.229Zm-211.67,-3.584c0.716,-0.626 4.817,-2.813 9.114,-4.859c7.367,-3.509 7.466,-3.444 1.747,1.138c-4.979,3.989 -15.15,7.473 -10.861,3.721l-0,0Zm170.484,-6.673c0.989,-2.578 2.351,-4.687 3.027,-4.687c0.675,-0 1.228,2.109 1.228,4.687c0,2.578 -1.362,4.688 -3.027,4.688c-1.665,-0 -2.217,-2.11 -1.228,-4.688Zm107.38,-12.117c0,-0.649 2.461,-3.11 5.469,-5.469c4.956,-3.887 5.067,-3.776 1.18,1.18c-4.083,5.205 -6.649,6.861 -6.649,4.289l0,-0Zm-256.003,-13.143c0.15,-3.641 0.89,-4.381 1.888,-1.888c0.903,2.256 0.792,4.951 -0.247,5.989c-1.038,1.039 -1.777,-0.808 -1.641,-4.101l-0,-0Zm148.391,-25.386c-1.695,-4.454 -1.336,-4.813 1.75,-1.75c2.136,2.12 3.096,4.642 2.134,5.604c-0.963,0.963 -2.71,-0.773 -3.884,-3.854Zm-9.575,-63.416c3.11,-3.438 6.359,-6.25 7.218,-6.25c0.86,-0 -0.983,2.812 -4.093,6.25c-3.111,3.437 -6.36,6.25 -7.219,6.25c-0.859,-0 0.983,-2.813 4.094,-6.25Zm-224.024,-5.26c2.256,-0.902 4.951,-0.791 5.99,0.247c1.038,1.038 -0.808,1.777 -4.102,1.641c-3.64,-0.15 -4.381,-0.89 -1.888,-1.888l0,-0Zm15.625,-0c2.256,-0.902 4.951,-0.791 5.99,0.247c1.038,1.038 -0.808,1.777 -4.102,1.641c-3.64,-0.15 -4.381,-0.89 -1.888,-1.888l0,-0Zm144.1,-134.584l-7.576,-8.594l8.593,7.576c8.032,7.081 10.027,9.612 7.576,9.612c-0.559,-0 -4.427,-3.868 -8.593,-8.594Z" style="fill:#8f000f;fill-rule:nonzero;"/>
        <path id="path126" d="M198.438,331.631c0.716,-0.626 4.817,-2.814 9.114,-4.86c7.367,-3.508 7.466,-3.443 1.747,1.139c-4.979,3.988 -15.15,7.472 -10.861,3.72l-0,0.001Zm277.864,-18.791c0,-0.648 2.461,-3.11 5.469,-5.468c4.956,-3.888 5.067,-3.777 1.18,1.179c-4.083,5.206 -6.649,6.861 -6.649,4.289l0,0Z" style="fill:#2b1d1c;fill-rule:nonzero;"/>
    </g>
</svg>
