<?xml version="1.0" encoding="UTF-8" standalone="no"?><!DOCTYPE svg PUBLIC "-//W3C//DTD SVG 1.1//EN" "http://www.w3.org/Graphics/SVG/1.1/DTD/svg11.dtd"><svg width="100%" height="100%" viewBox="0 0 16000 12000" version="1.1" xmlns="http://www.w3.org/2000/svg" xmlns:xlink="http://www.w3.org/1999/xlink" xml:space="preserve" xmlns:serif="http://www.serif.com/" style="fill-rule:evenodd;clip-rule:evenodd;stroke-linejoin:round;stroke-miterlimit:2;"><g id="Layer-1" serif:id="Layer 1"><rect id="rect3328" x="0" y="-0.001" width="16000" height="12000" style="fill:#142d50;"/><text x="9710.75px" y="9879.34px" style="font-family:'TTNorms-Medium', 'TT Norms';font-weight:500;font-size:900px;fill:#8b9fa8;">VanillaStack</text><g id="g124"><path id="path154" d="M5605.68,7917.56c-1104.71,-255.804 -1502.93,-447.262 -1970.91,-947.568c-309.643,-331.032 -488.183,-638.289 -612.291,-1053.72c-91.094,-304.923 -152.873,-297.702 -213.401,24.936c-63.564,338.829 -309.869,788.362 -536.385,978.964c-285.812,240.496 -675.586,421.954 -1473.34,685.912c-799.315,264.478 -796.349,265.122 -1045.94,-227.427c-512.163,-1010.7 -394.3,-1912.93 346.696,-2653.93l326.912,-326.912l-240.328,49.729c-132.18,27.348 -451.554,47.854 -709.72,45.567c-773.664,-6.864 -1400.02,-355.67 -1902.09,-1059.26c-325.504,-456.154 -321.873,-475.111 177.549,-927.097c705.971,-638.917 1512.01,-1023.58 2144.86,-1023.58c359.676,-0 934.358,149.667 1419.73,369.747l382.815,173.575l-210.802,-349.399c-327.787,-543.299 -478.011,-1113.46 -436.831,-1657.95c19.199,-253.846 92.169,-585.939 165.705,-754.136c135.378,-309.641 750.382,-1264.49 814.439,-1264.49c19.803,0 357.649,314.838 750.77,699.641c565.851,553.876 754.957,783.859 907.678,1103.88c255.432,535.247 353.82,1044.8 304.402,1576.52l-39.685,427.001l301.497,-271.022c786.832,-707.304 1678.82,-924.389 3198.82,-778.51c656.273,62.986 648.533,39.262 320.829,983.443c-451.023,1299.49 -960.61,2033.41 -1650.59,2377.24c-179.934,89.665 -408.422,163.026 -507.752,163.026l-180.6,0l312.744,342.193c600.82,657.391 792.798,1289.71 738.766,2433.25c-33.107,700.678 -103.597,1028.88 -217.197,1011.27c-24.45,-3.784 -324.311,-71.692 -666.357,-150.897Zm-2440.11,-3182.07c-76.49,-14.761 -216.419,-15.137 -310.952,-0.94c-94.533,14.291 -31.95,26.372 139.073,26.84c171.024,0.47 248.369,-11.235 171.879,-25.992l-0,0.092Zm499.755,-118.973c333.977,-168.742 672.907,-552.917 662.966,-751.468c-1.363,-27.35 -46.85,34.228 -101.069,136.841c-157.627,298.325 -280.436,412.357 -611.628,567.92c-171.023,80.329 -274.58,146.326 -230.125,146.66c44.454,0.235 170.389,-44.643 279.856,-99.953Zm-1355.73,-33.791c-68.41,-37.61 -232.961,-169.689 -365.671,-293.513c-206.285,-192.471 -225.804,-200.714 -134.543,-56.807c106.884,168.542 445.481,421.129 562.404,419.542c34.205,-0.47 6.219,-31.614 -62.19,-69.222Zm1947.02,-1716.38c-167.654,-323.875 -549.439,-620.933 -858.691,-668.126c-187.017,-28.538 -178.053,-20.238 63.657,58.983c322.372,105.65 662.564,409.403 785.101,701.003c46.253,110.067 89.272,347.944 95.599,528.617l11.504,328.497l23.166,-335.877c17.991,-260.849 -8.889,-397.801 -120.337,-613.097l0.001,0Zm-2680.51,466.999c-14.823,-76.96 -26.952,-13.985 -26.952,139.928c0,153.92 12.129,216.887 26.952,139.927c14.822,-76.96 14.822,-202.895 -0,-279.855Zm398.785,-769.816c81.473,-72.802 232.089,-176.628 334.703,-230.724c102.614,-54.097 164.192,-99.478 136.839,-100.846c-258.449,-12.951 -855.259,604.195 -850.661,879.631c0.752,45.005 53.031,-30.117 116.176,-166.935c63.146,-136.817 181.47,-308.324 262.943,-381.126Zm722.096,-371.634c-20.665,-20.661 -74.304,-22.871 -119.198,-4.913c-49.611,19.862 -34.875,34.59 37.573,37.573c65.559,2.703 102.29,-11.988 81.625,-32.663l0,0.003Zm310.951,-62.19c-20.665,-20.661 -74.304,-22.87 -119.198,-4.912c-49.611,19.861 -34.875,34.59 37.574,37.572c65.559,2.703 102.29,-11.987 81.624,-32.662l0,0.002Z" style="fill:#fcf4da;fill-rule:nonzero;"/><path id="path152" d="M5574.58,7889.46c-1006.53,-217.888 -1608.95,-519.692 -2007.01,-1005.47c-249.706,-304.732 -520.808,-844.999 -580.236,-1156.32c-44.308,-232.114 -149.12,-272.832 -149.12,-57.931c-0,262.29 -179.615,754.703 -369.449,1012.84c-113.89,154.867 -334.708,333.009 -564.807,455.651c-520.524,277.436 -1757.29,687.299 -1875.05,621.393c-138.164,-77.319 -483.852,-869.592 -545.03,-1249.14c-113.139,-701.907 112.3,-1300.63 703.506,-1868.36c299.959,-288.051 307.728,-303.073 132.127,-255.471c-102.614,27.816 -466.426,50.066 -808.473,49.443c-502.122,-0.94 -677.907,-26.796 -912.683,-134.385c-532.299,-243.932 -1264.03,-1046.86 -1221.44,-1340.27c27.31,-188.146 913.313,-938.321 1378.95,-1167.56c806.617,-397.095 1475.48,-389.825 2463.28,26.777l499.887,210.826l-159.687,-258.597c-530.35,-858.853 -639.605,-1678.62 -332.375,-2493.89c106.698,-283.131 729.494,-1271.73 804.118,-1276.42c17.842,-1.128 345.117,298.807 727.279,666.506c604.129,581.268 725.737,733.496 931.509,1166.07c233.667,491.208 236.67,507.076 236.67,1250.37l-0,752.84l342.046,-305.616c783.7,-700.232 1637.26,-906.521 3187.25,-770.3c453.801,39.883 544.164,65.522 544.164,154.404c0,189.036 -423.581,1371.1 -661.571,1846.21c-411.704,821.903 -1053.3,1391.14 -1681.12,1491.53l-252.239,40.335l270.694,249.515c351.477,323.98 673.447,971.512 771.186,1550.98c72.204,428.075 55.648,1104.85 -41.209,1684.54c-45.93,274.893 -59.16,276.634 -831.165,109.516Zm-2109.64,-3181.18c316.996,-94.974 654.07,-382.116 812.026,-691.735c190.847,-374.091 144.703,-944.992 -105.106,-1300.43c-506.796,-721.083 -1659.58,-795.84 -2258.18,-146.44c-404.182,438.485 -481.673,946.817 -226.355,1484.86c268.284,565.368 1078.3,863.26 1777.61,653.742Z" style="fill:#cfd0d0;fill-rule:nonzero;"/><path id="path150" d="M5574.58,7854.45c-1307.78,-299.512 -1932.21,-713.329 -2328.77,-1543.3c-116.562,-243.956 -231.144,-548.811 -254.626,-677.456c-52.838,-289.473 -152.974,-366.957 -152.974,-118.366c-0,307.616 -234.261,961.097 -428.826,1196.23c-101.063,122.134 -349.405,310.357 -551.872,418.271c-458.103,244.165 -1673.09,655.699 -1796.28,608.426c-50.28,-19.297 -194.098,-252.187 -319.596,-517.539c-209.611,-443.205 -228.275,-528 -229.39,-1042.17c-1.528,-705.476 135.662,-1002.45 712.431,-1542.17c223.178,-208.842 351.327,-358.853 284.774,-333.357c-66.552,25.496 -322.18,77.632 -568.062,115.858c-510.322,79.339 -951.428,16.948 -1412.54,-199.804c-493.18,-231.822 -1213.44,-1049.81 -1136.86,-1291.1c58.142,-183.191 875.74,-853.637 1334.21,-1094.07c905.651,-474.963 1495.24,-439.736 2889.33,172.634l238.793,104.894l-157.792,-206.877c-86.785,-113.783 -250.213,-402.06 -363.173,-640.616c-191.982,-405.44 -205.382,-476.533 -205.382,-1089.63c0,-633.522 7.931,-671.692 232.601,-1119.42c127.931,-254.946 333.192,-599.356 456.137,-765.355l223.537,-301.816l199.67,208.531c109.819,114.692 370.372,354.513 579.006,532.937c791.43,676.827 1176.84,1532.3 1123.65,2494.11c-16.418,296.866 -51.031,589.529 -76.921,650.362c-25.889,60.833 108.65,-41.425 298.976,-227.244c396,-386.619 1053.57,-740.754 1580.19,-851.007c396.372,-82.984 2108.38,-43.594 2202.66,50.679c79.797,79.797 -348.482,1325 -671.318,1951.83c-431.214,837.254 -967.291,1288.02 -1726.89,1452.06l-180.784,39.044l219.832,181.202c294.933,243.11 593.987,722.054 746.397,1195.38c94.509,293.507 124.066,548.334 120.808,1041.57c-4.838,732.815 -72.632,1256.51 -165.786,1280.7c-34.189,8.885 -356.01,-51.156 -715.159,-133.41Zm-2003.64,-3171.5c345.502,-143.933 680.346,-503.604 797.66,-856.801c193.932,-583.878 -95.248,-1241.54 -681.293,-1549.41c-384.495,-201.99 -1027.92,-193.808 -1440.62,18.311c-1026.23,527.475 -920.964,2005.16 171.047,2401.2c291.526,105.728 883.88,98.892 1153.21,-13.304l-0,0.005Z" style="fill:#b0b1b0;fill-rule:nonzero;"/><path id="path148" d="M5543.49,7828.48c-975.489,-224.76 -1597.78,-540.864 -1956.57,-993.88c-238.329,-300.915 -552.72,-960.594 -602.299,-1263.79c-47.2,-288.648 -146.403,-368.384 -146.403,-117.675c-0,101.029 -57.953,371.32 -128.784,600.646c-231.076,748.135 -703.655,1099.34 -2045.23,1519.95l-570.199,178.767l-174.022,-240.23c-275.311,-380.056 -462.806,-1044.58 -425.579,-1508.35c48.403,-602.994 325.825,-1058.61 946.815,-1554.99c172.493,-137.878 257.715,-230.116 189.382,-204.973c-583.144,214.556 -1571.75,208.287 -2028.59,-12.857c-389.398,-188.505 -736.412,-499.166 -1023.99,-916.72l-243.429,-353.449l484.194,-456.762c1187.09,-1119.83 2261.51,-1259.62 3777.41,-491.452l310.098,157.138l-279.25,-407.886c-560.19,-818.241 -684.366,-1816.09 -323.965,-2603.31c137.154,-299.585 465.128,-816.963 669.184,-1055.63c24.919,-29.147 298.148,160.328 607.175,421.054c620.07,523.153 1043.7,1091.46 1232.27,1653.12c122.616,365.21 154.67,1148.83 64.438,1575.31l-50.401,238.225l341.526,-336.112c401.09,-394.733 906.57,-679.075 1469.51,-826.627c331.209,-86.813 571.833,-99.363 1331.94,-69.469c510.235,20.073 948.647,58.391 974.249,85.17c67.003,70.08 -338.923,1267.67 -627.806,1852.2c-442.579,895.523 -1051.64,1422.57 -1737.87,1503.84l-312.72,37.037l214.785,162.415c336.507,254.46 649.653,704.068 813.239,1167.63c124.953,354.084 149.484,539.531 146.738,1109.26c-1.81,376.251 -22.213,810.028 -45.331,963.948c-51.154,340.585 -122.07,356.298 -850.506,188.463l-0,-0.009Zm-1839.66,-3213.82c591.081,-294.55 867.608,-945.793 663.072,-1561.6c-357.118,-1075.18 -1950.07,-1281.01 -2613.09,-337.648c-249.747,355.345 -296.593,926.751 -106.522,1299.32c140.917,276.221 435.39,551.859 724.496,678.156c332.249,145.146 957.466,108.426 1332.04,-78.232Z" style="fill:#8e9290;fill-rule:nonzero;"/><path id="path146" d="M5636.77,7825.53c-1004.07,-214.626 -1526.66,-466.085 -1970.12,-947.974c-315.43,-342.761 -460.394,-617.631 -647.84,-1228.38l-142.92,-465.673l-77.622,455.301c-131.745,772.77 -417.825,1197.87 -1009.15,1499.54c-375.538,191.587 -1609.55,583.133 -1712.87,543.484c-121.916,-46.784 -370.544,-540.851 -505.113,-1003.75c-255.655,-879.422 105.077,-1685.48 1061.98,-2373l183.917,-132.143l-466.427,120.797c-1192.47,308.829 -2168.81,-59.468 -2837.89,-1070.51l-175.332,-264.944l471.109,-444.418c302.133,-285.016 642.227,-531.273 948.193,-686.575c413.598,-209.93 545.945,-245.77 994.542,-269.315c589.324,-30.931 977.152,58.732 1704.89,394.155c459.867,211.958 473.2,204.3 223.699,-128.488c-520.672,-694.478 -701.522,-1606.85 -469.758,-2369.88c101.773,-335.066 563.238,-1141.06 791.416,-1382.29c28.42,-30.046 720.217,570.863 1089.18,946.08c351.046,357.001 639.814,873.311 771.762,1379.89c116.967,449.064 119.386,819.326 8.438,1290.86l-84.845,360.587l412.315,-398.042c783.591,-756.468 1496.71,-968.584 2970.54,-883.576c665.396,38.379 768.955,58.615 768.955,150.251c-0,58.246 -95.301,388.883 -211.778,734.752c-533.795,1585.07 -1239.88,2416.63 -2158.93,2542.6l-281.356,38.565l323.212,305.679c392.303,371.026 674.795,883.58 777.612,1410.9c76.851,394.158 52.476,1666.28 -36.255,1892.13c-50.278,127.97 -35.589,128.314 -713.544,-16.594l-0.001,-0.01Zm-1904.45,-3222.35c770.744,-433.417 939.604,-1373.06 361.896,-2013.82c-303.911,-337.083 -634.068,-481.544 -1100.53,-481.544c-604.024,-0 -1097.31,277.267 -1341.95,754.293c-258.829,504.68 -182.584,1021.14 215.372,1458.86c481.068,529.139 1225.74,641.81 1865.22,282.212Z" style="fill:#7c8683;fill-rule:nonzero;"/><path id="path144" d="M5687,7828.22c-660.583,-139.305 -927.193,-223.786 -1307.28,-414.242c-621.421,-311.38 -1113.58,-925.565 -1317.93,-1644.69c-62.392,-219.567 -127.939,-441.188 -145.661,-492.495c-17.723,-51.306 -71.77,113.071 -120.108,365.284c-159,829.625 -473.297,1247.79 -1169.22,1555.63c-479.594,212.147 -1467.53,515.981 -1561.05,480.094c-138.244,-53.048 -454.211,-769.985 -530.684,-1204.13c-136.537,-775.133 175.394,-1448.14 941.811,-2032c221.288,-168.58 355.118,-289.069 297.399,-267.753c-613.791,226.675 -1514.27,265.371 -2025.79,87.051c-367.621,-128.154 -906.439,-583.847 -1207.15,-1020.92l-190.244,-276.512l302.595,-308.162c166.428,-169.49 484.502,-432.48 706.832,-584.423c977.909,-668.31 1810.82,-700.963 3083.7,-120.893c253.627,115.583 461.14,194.793 461.14,176.022c0,-18.781 -71.514,-119.116 -158.92,-222.992c-360.746,-428.724 -649.553,-1215.81 -649.553,-1770.24c0,-182.996 57.467,-506.748 127.703,-719.448c125.431,-379.846 729.082,-1366.55 817.002,-1335.44c135.727,48.029 1245.83,1142.84 1409.78,1390.35c484.477,731.427 613.317,1629.58 351.482,2450.21c-38.283,119.986 50.053,61.55 386.984,-255.993c775.987,-731.331 1517.07,-971.639 2752.93,-892.679c393.353,25.132 778.155,44.956 855.115,44.051c186.441,-2.115 179.883,67.711 -78.93,841.158c-519.303,1551.91 -1275.38,2438.37 -2157.69,2529.75c-146.595,15.184 -271.858,29.215 -278.362,31.177c-6.504,1.881 135.809,143.195 316.249,313.848c638.777,604.129 884.702,1329.28 822.774,2426.09c-20.278,359.146 -49.171,708.968 -64.206,777.377c-15.036,68.409 -29.478,145.369 -32.095,171.022c-5.977,58.589 8.008,60.255 -638.623,-76.106Zm-2241.73,-3081.4c780.882,-231.898 1214.09,-1107.4 891.736,-1802.16c-248.048,-534.606 -746.806,-839.567 -1373.09,-839.567c-471.519,0 -859.757,173.145 -1150.89,513.271c-449.661,525.327 -416.457,1265.27 77.984,1737.86c483.243,461.893 933.32,574.999 1554.27,390.598Z" style="fill:#6e716f;fill-rule:nonzero;"/><path id="path142" d="M5636.77,7791.65c-1721.41,-365.382 -2318.62,-926.85 -2708.01,-2545.96c-38.564,-160.351 -56.944,-117.63 -130.798,304.016c-145.03,828.003 -414.951,1251.12 -985.89,1545.43c-237.175,122.261 -1615.52,607.075 -1725.93,607.075c-91.599,-0 -477.869,-887.198 -545.225,-1252.29c-148.215,-803.379 258.805,-1567.47 1146.85,-2152.95c343.332,-226.358 342.527,-238.602 -7.559,-115.085c-345.826,122.014 -788.262,182.356 -1281.24,174.743c-720.848,-11.142 -1278.52,-344.268 -1832.8,-1094.86l-225.082,-304.801l393.09,-369.477c1192.51,-1120.88 2192.85,-1304.4 3616.33,-663.435c297.102,133.776 557.294,243.232 578.204,243.232c20.91,-0 -57.069,-124.569 -173.286,-276.823c-451.276,-591.204 -700.576,-1345.18 -635.435,-1921.8c72.522,-641.946 246.554,-1013.7 889.151,-1899.34c38.189,-52.634 1219.52,1084.47 1401.63,1349.16c427.899,621.93 589.687,1373.92 457.595,2126.9c-45.003,256.534 -76.605,472.793 -70.226,480.578c6.379,7.78 192.017,-161.888 412.532,-377.048c745.826,-727.711 1660.1,-994.493 2962.2,-864.357c395.211,39.5 732.653,85.906 749.876,103.128c55.824,55.824 -484.826,1548.31 -702.51,1939.31c-443.815,797.164 -1107.19,1322.94 -1698.93,1346.54c-141.718,5.641 -257.669,20.379 -257.669,32.736c-0,12.34 148.112,157.826 329.138,323.273c632.759,578.307 892.997,1331.07 828.083,2395.3c-20.863,342.046 -58.893,708.195 -84.508,813.664l-46.574,191.763l-652.997,-138.604Zm-2145.29,-3053.2c366.208,-124.778 792.655,-531.181 900.606,-858.277c295.549,-895.522 -440.645,-1814.33 -1431.85,-1787.01c-458.731,12.646 -768.155,137.267 -1069.24,430.647c-1064.99,1037.75 144.132,2710.87 1600.48,2214.64Z" style="fill:#f1002c;fill-rule:nonzero;"/><path id="path140" d="M5636.77,7791.65c-1721.41,-365.382 -2318.62,-926.85 -2708.01,-2545.96c-38.564,-160.351 -56.944,-117.63 -130.798,304.016c-145.03,828.003 -414.951,1251.12 -985.89,1545.43c-237.175,122.261 -1615.52,607.075 -1725.93,607.075c-91.599,-0 -477.869,-887.198 -545.225,-1252.29c-97.417,-528.035 39.602,-1027.58 418.634,-1526.25c163.742,-215.425 817.694,-733.536 865.508,-685.722c16.285,16.289 -65.797,88.571 -182.403,160.637c-305.956,189.093 -777.368,713.567 -916.133,1019.25c-87.454,192.657 -117.196,388.18 -110.984,729.611l8.488,466.428l37.543,-529.005c44.39,-625.482 207.55,-958.357 668.704,-1364.28c328.054,-288.766 990.469,-708.339 1118.31,-708.339c45.999,-0 83.634,-23.317 83.634,-51.826c0,-74.929 -39.604,-65.875 -305.728,69.889c-131.22,66.945 -251.675,108.624 -267.677,92.622c-16.002,-16.007 -140.528,10.224 -276.724,58.276c-347.638,122.653 -789.321,183.033 -1283.12,175.406c-720.848,-11.142 -1278.52,-344.268 -1832.8,-1094.86l-225.082,-304.801l393.09,-369.477c1196.11,-1124.26 2191.91,-1304.82 3628.54,-657.942c303.815,136.802 568.613,232.507 588.441,212.678c19.828,-19.838 71.736,-6.44 115.353,29.764c56.81,47.149 128.987,38.882 254.482,-29.144c96.35,-52.228 152.352,-96.081 124.45,-97.449c-27.902,-1.41 -108.479,28.415 -179.06,66.19c-108.927,58.295 -150.583,41.841 -275.527,-108.835c-235.38,-283.853 -407.076,-574.059 -560.974,-948.181c-78.906,-191.815 -143.856,-306.775 -144.334,-255.468c-1.198,128.905 287.262,736.627 457.335,963.496c222.86,297.284 250.459,393.044 47.334,164.232c-432.458,-487.148 -736.161,-1374.47 -670.22,-1958.16c72.522,-641.946 246.554,-1013.7 889.15,-1899.34c38.19,-52.634 1219.52,1084.47 1401.63,1349.16c427.449,621.275 589.436,1373.16 458.22,2126.9c-51.795,297.531 -59.302,480.501 -20.729,505.296c37.032,23.804 31.831,56.567 -13.419,84.533c-50.264,31.065 -7.648,104.078 133.288,228.361l207.176,182.694l-258.273,-162.666c-394.253,-248.311 -742.9,-332.379 -1148.6,-276.961c-420.859,57.486 -573.09,130.617 -877.421,421.5c-796.193,761.016 -351.104,2027.54 797.171,2268.4c594.082,124.611 1224.7,-137.638 1564.33,-650.54c143.62,-216.89 171.554,-325.664 171.554,-668.014c0,-224.917 -22.823,-478.904 -50.716,-564.415c-40.129,-123.016 -35.894,-136 20.282,-62.19c63.11,82.919 68.17,82.919 45.535,0c-14.007,-51.306 -51.119,-93.714 -82.473,-94.238c-93.072,-1.646 -212.483,-94.737 -212.483,-165.809c-0,-40.52 42.151,-34.219 108.833,16.265c59.858,45.323 -1.387,-34.789 -136.094,-178.026l-244.928,-260.433l136.095,-144.866c74.851,-79.677 135.163,-171.048 134.025,-203.047c-1.129,-32 -57.109,7.874 -124.381,88.634c-67.271,80.752 -122.311,118.748 -122.311,84.437c-0,-125.624 750.94,-753.04 1097.56,-917.015c589.963,-279.099 1326.55,-378.014 2179.87,-292.731c395.209,39.5 732.654,85.906 749.876,103.128c55.824,55.824 -484.825,1548.31 -702.51,1939.31c-443.814,797.164 -1107.19,1322.94 -1698.93,1346.54c-141.718,5.641 -257.669,35.307 -257.669,65.903c-0,30.597 -48.975,35.615 -108.833,11.142c-59.858,-24.464 -251.273,-78.711 -425.366,-120.553l-316.533,-76.076l-200.048,238.28c-110.026,131.054 -174.09,238.281 -142.363,238.281c31.727,0 121.595,-93.27 199.706,-207.264l142.02,-207.265l321.121,74.647c442.118,102.773 522.429,154.301 934.952,599.875c198.545,214.453 325.682,323.939 282.527,243.303c-43.155,-80.637 -200.697,-268.846 -350.092,-418.241c-149.395,-149.395 -248.208,-271.626 -219.584,-271.626c93.99,0 614.432,598.74 747.973,860.503c236.845,464.254 333.569,1034.64 291.741,1720.39c-20.863,342.047 -58.892,708.196 -84.508,813.665l-46.574,191.763l-652.999,-138.588Zm614.689,-104.992c-5.635,-109.272 -13.553,-115.52 -36.154,-28.509c-17.969,69.184 -68.274,99.908 -132.713,81.052c-57.077,-16.712 -215.718,-44.69 -352.536,-62.199c-225.513,-28.859 -219.7,-23.914 62.19,52.905c433.692,118.188 467.372,115.017 459.213,-43.249Zm-925.64,-108.833c-212.639,-68.098 -376.14,-68.098 -217.666,0c68.409,29.398 180.352,52.626 248.761,51.62c99.989,-1.411 93.891,-11.588 -31.095,-51.62Zm-5138.28,-42.847c-80.774,-15.866 -175.014,-121.375 -242.945,-272.021c-61.04,-135.36 -122.548,-234.546 -136.684,-220.41c-14.136,14.126 32.79,140.357 104.28,280.492c97.133,190.394 165.027,252.645 268.647,246.317c134.746,-8.226 134.936,-9.213 6.702,-34.378Zm1006.58,-276.595c753.491,-272.643 1077.59,-505.815 1284.82,-924.363c93.145,-188.125 184.114,-467.982 202.152,-621.902c29.335,-250.316 22.8,-240.796 -61.908,90.187c-208.801,815.848 -465.555,1047.48 -1634.47,1474.58c-365.871,133.68 -588.225,227.552 -494.12,208.602c94.106,-18.945 410.689,-121.144 703.519,-227.105Zm5108.53,-68.521c-14.876,-77.36 -27.611,-28.712 -28.301,108.106c-0.682,136.82 11.482,200.114 27.046,140.654c15.565,-59.458 16.129,-171.401 1.246,-248.76l0.009,-0Zm-1795.94,117.297c-605.063,-296.607 -971.667,-691.836 -1228.23,-1324.13c-67.399,-166.102 -124.069,-263.46 -125.935,-216.349c-1.857,47.109 84.192,263.559 191.238,481.001c220.505,447.908 668.216,903.061 1065.85,1083.56c369.833,167.884 448.748,148.307 97.08,-24.083Zm1859.22,-801c-13.842,-111.778 -25.452,-35.319 -25.8,169.908c-0.376,205.228 10.974,296.682 25.166,203.233c14.189,-93.451 14.476,-261.366 0.634,-373.141l-0,-0Zm-137.684,-832.027c-55.726,-191.688 -112.629,-337.214 -126.453,-323.391c-13.823,13.821 15.819,161.209 65.871,327.521c50.052,166.312 94.816,374.897 99.474,463.525c7.709,146.704 10.887,148.584 35.447,21.013c14.839,-77.075 -18.616,-296.971 -74.339,-488.659l-0,-0.009Zm-3117.96,-265.19c-21.853,-109.265 -52.696,-185.701 -68.54,-169.857c-15.845,15.843 -9.489,116.766 14.124,224.273c56.019,255.05 106.262,204.808 54.416,-54.416l-0,-0Zm-894.471,-629.938c64.179,34.348 139.519,61.331 167.421,59.961c27.902,-1.41 -28.703,-45.538 -125.79,-98.152c-97.087,-52.614 -183.366,-86.477 -191.732,-75.249c-94.929,127.399 -471.232,796.172 -470.975,837.024c0.187,29.729 113.75,-134.966 252.363,-365.989c218.831,-364.724 267.391,-411.821 368.713,-357.595Zm-497.955,243.314l262.016,-441.038l-176.709,-196.412c-97.19,-108.024 -197.915,-222.997 -223.834,-255.492c-25.918,-32.493 -47.124,-40.464 -47.124,-17.723c-0,22.753 86.34,139.707 191.867,259.895l191.866,218.523l-232.923,389.994c-288.461,482.983 -288.618,483.281 -254.853,483.281c15.221,0 145.585,-198.469 289.694,-441.04l-0,0.012Zm1068.81,130.088c13.048,-136.818 1.998,-248.76 -24.563,-248.76c-26.557,0 -48.286,111.942 -48.286,248.76c0,136.818 11.052,248.76 24.563,248.76c13.509,0 35.239,-111.942 48.286,-248.76Zm1917.24,162.948c-0,-12.998 -153.921,-139.835 -342.047,-281.871c-188.125,-142.036 -342.046,-244.624 -342.046,-227.968c0,27.275 631.237,530.011 668.545,532.446c8.551,0.471 15.549,-9.613 15.549,-22.611l-0.001,0.004Zm-1535.38,-368.32c112.045,-21.766 105.873,-27.948 -34.919,-34.919c-140.32,-6.958 -169.728,16.641 -163.809,131.458c5.113,99.142 15.29,109.32 34.919,34.919c15.238,-57.754 88.952,-116.911 163.809,-131.458Zm1276.66,-52.983c-432.332,-336.344 -537.627,-409.912 -456.464,-318.922c114.706,128.593 683.496,572.814 736.32,575.058c28.725,1.176 -97.21,-114.041 -279.856,-256.136Zm-1810.4,-27.98c-20.666,-20.661 -74.305,-22.87 -119.198,-4.913c-49.611,19.862 -34.875,34.588 37.573,37.573c65.559,2.703 102.29,-11.987 81.625,-32.665l-0,0.005Zm1213.12,-109.122c61.724,-2.491 84.632,-27.649 53.502,-58.781c-31.131,-31.13 -130.611,-10.413 -232.325,48.38c-97.835,56.553 -121.911,83.003 -53.501,58.781c68.409,-24.224 172.955,-45.994 232.324,-48.38Zm-4336.88,-534.606c-378.5,-26.563 -660.385,-84.675 -870.663,-179.487c-337.781,-152.302 -769.762,-538.435 -979.085,-875.167l-131.97,-212.297l381.492,-358.578c429.097,-403.319 828.938,-656.296 1288.46,-815.195c171.47,-59.293 252.556,-108.719 180.191,-109.836c-238.648,-3.69 -982.846,420.976 -1471.8,839.844l-480.902,411.972l257.455,367.028c482.51,687.863 1072.22,993.672 1889.01,979.581l497.521,-8.579l-559.712,-39.286Zm932.854,-64.98c158.474,-68.098 -5.028,-68.098 -217.666,0c-124.986,40.027 -131.084,50.15 -31.095,51.619c68.409,0.941 180.352,-22.235 248.761,-51.619Zm404.236,-124.381c113.682,-73.467 15.49,-73.467 -155.475,-0c-82.013,35.241 -92.605,54.611 -31.095,56.866c51.306,1.88 135.263,-23.708 186.57,-56.866Zm5061.81,-38.435c480.233,-163.63 971.345,-669.812 1307.97,-1348.1c156.517,-315.376 283.681,-601.178 282.591,-635.121c-1.176,-33.941 -125.108,191.991 -275.589,502.075c-476.449,981.765 -1007.81,1430.85 -1800.23,1521.45c-357.181,40.842 -362.547,43.787 -94.387,51.812c156.379,4.677 417.218,-36.772 579.642,-92.116Zm-941.705,-2.75c-42.756,-17.253 -112.72,-17.253 -155.475,-0c-42.756,17.252 -7.773,31.367 77.737,31.367c85.512,-0 120.494,-14.127 77.738,-31.367Zm-3809.15,-83.194c51.306,-33.156 65.299,-60.285 31.095,-60.285c-34.205,-0 -104.169,27.129 -155.476,60.285c-51.307,33.159 -65.3,60.286 -31.095,60.286c34.204,-0 104.168,-27.127 155.476,-60.286Zm3544.84,38.348c-0,-13.115 -55.972,-38.477 -124.381,-56.367c-68.409,-17.887 -124.38,-7.169 -124.38,23.841c-0,31.003 55.971,56.37 124.38,56.37c68.409,-0 124.381,-10.718 124.381,-23.844Zm-134.4,-632.739c-17.572,-220.956 1.434,-282.953 103.069,-336.119c110.231,-57.662 106.669,-60.669 -30.859,-26.039c-85.512,21.531 -156.591,42.669 -157.954,46.97c-1.364,4.302 10.328,189.728 25.978,412.059c15.652,222.329 40.349,352.445 54.886,289.148c14.535,-63.298 16.733,-237.007 4.882,-386.019l-0.002,-0Zm-3161.68,96.871c0,-197.327 -22.503,-247.747 -108.833,-243.853c-65.015,2.939 -77.535,17.535 -31.095,36.278c42.756,17.253 77.738,126.986 77.738,243.852c0,116.865 13.993,212.483 31.095,212.483c17.102,-0 31.095,-111.943 31.095,-248.76Zm-419.784,-289.951c-42.756,-17.252 -112.72,-17.252 -155.475,0c-42.756,17.253 -7.773,31.37 77.737,31.37c85.512,0 120.494,-14.126 77.738,-31.37Zm-373.141,-62.189c-42.756,-17.253 -112.72,-17.253 -155.476,0c-42.755,17.253 -7.773,31.367 77.738,31.367c85.512,0 120.494,-14.126 77.738,-31.367Zm-466.427,-63.872c-155.514,-40.64 -134.552,-142.375 31.095,-150.916c115.174,-5.947 119.507,-12.458 24.49,-36.927c-135.687,-34.923 -258.829,66.075 -198.862,163.104c22.981,37.184 89.108,64.363 146.947,60.393c94.81,-6.511 94.449,-10.013 -3.669,-35.654l-0.001,-0Zm1473.06,-235.842c89.835,-153.293 223.861,-311.105 297.836,-350.694c125.231,-67.022 105.376,-86.666 -288.129,-285.045c-232.445,-117.184 -433.45,-202.239 -446.677,-189.011c-13.229,13.234 140.524,102.71 341.67,198.848l365.722,174.799l-210.97,276.386c-116.033,152.011 -210.969,300.28 -210.969,329.485c-0,29.208 -62.968,65.231 -139.928,80.053c-136.588,26.31 -136.729,27.153 -5.909,35.422c97.272,6.159 178.802,-67.95 297.354,-270.243Zm-570.118,175.728c-42.105,-17.041 -126.062,-18.076 -186.571,-2.351c-60.509,15.772 -26.059,29.706 76.555,30.973c102.613,1.175 152.121,-11.635 110.016,-28.669l0,0.047Zm-435.331,-62.19c-42.105,-17.041 -126.062,-18.075 -186.571,-2.35c-60.509,15.772 -26.06,29.705 76.554,30.972c102.614,1.175 152.121,-11.635 110.017,-28.669l-0,0.047Zm4150.01,-114.683c85.511,-48.883 127.49,-88.877 93.285,-88.877c-34.204,0 -132.154,39.994 -217.665,88.877c-85.512,48.883 -127.49,88.879 -93.286,88.879c34.205,0 132.154,-39.996 217.666,-88.879Zm373.141,31.095c51.307,-33.156 65.3,-60.286 31.095,-60.286c-34.204,0 -104.168,27.13 -155.475,60.286c-51.307,33.158 -65.3,60.285 -31.095,60.285c34.204,0 104.168,-27.127 155.475,-60.285Zm373.142,-155.474c85.511,-48.883 127.49,-88.879 93.285,-88.879c-34.205,-0 -132.154,39.996 -217.666,88.879c-85.511,48.881 -127.49,88.877 -93.285,88.877c34.205,0 132.154,-39.996 217.666,-88.877Zm-310.951,-62.192c85.511,-48.883 127.49,-88.877 93.285,-88.877c-34.205,0 -132.154,39.994 -217.666,88.877c-85.511,48.884 -127.49,88.88 -93.285,88.88c34.204,-0 132.154,-39.996 217.666,-88.88Zm373.141,-155.476c51.307,-33.156 65.3,-60.285 31.095,-60.285c-34.205,-0 -104.169,27.129 -155.475,60.285c-51.307,33.159 -65.3,60.286 -31.096,60.286c34.205,-0 104.169,-27.127 155.476,-60.286Zm-1872.92,-388.687c-5.143,-99.765 -15.187,-109.679 -34.991,-34.543c-17.385,65.96 -67.036,92.847 -132.714,71.871c-89.644,-28.629 -91.342,-23.735 -11.652,33.591c141.114,101.509 187.305,83.245 179.357,-70.919Zm-925.639,-40.821c-0,-31.003 -55.972,-41.731 -124.381,-23.841c-68.409,17.887 -124.38,43.253 -124.38,56.367c-0,13.116 55.971,23.841 124.38,23.841c68.409,0 124.381,-25.364 124.381,-56.367Zm605.059,18.804c-20.666,-20.661 -74.305,-22.871 -119.198,-4.913c-49.612,19.862 -34.875,34.59 37.573,37.573c65.559,2.703 102.29,-11.988 81.625,-32.663l-0,0.003Zm-2461.84,-188.057c-114.804,-50.098 -296.71,-104.55 -404.236,-121.001c-115.216,-17.628 -55.034,19.251 146.544,89.785c405.866,142.026 552.25,159.76 257.692,31.216Zm1774.88,-96.993c-19.852,-49.612 -34.589,-34.874 -37.573,37.573c-2.701,65.558 11.999,102.289 32.663,81.626c20.666,-20.661 22.875,-74.307 4.911,-119.199l-0.001,0Zm186.571,0c-19.853,-49.612 -34.589,-34.874 -37.574,37.573c-2.7,65.558 12,102.289 32.664,81.626c20.666,-20.661 22.875,-74.307 4.91,-119.199l-0,0Zm941.451,-703.527c1.669,-729.921 -34.776,-611.007 -66.734,217.665c-13.851,359.149 -4.788,583.034 20.13,497.523c24.923,-85.513 45.894,-407.346 46.603,-715.188l0.001,-0Zm665.882,518.118c69.385,-60.328 279.278,-194.081 466.427,-297.228c187.149,-103.149 310.639,-188.049 274.422,-188.669c-109.08,-1.881 -793.703,429.384 -960.29,604.895c-161.628,170.287 -33.146,100.613 219.441,-118.998Zm-4370.64,89.89c-111.165,-13.798 -293.071,-13.798 -404.237,-0c-111.164,13.797 -20.211,25.084 202.119,25.084c222.33,0 313.283,-11.282 202.118,-25.084Zm2513.25,-219.32c-17.252,-42.756 -31.368,-7.781 -31.368,77.738c0,85.513 14.115,120.493 31.368,77.738c17.253,-42.756 17.253,-112.719 0,-155.476Zm187.867,3.878c-19.853,-49.612 -34.59,-34.874 -37.574,37.573c-2.7,65.56 12,102.291 32.664,81.625c20.665,-20.661 22.875,-74.304 4.91,-119.198l-0,-0Zm4982.46,-283.743c51.789,-153.508 50.268,-202.051 -6.323,-201.839c-41.867,0.155 -79.571,98.305 -86.075,224.054c-13.351,258.181 -1.175,255.264 92.391,-22.212l0.007,-0.003Zm-5231.22,34.983c-19.853,-49.612 -34.589,-34.875 -37.574,37.572c-2.7,65.558 12,102.289 32.664,81.626c20.665,-20.661 22.875,-74.306 4.91,-119.198l-0,-0Zm186.57,-0c-19.852,-49.612 -34.589,-34.875 -37.573,37.572c-2.701,65.558 11.999,102.289 32.664,81.626c20.665,-20.661 22.875,-74.306 4.91,-119.198l-0.001,-0Zm-248.761,-248.763c-19.852,-49.609 -34.589,-34.874 -37.573,37.575c-2.701,65.558 11.999,102.289 32.664,81.624c20.665,-20.661 22.875,-74.304 4.91,-119.199l-0.001,0Zm186.571,0c-19.852,-49.609 -34.589,-34.874 -37.573,37.575c-2.701,65.558 11.999,102.289 32.663,81.624c20.666,-20.661 22.875,-74.304 4.911,-119.199l-0.001,0Zm2911.55,73.853c78.4,-33.69 89.895,-53.448 31.095,-53.448c-51.307,-0 -149.256,24.05 -217.666,53.448c-78.399,33.69 -89.894,53.448 -31.095,53.448c51.307,-0 149.257,-24.053 217.666,-53.448Zm513.795,-104.922c-59.46,-15.56 -171.402,-16.124 -248.761,-1.175c-77.359,14.879 -28.711,27.611 108.107,28.302c136.819,0.706 200.113,-11.47 140.654,-27.047l-0,-0.08Zm1305.27,-1.88c-94.062,-14.244 -247.982,-14.244 -342.045,-0c-94.063,14.244 -17.102,25.909 171.023,25.909c188.127,0 265.087,-11.658 171.022,-25.909Zm-652.141,-61.423c-76.49,-14.761 -216.418,-15.137 -310.951,-0.94c-94.533,14.291 -31.95,26.372 139.073,26.84c171.023,0.47 248.368,-11.235 171.878,-25.992l0,0.092Zm-5508.24,-374.822c-15.767,-60.509 -29.706,-26.06 -30.973,76.553c-1.27,102.613 11.632,152.122 28.669,110.017c17.034,-42.104 18.073,-126.061 2.303,-186.57l0.001,-0Zm2286.74,-624.383c-227.452,-460.217 -495.64,-771.984 -1223.09,-1421.84l-287.849,-257.143l-285.914,414.678c-301.41,437.152 -535.745,970.681 -528.884,1204.15c2.257,76.594 43.799,-8.219 92.327,-188.472c107.135,-397.938 225.597,-637.106 507.461,-1024.54l214.644,-295.035l414.758,346.364c228.118,190.5 523.548,477.186 656.512,637.081c239.783,288.348 593.149,951.066 602.676,1130.28c3.763,70.833 12.923,73.331 38.048,10.39c18.2,-45.598 -72.109,-295.76 -200.686,-555.918l-0,-0.007Z" style="fill:#db022b;fill-rule:nonzero;"/><path id="path138" d="M5636.77,7791.65c-1721.41,-365.382 -2318.62,-926.85 -2708.01,-2545.96c-38.564,-160.351 -56.944,-117.63 -130.798,304.016c-145.03,828.003 -414.951,1251.12 -985.89,1545.43c-237.175,122.261 -1615.52,607.075 -1725.93,607.075c-91.599,-0 -477.869,-887.198 -545.225,-1252.29c-148.215,-803.379 258.805,-1567.47 1146.85,-2152.95c343.332,-226.358 342.527,-238.602 -7.559,-115.085c-345.826,122.014 -788.262,182.356 -1281.24,174.743c-720.848,-11.142 -1278.52,-344.268 -1832.8,-1094.86l-225.082,-304.801l393.09,-369.477c1192.51,-1120.88 2192.85,-1304.4 3616.33,-663.435c297.102,133.776 557.294,243.232 578.204,243.232c20.91,-0 -57.069,-124.569 -173.286,-276.823c-451.276,-591.204 -700.576,-1345.18 -635.435,-1921.8c72.522,-641.946 246.554,-1013.7 889.151,-1899.34c38.189,-52.634 1219.52,1084.47 1401.63,1349.16c427.899,621.93 589.687,1373.92 457.595,2126.9c-45.003,256.534 -76.605,472.793 -70.226,480.578c6.379,7.78 192.017,-161.888 412.532,-377.048c700.385,-683.374 1534.35,-954.786 2716.42,-884.045c350.521,20.966 700.341,64.211 777.376,96.074c98.171,40.607 56.36,44.885 -139.791,14.291c-153.923,-23.996 -587.697,-43.768 -963.948,-43.933c-1115.84,-0.47 -1893.72,310.7 -2512.75,1005.25l-305.973,343.295l265.182,258.026c145.851,141.914 292.051,308.113 324.89,369.331c55.252,103.001 109.304,90.527 724.396,-167.174c365.579,-153.163 664.69,-255.278 664.69,-226.919c-0,28.356 -286.853,169.405 -637.45,313.438l-637.45,261.881l-0,488.013c-0,560.831 -32.12,532.925 684.092,594.339c1120.91,96.117 1890.31,-682.565 2493.51,-2523.56c128.549,-392.343 243.437,-684.216 255.307,-648.608c36.994,110.986 -477.198,1529.13 -699.193,1928.38c-443.019,796.748 -1106.81,1322.93 -1698.66,1346.54c-141.718,5.641 -257.669,20.379 -257.669,32.735c-0,12.34 148.112,157.827 329.138,323.273c632.759,578.307 892.997,1331.07 828.083,2395.3c-20.863,342.047 -58.893,708.196 -84.508,813.665l-46.574,191.763l-652.997,-138.595Zm664.647,-198.276c26.61,-128.269 47.484,-541.056 46.387,-917.307c-1.599,-548.611 -29.923,-763.129 -143.01,-1083.17c-276.837,-783.463 -802.189,-1328.45 -1418.75,-1471.78l-350.911,-81.572l-236.199,261.025c-129.91,143.566 -236.198,275.02 -236.195,292.122c0.002,17.112 183.046,166.406 406.764,331.784c223.717,165.381 392.829,314.624 375.802,331.649c-17.025,17.017 -217.292,-115.478 -445.036,-294.454l-414.078,-325.412l-213.896,101.997c-117.642,56.102 -325.453,119.84 -461.801,141.643c-284.265,45.457 -288.889,64.178 -149.58,605.575c235.01,913.317 724.099,1561.65 1417.59,1879.14c275.355,126.062 1439.85,439.073 1699.62,456.847c41.205,2.821 96.691,-99.818 123.3,-228.085Zm-4556.48,-555.394c600.66,-303.414 854.024,-707.112 995.685,-1586.47c45.786,-284.222 79.478,-518.752 74.871,-521.178c-63.733,-33.57 -751.862,-266.979 -758.996,-257.45c-5.392,7.192 -128.905,203.325 -274.472,435.82c-145.567,232.497 -277.271,410.117 -292.675,394.712c-15.405,-15.396 85.888,-215.485 225.095,-444.623c139.206,-229.138 253.103,-437.404 253.103,-462.813c-0,-25.406 -59.938,-99.506 -133.196,-164.666c-201.539,-179.261 -425.225,-706.914 -425.909,-1004.68c-0.329,-145.369 -9.461,-264.309 -20.28,-264.309c-10.819,-0 -171.737,-26.41 -357.594,-58.69c-185.856,-32.279 -477.157,-75.9 -647.336,-96.932c-170.178,-21.037 -321.767,-50.594 -336.864,-65.689c-88.03,-88.031 116.953,-81.819 728.442,22.071l688.444,116.965l71.842,-173.44c39.513,-95.393 165.38,-269.755 279.704,-387.47l207.862,-214.03l-447.341,-214.746c-769.934,-369.608 -1078.1,-451.775 -1691.15,-450.921c-502.129,0.705 -604.137,21.742 -991.515,204.474c-429.914,202.806 -790.454,458.657 -1228.89,872.063l-230.317,217.167l254.108,362.256c631.683,900.525 1507.34,1174.02 2759.42,861.864c306.14,-76.326 636.18,-179.555 733.421,-229.397c371.64,-190.494 213.449,-17.864 -281.732,307.431c-829.228,544.753 -1151.8,934.024 -1291.85,1558.96c-77.247,344.691 6.696,851.719 221.38,1337.16c241.103,545.174 190.561,532.483 1003.82,252.062c396.774,-136.813 807.59,-292.287 912.923,-345.495l-0.001,0.003Zm1746.54,-2299.53c366.208,-124.778 792.655,-531.181 900.606,-858.277c295.549,-895.522 -440.645,-1814.33 -1431.85,-1787.01c-458.731,12.646 -768.155,137.267 -1069.24,430.647c-1064.99,1037.75 144.132,2710.87 1600.48,2214.64Zm-1150.79,-2602.28c85.511,-48.883 218.443,-89.869 295.404,-91.082c169.478,-2.679 170.255,-33.837 15.548,-624.106c-67.237,-256.536 -122.728,-520.066 -123.314,-585.624c-2.139,-238.202 82.288,-26.302 212.574,533.589l133.179,572.325l308.565,73.507c169.71,40.428 351.778,92.059 404.595,114.737c221.843,95.249 328.91,-1277.49 147.328,-1888.94c-134.916,-454.314 -520.613,-1045.31 -912.393,-1398.05c-179.305,-161.436 -429.173,-390.034 -555.261,-507.996l-229.252,-214.474l-258.424,380.545c-655.409,965.132 -760.155,1803.12 -340.081,2720.68c162.577,355.115 619.227,1010.03 701.429,1005.97c24.546,-1.175 114.593,-42.199 200.104,-91.082l-0.001,0Z" style="fill:#52504f;fill-rule:nonzero;"/><path id="path136" d="M5947.72,7821.73c-125.554,-44.133 -111.541,-48.559 72.813,-23.011c182.891,25.355 234.017,9.637 257.095,-79.08c22.278,-85.64 30.44,-79.024 36.02,29.2c7.806,151.405 -88.155,170.517 -365.928,72.882l0,0.009Zm-684.092,-134.671c-153.921,-35.213 -251.871,-73.444 -217.666,-84.961c34.205,-11.518 216.111,17.182 404.237,63.801c395.863,98.077 231.273,116.745 -186.571,21.155l-0,0.005Zm-5246.85,-100.148c-162.231,-179.263 -414.945,-813.965 -445.713,-1119.43l-29.104,-288.937l82.314,342.047c88.352,367.138 242.18,755.17 387.37,977.148l89.988,137.582l730.84,-251.536c1221.83,-420.525 1475.62,-598.705 1728.38,-1213.48c82.516,-200.697 150.42,-322.928 150.898,-271.621c1.739,187.415 -296.47,724.795 -494.856,891.725c-286.713,241.252 -562.095,371.543 -1385.13,655.337c-674.587,232.605 -724.419,241.238 -814.989,141.159Zm4388.81,-199.167c-209.214,-104.545 -509.027,-320.563 -666.252,-480.042c-268.14,-271.981 -656.078,-954.431 -649.333,-1142.28c1.669,-46.417 74.786,90.997 162.488,305.367c261.294,638.684 763.938,1122.98 1439.82,1387.25c160.308,62.683 246.964,115.278 192.569,116.876c-54.395,1.646 -270.074,-82.627 -479.287,-187.172Zm1929.7,3.502c-0,-119.715 12.798,-168.69 28.441,-108.832c15.643,59.857 15.643,157.807 0,217.665c-15.642,59.858 -28.441,10.883 -28.441,-108.833Zm66.398,-746.283c-0,-188.126 11.658,-265.086 25.908,-171.022c14.249,94.062 14.249,247.982 -0,342.045c-14.249,94.064 -25.908,17.111 -25.908,-171.023Zm-151.334,-858.159c-53.539,-194.997 -117.482,-410.512 -142.095,-478.921c-28.157,-78.264 -9.914,-66.735 49.201,31.095c99.029,163.881 257.027,735.579 214.924,777.681c-13.577,13.586 -68.49,-134.858 -122.03,-329.855Zm-6700.61,49.697c-4.905,-156.25 204.043,-684.094 270.8,-684.094c19.652,0 -7.214,83.048 -59.702,184.549c-52.489,101.504 -120.36,290.407 -150.825,419.785c-40.907,173.721 -56.668,194.577 -60.273,79.76Zm3203.13,-398.44c18.996,-202.04 46.892,-399.533 61.99,-438.876c15.898,-41.432 -110.809,-117.644 -301.097,-181.11c-180.701,-60.267 -356.532,-121.38 -390.737,-135.805c-34.205,-14.432 -184.005,171.199 -332.89,412.498c-148.885,241.302 -283.77,425.659 -299.745,409.683c-15.977,-15.984 84.85,-216.524 224.057,-445.662c139.206,-229.138 253.103,-437.404 253.103,-462.813c-0,-25.406 -59.938,-99.506 -133.196,-164.666c-201.539,-179.261 -425.225,-706.914 -425.909,-1004.68c-0.329,-145.369 -9.461,-264.309 -20.28,-264.309c-10.819,-0 -171.737,-26.41 -357.594,-58.69c-185.856,-32.279 -477.157,-75.9 -647.336,-96.932c-170.178,-21.037 -321.767,-50.594 -336.864,-65.689c-88.03,-88.031 116.953,-81.819 728.442,22.071l688.444,116.965l71.842,-173.44c39.513,-95.393 163.679,-268.004 275.926,-383.58c182.61,-188.028 193.402,-218.044 102.567,-285.264c-55.834,-41.317 -66.535,-58.435 -23.779,-38.038c127.013,60.589 90.41,-29.616 -138.622,-341.619c-235.544,-320.875 -529.226,-910.096 -527.84,-1059.01c0.47,-51.306 69.244,73.042 152.813,276.334c149.286,363.152 521.642,956.547 685.64,1092.65c62.159,51.587 131.221,44.462 271.332,-27.992c103.372,-53.455 245.311,-97.193 315.419,-97.193c156.139,0 156.324,-37.246 3.088,-621.901c-67.237,-256.536 -122.728,-520.067 -123.314,-585.624c-2.139,-238.202 82.288,-26.302 212.574,533.588l133.179,572.325l308.565,73.507c169.71,40.429 355.226,93.383 412.256,117.678c75.896,32.329 207.223,-61.275 489.92,-349.199l386.228,-393.37l-690.725,788.343l266.018,258.825c146.31,142.355 292.886,308.914 325.725,370.132c55.253,103.002 109.304,90.527 724.397,-167.174c365.579,-153.163 664.689,-255.278 664.689,-226.919c-0,28.356 -286.853,169.405 -637.45,313.438l-637.45,261.881l-0,488.013c-0,560.774 -32.303,532.693 684.093,594.675c350.96,30.364 498.61,13.398 761.83,-87.544c371.884,-142.612 447.458,-119.198 93.285,28.899c-372.649,155.827 -856.617,197.637 -1244.37,107.503l-345.96,-80.422l-236.199,261.025c-129.91,143.566 -236.198,275.019 -236.195,292.122c0.002,17.111 183.046,166.406 406.764,331.784c223.717,165.381 392.829,314.624 375.802,331.648c-17.024,17.018 -217.292,-115.477 -445.036,-294.454l-414.078,-325.412l-213.896,101.998c-117.642,56.101 -325.452,119.84 -461.8,141.643c-195.058,31.189 -247.906,66.672 -247.906,166.436c0,69.74 -20.99,105.474 -46.642,79.409c-25.654,-26.064 -80.613,116.197 -122.133,316.135l-75.489,363.521l34.539,-367.34Zm659.033,-661.632c339.645,-94.328 743.502,-426.044 903.329,-741.97c471.929,-932.849 -261.492,-1968.92 -1383.73,-1954.74c-430.582,5.453 -764.404,152.374 -1069.63,470.793c-414.127,432.031 -495.024,940.032 -233.325,1465.19c322.684,647.541 1059.37,961.788 1783.36,760.72Zm-418.214,686.93c-23.612,-107.507 -29.967,-208.428 -14.124,-224.273c15.845,-15.842 46.687,60.592 68.541,169.857c51.844,259.224 1.598,309.466 -54.417,54.416Zm2892.51,-527.548c-73.625,-119.125 -250.817,-318.452 -393.761,-442.949c-142.944,-124.496 -201.513,-196.409 -130.154,-159.808c148.415,76.124 541.316,496.315 644.689,689.472c113.369,211.829 24.145,147.768 -120.774,-86.715Zm-5939.83,30.025c61.909,-68.408 126.555,-124.381 143.658,-124.381c17.102,0 -19.559,55.973 -81.468,124.381c-61.909,68.409 -126.555,124.382 -143.658,124.382c-17.102,-0 19.559,-55.973 81.468,-124.382Zm340.223,-329.328c84.261,-95.618 273.012,-249.54 419.447,-342.046c146.436,-92.507 266.296,-188.463 266.357,-213.24c0.144,-58.863 375.83,-252.963 414.592,-214.201c16.378,16.383 -175.125,161.27 -425.564,321.983c-250.439,160.711 -539.198,366.264 -641.688,456.779l-186.345,164.577l153.201,-173.852Zm-620.079,-354.182c324.944,-29.029 729.429,-95.98 898.856,-148.782c169.427,-52.799 319.112,-84.937 332.633,-71.417c71.796,71.798 -718.911,233.496 -1231.49,251.839l-590.807,21.155l590.807,-52.795Zm-757.944,-43.066c44.894,-17.958 98.533,-15.748 119.198,4.913c20.666,20.661 -16.065,35.363 -81.624,32.662c-72.449,-2.985 -87.185,-17.722 -37.574,-37.572l0,-0.003Zm-528.593,-205.885c-308.484,-176.924 -652.428,-528.669 -901.317,-921.761l-115.916,-183.078l345.124,-315.425c189.818,-173.483 435.307,-375.179 545.53,-448.214l200.406,-132.791l-155.475,133.332c-85.512,73.331 -316.783,273.649 -513.935,445.153l-358.46,311.824l257.871,367.62c272.613,388.636 487.985,579.661 894.38,793.267c136.818,71.916 220.775,131.729 186.57,132.919c-34.204,1.175 -207.354,-81.09 -384.778,-182.846Zm8209.38,-470.929c340.611,-348.856 657.808,-881.142 915.575,-1536.41c97.264,-247.26 178.466,-421.578 180.45,-387.373c1.881,34.204 -53.309,211.934 -122.872,394.954c-295.972,778.715 -724.741,1456.19 -1075.21,1698.89c-149.862,103.777 -125.232,62.735 102.053,-170.054Zm-5181.52,-1550.65c-153.92,-82.42 -251.87,-149.854 -217.665,-149.854c34.204,0 188.125,67.434 342.046,149.854c153.921,82.42 251.87,149.856 217.666,149.856c-34.205,-0 -188.126,-67.436 -342.047,-149.856Zm-2922.94,0.47c-0,-42.128 505.144,-293.417 533.279,-265.284c13.036,13.045 -101.617,84.59 -254.788,159.006c-153.17,74.417 -278.491,122.243 -278.491,106.28l-0,-0.002Zm5262.17,-93.738c96.004,-413.72 97.576,-1299.06 2.88,-1622.09c-53.587,-182.803 -86.655,-343.144 -73.485,-356.315c13.173,-13.17 67.83,123.82 121.464,304.426c119.822,403.483 120.092,1240.52 0.494,1580.7c-48.096,136.82 -71.213,178.797 -51.37,93.286l0.017,0Zm-2992.23,-170.145c-163.871,-65.344 -456.932,-100.987 -858.786,-104.452c-604.522,-5.218 -612.174,-80.424 -9.395,-92.346c311.138,-6.158 946.219,128.575 1140.18,241.883c154.78,90.419 5.978,65.755 -271.996,-45.085l-0.001,-0Zm6938.76,-238.562c-6.393,-93.918 190.907,-660.376 219.917,-631.364c13.139,13.139 -29.933,175.58 -95.736,360.963c-65.799,185.384 -121.683,307.064 -124.181,270.401Zm-2989.68,-239.915c-0,-17.111 55.971,-61.049 124.38,-97.661c68.409,-36.611 124.381,-52.573 124.381,-35.471c-0,17.112 -55.972,61.049 -124.381,97.661c-68.409,36.611 -124.38,52.573 -124.38,35.471Zm310.951,-185.948c-0,-41.018 560.439,-215.811 884.75,-275.941c164.913,-30.578 279.324,-30.846 260.638,-0.705c-18.317,29.637 -99.123,53.887 -179.569,53.887c-80.445,0 -323.668,55.611 -540.494,123.578c-442.056,138.571 -425.325,134.674 -425.325,99.087l-0,0.094Zm2662.52,-202.958c44.895,-17.958 98.533,-15.748 119.199,4.913c20.661,20.66 -16.078,35.363 -81.624,32.664c-72.449,-2.985 -87.184,-17.722 -37.575,-37.575l0,-0.002Zm-501.408,-63.595c76.96,-14.832 202.895,-14.832 279.857,-0c76.96,14.832 13.986,26.951 -139.929,26.951c-153.92,-0 -216.888,-12.129 -139.928,-26.951Zm-746.282,-62.192c76.96,-14.831 202.895,-14.831 279.856,0c76.96,14.832 13.992,26.951 -139.928,26.951c-153.921,-0 -216.889,-12.129 -139.928,-26.951Zm-5256.19,-267.061c-0,-119.715 12.798,-168.69 28.441,-108.833c15.642,59.858 15.642,157.808 -0,217.666c-15.643,59.857 -28.441,10.883 -28.441,-108.833Zm-71.709,-347.229c2.985,-72.448 17.72,-87.184 37.573,-37.573c17.965,44.894 15.756,98.533 -4.91,119.198c-20.665,20.666 -35.364,-16.066 -32.664,-81.625l0.001,0Zm71.709,-336.863c-0,-119.717 12.798,-168.692 28.441,-108.833c15.642,59.858 15.642,157.807 -0,217.666c-15.643,59.858 -28.441,10.882 -28.441,-108.833Zm2205.58,-299.25c-122.701,-198.792 -371.553,-495.166 -553.004,-658.609c-181.451,-163.444 -430.607,-391.247 -553.681,-506.229c-178.819,-167.062 -240.681,-194.044 -307.952,-134.316c-70.743,62.811 -70.791,57.075 -0.305,-35.932c78.221,-103.206 100.916,-94.814 336.336,124.381c710.957,661.956 1096.83,1078.37 1216.32,1312.59c188.322,369.141 123.346,321.072 -137.716,-101.882l0.006,0Zm-2156.34,-17.316c-2.092,-140.049 354.558,-836.205 479.86,-936.659c62.872,-50.403 45.543,0.306 -43.43,127.112c-81.423,116.038 -212.597,367.909 -291.498,559.713c-78.901,191.803 -144.12,304.229 -144.932,249.834Z" style="fill:#ce0015;fill-rule:nonzero;"/><path id="path134" d="M6134.29,7843.45c51.307,-19.533 113.846,-66.296 138.976,-103.923c28.183,-42.198 46.055,-26.709 46.643,40.422c0.634,73.116 -44.967,107.22 -138.976,103.922c-93.499,-3.291 -108.976,-16.688 -46.643,-40.421Zm-260.421,-59.343c44.893,-17.958 98.532,-15.749 119.198,4.912c20.665,20.661 -16.066,35.363 -81.625,32.663c-72.449,-2.985 -87.184,-17.723 -37.573,-37.573l-0,-0.002Zm-5854.36,-197.555c-103.917,-118.773 -291.956,-477.337 -288.328,-549.8c1.363,-27.35 46.402,34.228 100.072,136.841c250.266,478.493 237.528,470.14 552.956,362.661c156.242,-53.237 296.039,-84.832 310.66,-70.21c14.621,14.62 -111.272,70.668 -279.764,124.551c-281.545,90.033 -313.574,89.707 -395.596,-4.043Zm5232.45,73.176c44.893,-17.958 98.533,-15.749 119.198,4.912c20.666,20.661 -16.065,35.363 -81.624,32.665c-72.449,-2.985 -87.185,-17.723 -37.574,-37.573l0,-0.004Zm-781.265,-235.121c-179.574,-83.604 -326.498,-168.006 -326.498,-187.56c-0,-19.556 88.323,10.131 196.274,65.943c107.951,55.825 296.854,138.529 419.784,183.788c122.93,45.257 181.531,83.986 130.224,86.061c-51.306,2.116 -240.209,-64.629 -419.784,-148.232Zm1864.59,-33.348c-0,-119.716 12.798,-168.691 28.441,-108.833c15.643,59.858 15.643,157.808 0,217.665c-15.642,59.858 -28.441,10.883 -28.441,-108.832Zm-5114.03,-124.382c51.307,-33.156 121.271,-60.285 155.475,-60.285c34.205,-0 20.212,27.129 -31.095,60.285c-51.307,33.159 -121.271,60.286 -155.475,60.286c-34.205,-0 -20.212,-27.127 31.095,-60.286Zm310.951,-124.379c51.307,-33.158 121.271,-60.285 155.475,-60.285c34.205,-0 20.212,27.127 -31.095,60.285c-51.307,33.157 -121.271,60.286 -155.475,60.286c-34.205,0 -20.212,-27.129 31.095,-60.286Zm2332.13,-101.047c-111.825,-95.158 -134.691,-132.994 -57.076,-94.443c113.998,56.621 327.819,261.335 266.809,255.445c-12.74,-1.176 -107.119,-73.681 -209.733,-161.002Zm-4221.25,-181.214c-21.329,-55.58 -37.005,-133.746 -34.836,-173.704c2.162,-39.959 30.755,-5.618 63.526,76.304c32.771,81.926 48.447,160.094 34.836,173.706c-13.612,13.61 -42.198,-20.731 -63.526,-76.306Zm6758.59,-215.261c-0,-188.127 11.658,-265.087 25.908,-171.022c14.249,94.062 14.249,247.982 -0,342.044c-14.249,94.065 -25.908,17.112 -25.908,-171.022Zm-4154.77,61.964c294.867,-344.546 298.936,-348.368 231.47,-217.44c-35.251,68.409 -143.622,194.243 -240.826,279.631l-176.733,155.248l186.089,-217.439Zm1149.63,-229.616c-101.861,-160.616 -184.864,-321.534 -184.452,-357.593c0.4,-36.059 72.666,60.265 160.565,214.053c87.898,153.788 188.937,314.706 224.531,357.593c35.594,42.889 46.681,77.98 24.637,77.98c-22.043,0 -123.42,-131.414 -225.281,-292.033Zm-3842.3,-50.014c1.27,-102.613 15.206,-137.064 30.974,-76.555c15.767,60.511 14.73,144.466 -2.304,186.57c-17.036,42.105 -29.936,-7.404 -28.669,-110.015l-0.001,0Zm2974.91,-124.381c0,-34.204 27.129,-104.169 60.286,-155.476c33.157,-51.306 60.285,-65.299 60.285,-31.095c0,34.205 -27.128,104.17 -60.285,155.476c-33.157,51.307 -60.286,65.3 -60.286,31.095Zm3801.52,-279.855c0,-85.513 14.115,-120.493 31.368,-77.738c17.253,42.756 17.253,112.718 0,155.476c-17.252,42.756 -31.368,7.78 -31.368,-77.738Zm-3674.13,-98.469c2.982,-72.447 17.72,-87.185 37.573,-37.573c17.965,44.895 15.755,98.533 -4.91,119.199c-20.666,20.66 -35.364,-16.054 -32.663,-81.626Zm469.2,2.773c-21.329,-55.579 -37.004,-133.748 -34.836,-173.706c2.162,-39.956 30.755,-5.618 63.526,76.307c32.771,81.926 48.447,160.094 34.836,173.706c-13.612,13.609 -42.199,-20.731 -63.526,-76.307Zm-3573.8,-153.073c-0,-85.511 14.115,-120.494 31.368,-77.738c17.253,42.755 17.253,112.72 -0,155.476c-17.253,42.755 -31.368,7.78 -31.368,-77.738Zm6711.64,-36.278c2.986,-72.447 17.721,-87.185 37.573,-37.573c17.965,44.895 15.756,98.533 -4.907,119.199c-20.666,20.661 -35.364,-16.078 -32.664,-81.626l-0.002,0Zm-3539.93,-88.101c-0,-85.514 14.115,-120.494 31.368,-77.738c17.252,42.755 17.252,112.718 -0,155.476c-17.253,42.755 -31.368,7.78 -31.368,-77.738Zm-3119.33,-86.01c-0,-66.742 185.039,-411.513 220.86,-411.513c17.102,0 -15.161,90.953 -71.697,202.119c-115.439,226.988 -149.163,274.329 -149.163,209.394Zm1865.71,-68.371c-0,-16.5 115.164,-218.157 255.92,-448.124c159.544,-260.666 235.66,-444.296 202.119,-487.62c-201.619,-260.426 -458.039,-690.859 -458.039,-768.874c-0,-51.325 72.372,51.911 160.826,229.416c88.455,177.507 244.962,382.646 347.792,455.869c102.831,73.223 160.639,150.373 128.461,171.448c-32.177,21.084 -177.2,227.22 -322.272,458.1c-239.962,381.899 -314.807,474.57 -314.807,389.785Zm1497.48,-130.659c2.985,-72.447 17.72,-87.185 37.573,-37.573c17.965,44.895 15.756,98.533 -4.91,119.198c-20.665,20.661 -35.364,-16.053 -32.664,-81.625l0.001,-0Zm-181.313,-88.102c-17.516,-321.552 52.532,-435.939 261.394,-426.864c146.411,6.37 160.071,15.161 54.937,35.422c-89.189,17.182 -139.928,71.815 -139.928,150.676c0,68.05 -26.081,107.606 -57.957,87.907c-31.877,-19.698 -69.663,41.615 -83.968,136.258c-24.666,163.19 -26.447,164.048 -34.478,16.594l-0,0.007Zm1513.49,-314.719c-205.228,-168.721 -415.12,-296.043 -466.426,-282.937c-51.308,13.116 -149.257,43.978 -217.666,68.599c-68.41,24.622 -26.431,-17.041 93.285,-92.569c119.716,-75.538 301.623,-211.446 404.236,-302.02l186.571,-164.683l-182.037,201.468c-100.12,110.81 -170.084,210.814 -155.475,222.232c14.608,11.424 201.471,153.274 415.25,315.235c213.779,161.961 388.689,306.829 388.689,321.934c-0,70.928 -122.53,-4.537 -466.427,-287.259Zm-4446.6,104.667c-0,-12.904 48.974,-61.888 108.833,-108.833c98.637,-77.357 100.836,-75.157 23.479,23.482c-81.244,103.593 -132.313,136.536 -132.313,85.351l0.001,0Zm5777.5,-413.64c-191.532,-201.144 -303.474,-341.295 -248.761,-311.448c98.093,53.511 401.167,365.403 561.217,577.545c148.263,196.518 41.373,105.488 -312.456,-266.097Zm-3227.7,126.17c-113.681,-73.467 -15.49,-73.467 155.476,-0c82.012,35.241 92.604,54.611 31.095,56.865c-51.307,1.881 -135.264,-23.707 -186.571,-56.865Zm921.193,19.697c44.894,-17.958 98.533,-15.748 119.198,4.912c20.666,20.661 -16.066,35.364 -81.625,32.663c-72.448,-2.985 -87.184,-17.723 -37.573,-37.573l0,-0.002Zm-2973.47,-237.372c80.334,-85.511 160.055,-155.476 177.157,-155.476c17.103,-0 -34.632,69.965 -114.966,155.476c-80.334,85.511 -160.055,155.476 -177.157,155.476c-17.102,-0 34.632,-69.965 114.966,-155.476Zm-1008.95,-263.284c146.274,-13.139 370.159,-12.951 497.522,0.47c127.363,13.351 7.684,24.112 -265.952,23.886c-273.638,-0.235 -377.844,-11.165 -231.57,-24.297l0,-0.059Zm806.829,-57.761c42.756,-17.253 112.72,-17.253 155.476,-0c42.756,17.253 7.773,31.37 -77.738,31.37c-85.512,-0 -120.494,-14.127 -77.738,-31.37Zm-1539.21,-83.191c-51.307,-33.159 -65.3,-60.286 -31.095,-60.286c34.204,0 104.169,27.127 155.475,60.286c51.307,33.156 65.3,60.285 31.095,60.285c-34.204,0 -104.168,-27.129 -155.475,-60.285Zm1990.09,-31.097c283.942,-109.345 395.658,-107.731 155.476,2.35c-102.614,46.987 -228.549,84.562 -279.856,83.502c-51.307,-0.941 4.663,-39.646 124.38,-85.749l0,-0.103Zm4168.7,-8.039c-263.45,-60.358 -360.348,-61.226 -429.965,-3.855c-77.8,64.119 -78.711,53.185 -6.777,-81.407c45.702,-85.511 104.612,-323.388 130.912,-528.617l47.818,-373.142l-39.996,832.457l306.565,65.746c168.611,36.16 449.78,65.745 624.821,65.745c175.04,0 306.594,10.272 292.342,22.824c-76.912,67.734 -630.491,67.88 -925.72,0.235l0,0.014Zm-3795.56,-19.862c-0,-34.204 82.567,-104.886 183.482,-157.072c213.836,-110.579 274.362,-119.431 220.481,-32.251c-60.494,97.882 -403.963,258.853 -403.963,189.323Zm-2777.7,-181.799c-234.853,-170.127 -503.509,-473.613 -725.742,-819.832c-100.566,-156.675 -97.904,-162.692 192.617,-435.331l294.593,-276.463l-266.98,284.932l-266.98,284.934l281.01,381.726c154.556,209.948 393.636,456.257 531.289,547.35c224.808,148.773 292.422,211.289 228.514,211.289c-11.971,-0 -132.715,-80.371 -268.321,-178.605Zm7758.1,93.745c14.253,-12.458 95.877,-55.991 181.388,-96.716c146.599,-69.819 148.584,-68.524 34.756,22.682c-99.069,79.37 -301.489,148.714 -216.144,74.046l-0,-0.012Zm655.127,-455.442c192.375,-193.312 425.593,-529.419 589.607,-849.723c149.238,-291.45 280.71,-520.539 292.162,-509.087c38.029,38.026 -372.219,806.159 -590.278,1105.22c-118.077,161.938 -303.576,357.203 -412.22,433.921c-132.093,93.277 -92.096,33.537 120.729,-180.328Zm-5184.51,-112.694c0.681,-136.82 13.426,-185.469 28.301,-108.109c14.876,77.359 14.31,189.302 -1.246,248.762c-15.565,59.459 -27.736,-3.831 -27.046,-140.653l-0.009,-0Zm-761.966,-389.292c-324.944,-51.22 -602.468,-103.521 -616.72,-116.227c-84.414,-75.249 101.075,-72.118 610.692,10.295c317.201,51.302 644.22,98.864 726.71,105.69c189.54,15.678 199.13,112.53 10.053,101.511c-76.961,-4.49 -405.791,-50.061 -730.735,-101.281l-0,0.012Zm3706.96,-103.904c-50.61,-201.644 -465.389,-624.383 -737.078,-751.221c-111.33,-51.974 -151.417,-80.197 -89.081,-62.714c62.336,17.488 174.279,0.471 248.761,-37.796c109.76,-56.393 121.123,-54.425 59.962,10.39c-60.041,63.623 -20.598,131.898 193.026,334.111c147.667,139.782 295.303,304.234 328.078,365.453c55.139,102.989 109.249,90.501 724.279,-167.174c365.58,-153.164 664.69,-256.096 664.69,-228.737c-0,27.358 -286.849,168.221 -637.442,313.028c-350.593,144.807 -654.734,291.264 -675.868,325.459c-21.133,34.195 -56.831,-11.165 -79.327,-100.794l-0,-0.005Zm-2836.07,-21.272c-0.13,-43.519 110.421,-199.171 245.664,-345.892c240.19,-260.576 243.71,-270.979 151.698,-448.331l-94.197,-181.564l153.385,144.097c129.753,121.897 174.273,132.918 288.959,71.54c74.566,-39.907 149.28,-58.852 166.03,-42.103c16.75,16.759 -29.463,49.474 -102.698,72.718c-179.915,57.103 -555.157,393.064 -694.828,622.092c-62.579,102.613 -113.885,150.965 -114.013,107.443Zm-3451.79,-636.035c61.909,-68.409 126.555,-124.381 143.658,-124.381c17.102,-0 -19.559,55.972 -81.468,124.381c-61.909,68.409 -126.555,124.379 -143.658,124.379c-17.102,0 19.559,-55.97 81.468,-124.379Zm4555.44,-230.461c169.218,-32.592 169.691,-52.085 15.548,-640.203c-67.237,-256.536 -121.877,-522.398 -121.423,-590.807c1.504,-226.148 98.985,31.036 212.158,559.712c58.577,273.638 146.525,528.916 195.441,567.288c72.178,56.621 52.13,77.129 -106.393,108.833c-107.432,21.483 -226.814,35.255 -265.294,30.599c-38.481,-4.654 -6.995,-20.591 69.964,-35.422l-0.001,-0Zm559.711,2.703c42.756,-17.253 112.72,-17.253 155.476,-0c42.756,17.252 7.773,31.367 -77.738,31.367c-85.511,0 -120.493,-14.126 -77.738,-31.367Zm-4710.91,-47.722c-0,-17.112 55.971,-61.05 124.38,-97.661c68.409,-36.612 124.38,-52.574 124.38,-35.472c0,17.112 -55.971,61.05 -124.38,97.661c-68.409,36.612 -124.38,52.574 -124.38,35.472Zm2798.56,-66.567c-85.512,-48.883 -127.49,-88.879 -93.285,-88.879c34.204,0 132.154,39.996 217.665,88.879c85.512,48.884 127.49,88.877 93.286,88.877c-34.205,0 -132.155,-39.993 -217.666,-88.877Zm2858.15,-233.213c152.491,-162.472 285.422,-295.404 295.403,-295.404c46.698,0 -2.675,55.836 -277.257,313.549l-295.403,277.258l277.257,-295.403Zm-2430.75,93.286c-77.357,-98.639 -75.157,-100.839 23.479,-23.481c59.858,46.944 108.833,95.919 108.833,108.832c0,51.185 -51.07,18.24 -132.313,-85.351l0.001,0Zm5859.14,77.738c6.487,-117.802 110.123,-316.168 113.734,-217.668c1.88,51.307 -23.71,135.264 -56.868,186.571c-33.157,51.307 -58.749,65.301 -56.866,31.097Zm-3794.02,-129.564c2.985,-72.447 17.721,-87.185 37.573,-37.573c17.965,44.892 15.755,98.533 -4.908,119.199c-20.665,20.661 -35.364,-16.078 -32.663,-81.626l-0.002,-0Zm-3378.73,-129.292c42.756,-17.252 112.72,-17.252 155.476,0c42.755,17.253 7.773,31.37 -77.738,31.37c-85.512,0 -120.494,-14.126 -77.738,-31.37Zm1134.97,-83.191c-36.612,-68.409 -52.574,-124.381 -35.471,-124.381c17.102,0 61.05,55.972 97.661,124.381c36.612,68.409 52.574,124.379 35.471,124.379c-17.102,0 -61.05,-55.97 -97.661,-124.379Zm-1819.07,17.206c111.166,-13.797 293.072,-13.797 404.237,-0c111.165,13.797 20.212,25.082 -202.118,25.082c-222.33,0 -313.283,-11.282 -202.119,-25.082Zm4134.53,-141.582c-0,-119.716 12.798,-168.691 28.441,-108.833c15.643,59.858 15.643,157.808 0,217.666c-15.642,59.857 -28.441,10.882 -28.441,-108.833Zm-2491.94,-220.329c-104.199,-228.691 -84.319,-277.481 28.35,-69.577c52.615,97.087 84.026,188.157 69.803,202.38c-14.223,14.221 -58.392,-45.538 -98.153,-132.803Zm6463.01,-90.623c-1.88,-51.307 23.71,-135.264 56.866,-186.571c73.467,-113.682 73.467,-15.49 -0,155.476c-35.241,82.014 -54.612,92.605 -56.866,31.095Zm-1978.68,-291.857c60.509,-15.772 144.466,-14.737 186.571,2.351c42.104,17.041 -7.402,29.936 -110.017,28.669c-102.614,-1.175 -137.063,-15.208 -76.554,-30.973l0,-0.047Zm1398.82,-0.94c77.36,-14.879 189.302,-14.314 248.76,1.175c59.461,15.561 -3.831,27.736 -140.651,27.048c-136.82,-0.706 -185.468,-13.422 -108.109,-28.303l-0,0.08Zm-3393.52,-173.68c1.27,-102.614 15.206,-137.065 30.974,-76.554c15.767,60.509 14.73,144.464 -2.304,186.569c-17.039,42.106 -29.94,-7.405 -28.672,-110.015l0.002,-0Zm2584.32,111.585c76.96,-14.832 202.895,-14.832 279.856,-0c76.96,14.831 13.992,26.95 -139.928,26.95c-153.921,0 -216.889,-12.128 -139.928,-26.95Zm-5265.71,-178.958c2.983,-72.449 17.721,-87.184 37.573,-37.575c17.965,44.895 15.756,98.533 -4.91,119.199c-20.665,20.66 -35.364,-16.078 -32.663,-81.624l0,0Zm2611.99,-248.762c2.985,-72.448 17.721,-87.184 37.573,-37.573c17.965,44.895 15.755,98.533 -4.908,119.198c-20.665,20.661 -35.364,-16.053 -32.663,-81.625l-0.002,-0Zm-2674.18,-186.523c2.985,-72.448 17.72,-87.185 37.573,-37.573c17.965,44.893 15.756,98.532 -4.91,119.198c-20.665,20.665 -35.364,-16.066 -32.664,-81.625l0.001,-0Zm2583.67,-59.412c-60.013,-156.39 -42.309,-196.742 31.004,-70.669c36.299,62.423 52.899,126.598 36.886,142.61c-16.011,16.012 -46.563,-16.362 -67.89,-71.941Zm-317.933,-627.155c-58.788,-89.723 -76.15,-144.136 -38.582,-120.917c71.792,44.37 216.589,284.049 171.602,284.049c-14.371,0 -74.231,-73.409 -133.02,-163.132Zm-2084.07,-171.026c-0,-67.164 247.033,-536.505 282.384,-536.505c17.102,0 -28.885,118.939 -102.194,264.309c-144.167,285.879 -180.19,340.296 -180.19,272.196Zm1492.57,-488.457c-256.535,-243.97 -354.485,-356.961 -217.666,-251.092c241.477,186.854 769.024,703.556 712.261,697.62c-15.492,-1.622 -238.061,-202.558 -494.595,-446.528Zm-1181.62,-133.718c0,-12.914 48.975,-61.889 108.833,-108.833c98.637,-77.357 100.837,-75.157 23.479,23.481c-81.243,103.593 -132.313,136.537 -132.313,85.353l0.001,-0.001Zm559.076,-443.714c-59.371,-71.537 -98.413,-77.158 -163.091,-23.479c-46.768,38.815 -85.034,56.579 -85.034,39.477c0,-17.103 37.731,-62.409 83.846,-100.681c63.97,-53.09 110.481,-40.153 196.209,54.576c61.8,68.288 97.461,124.16 79.245,124.16c-18.216,0 -68.244,-42.323 -111.175,-94.052l-0,-0.001Z" style="fill:#8e1328;fill-rule:nonzero;"/><path id="path132" d="M6134.29,7843.45c51.307,-19.533 113.846,-66.296 138.976,-103.923c28.183,-42.198 46.055,-26.709 46.643,40.422c0.634,73.116 -44.967,107.22 -138.976,103.922c-93.499,-3.291 -108.976,-16.688 -46.643,-40.421Zm-260.421,-59.343c44.893,-17.958 98.532,-15.749 119.198,4.912c20.665,20.661 -16.066,35.363 -81.625,32.663c-72.449,-2.985 -87.184,-17.723 -37.573,-37.573l-0,-0.002Zm-5854.36,-197.555c-103.917,-118.773 -291.956,-477.337 -288.328,-549.8c1.363,-27.35 46.402,34.228 100.072,136.841c250.266,478.493 237.528,470.14 552.956,362.661c156.242,-53.237 296.039,-84.832 310.66,-70.21c14.621,14.62 -111.272,70.668 -279.764,124.551c-281.545,90.033 -313.574,89.707 -395.596,-4.043Zm4451.19,-161.945c-179.574,-83.604 -326.498,-168.006 -326.498,-187.56c-0,-19.556 88.323,10.131 196.274,65.943c107.951,55.825 296.854,138.529 419.784,183.788c122.93,45.257 181.531,83.986 130.224,86.061c-51.306,2.116 -240.209,-64.629 -419.784,-148.232Zm1859.98,-95.538c0,-85.513 14.115,-120.493 31.368,-77.738c17.253,42.756 17.253,112.718 0,155.476c-17.252,42.756 -31.368,7.78 -31.368,-77.738Zm-5171.61,-24.443c-0,-13.444 43.431,-41.107 96.515,-61.477c55.345,-21.248 80.308,-10.812 58.52,24.441c-36.522,59.093 -155.035,87.405 -155.035,37.036Zm373.141,-162.128c51.307,-33.158 121.271,-60.285 155.475,-60.285c34.205,-0 20.212,27.127 -31.095,60.285c-51.307,33.157 -121.271,60.286 -155.475,60.286c-34.205,0 -20.212,-27.129 31.095,-60.286Zm2332.13,-101.047c-111.825,-95.158 -134.691,-132.994 -57.076,-94.443c113.998,56.621 327.819,261.335 266.809,255.445c-12.74,-1.176 -107.119,-73.681 -209.733,-161.002Zm-4221.25,-181.214c-21.329,-55.58 -37.005,-133.746 -34.836,-173.704c2.162,-39.959 30.755,-5.618 63.526,76.304c32.771,81.926 48.447,160.094 34.836,173.706c-13.612,13.61 -42.198,-20.731 -63.526,-76.306Zm6758.59,-215.261c-0,-188.127 11.658,-265.087 25.908,-171.022c14.249,94.062 14.249,247.982 -0,342.044c-14.249,94.065 -25.908,17.112 -25.908,-171.022Zm-4154.77,61.964c294.867,-344.546 298.936,-348.368 231.47,-217.44c-35.251,68.409 -143.622,194.243 -240.826,279.631l-176.733,155.248l186.089,-217.439Zm1149.63,-229.616c-101.861,-160.616 -184.864,-321.534 -184.452,-357.593c0.4,-36.059 72.666,60.265 160.565,214.053c87.898,153.788 188.937,314.706 224.531,357.593c35.594,42.889 46.681,77.98 24.637,77.98c-22.043,0 -123.42,-131.414 -225.281,-292.033Zm-3849.51,-117.386c2.985,-72.449 17.72,-87.185 37.573,-37.575c17.965,44.895 15.756,98.533 -4.91,119.198c-20.665,20.661 -35.364,-16.053 -32.663,-81.623l0,0Zm2982.13,-57.009c0,-34.204 27.129,-104.169 60.286,-155.476c33.157,-51.306 60.285,-65.299 60.285,-31.095c0,34.205 -27.128,104.17 -60.285,155.476c-33.157,51.307 -60.286,65.3 -60.286,31.095Zm127.386,-378.324c2.982,-72.447 17.72,-87.185 37.573,-37.573c17.965,44.895 15.755,98.533 -4.91,119.199c-20.666,20.66 -35.364,-16.054 -32.663,-81.626Zm469.2,2.773c-21.329,-55.579 -37.004,-133.748 -34.836,-173.706c2.162,-39.956 30.755,-5.618 63.526,76.307c32.771,81.926 48.447,160.094 34.836,173.706c-13.612,13.609 -42.199,-20.731 -63.526,-76.307Zm3137.83,-189.349c2.986,-72.447 17.721,-87.184 37.573,-37.572c17.965,44.892 15.756,98.533 -4.907,119.198c-20.666,20.661 -35.364,-16.077 -32.664,-81.626l-0.002,0Zm-3539.93,-88.103c-0,-85.514 14.115,-120.494 31.368,-77.738c17.252,42.755 17.252,112.718 -0,155.476c-17.253,42.755 -31.368,7.78 -31.368,-77.738Zm-3119.33,-86.01c-0,-66.742 185.039,-411.513 220.86,-411.513c17.102,0 -15.161,90.953 -71.697,202.119c-115.439,226.988 -149.163,274.329 -149.163,209.394Zm3178.07,-330.106c-3.502,-109.145 22.076,-216.025 56.839,-237.51c34.763,-21.484 47.104,-65.114 27.425,-96.956c-19.678,-31.84 56.825,-54.647 170.009,-50.679c131.007,4.607 160.589,18.099 81.408,37.133c-175.091,42.114 -224.068,101.302 -280.167,338.582l-49.148,207.878l-6.366,-198.448Zm1671.59,-176.115c-65.721,-79.191 -61.874,-88.292 23.482,-55.538c56.144,21.554 102.081,64.164 102.081,94.709c0,79.975 -36,68.742 -125.562,-39.171l-0.001,-0Zm-4600.9,9.025c-0,-12.904 48.974,-61.888 108.833,-108.832c98.637,-77.357 100.836,-75.157 23.479,23.481c-81.244,103.594 -132.313,136.536 -132.313,85.351l0.001,0Zm5970.26,-225.281c-73.067,-102.613 -118.857,-186.57 -101.755,-186.57c17.102,-0 90.878,83.957 163.945,186.57c73.067,102.616 118.857,186.571 101.755,186.571c-17.102,0 -90.878,-83.955 -163.945,-186.571Zm-3420.46,-62.189c-51.307,-33.158 -65.3,-60.286 -31.095,-60.286c34.205,0 104.169,27.128 155.476,60.286c51.307,33.158 65.299,60.286 31.095,60.286c-34.205,-0 -104.169,-27.128 -155.476,-60.286Zm1306,-130.953c119.716,-71.77 301.623,-204.597 404.236,-295.171l186.571,-164.683l-186.571,207.671c-102.613,114.218 -262.141,247.15 -354.505,295.404c-258.298,134.939 -294.474,103.499 -49.731,-43.221Zm-3358.27,-86.712c80.334,-85.512 160.055,-155.476 177.157,-155.476c17.103,-0 -34.632,69.964 -114.966,155.476c-80.334,85.511 -160.055,155.476 -177.157,155.476c-17.102,-0 34.632,-69.965 114.966,-155.476Zm1541.64,-77.738c-181.634,-193.218 -422.01,-574.725 -421.231,-668.545c0.282,-34.205 71.376,63.745 157.982,217.665c86.606,153.92 247.186,356.063 356.845,449.206c109.659,93.143 169.633,170.103 133.277,171.025c-36.357,0.94 -138.449,-75.289 -226.873,-169.351Zm3526.87,-54.405c-111.825,-95.158 -134.691,-132.994 -57.075,-94.443c113.998,56.621 327.819,261.335 266.808,255.445c-12.739,-1.175 -107.119,-73.681 -209.733,-161.002Zm-5954.71,-126.692c42.755,-17.252 112.719,-17.252 155.475,0c42.756,17.253 7.773,31.368 -77.738,31.368c-85.511,-0 -120.493,-14.127 -77.737,-31.368Zm684.092,-62.192c42.756,-17.252 112.72,-17.252 155.476,0c42.756,17.253 7.773,31.37 -77.738,31.37c-85.512,0 -120.494,-14.126 -77.738,-31.37Zm-1539.21,-83.191c-51.307,-33.158 -65.3,-60.285 -31.095,-60.285c34.204,-0 104.169,27.127 155.475,60.285c51.307,33.156 65.3,60.286 31.095,60.286c-34.204,-0 -104.168,-27.13 -155.475,-60.286Zm1957.94,1.646c16.616,-26.885 86.658,-63.645 155.647,-81.685c68.99,-18.052 111.841,-10.812 95.224,16.077c-16.615,26.888 -86.658,63.647 -155.647,81.687c-68.99,18.052 -111.84,10.813 -95.224,-16.077l0,-0.002Zm4509.85,12.716c0,-27.581 89.487,-56.967 198.86,-65.299c230.319,-17.559 217.976,15.442 -27.837,74.416c-94.062,22.565 -171.023,18.452 -171.023,-9.12l0,0.003Zm-726.181,-200.984c48.467,-119.718 105.421,-259.646 126.563,-310.952c21.143,-51.307 21.968,4.654 1.834,124.381c-20.135,119.716 -77.089,259.643 -126.564,310.95c-78.501,81.409 -78.734,65.572 -1.833,-124.379Zm-6156.07,-54.226c-234.853,-170.127 -503.509,-473.614 -725.742,-819.832c-100.566,-156.675 -97.904,-162.692 192.617,-435.331l294.593,-276.463l-266.98,284.932l-266.98,284.934l281.01,381.725c154.556,209.949 393.636,456.258 531.289,547.351c224.808,148.773 292.422,211.289 228.514,211.289c-11.971,-0 -132.715,-80.371 -268.321,-178.605Zm2808.79,130.396c34.204,-34.207 132.154,-82.474 217.666,-107.267c103.65,-30.049 134.745,-24.344 93.285,17.111c-34.205,34.205 -132.154,82.475 -217.666,107.265c-103.65,30.051 -134.745,24.347 -93.285,-17.111l-0,0.002Zm4949.31,-36.651c14.253,-12.458 95.877,-55.991 181.388,-96.716c146.599,-69.819 148.584,-68.524 34.756,22.682c-99.069,79.369 -301.489,148.714 -216.144,74.045l-0,-0.011Zm655.127,-455.442c192.375,-193.312 425.593,-529.419 589.607,-849.724c149.238,-291.449 280.71,-520.538 292.162,-509.087c38.029,38.027 -372.219,806.16 -590.278,1105.22c-118.077,161.938 -303.576,357.203 -412.22,433.921c-132.093,93.277 -92.096,33.537 120.729,-180.328Zm-5184.51,-112.695c0.681,-136.82 13.426,-185.468 28.301,-108.108c14.876,77.359 14.31,189.302 -1.246,248.762c-15.565,59.458 -27.736,-3.831 -27.046,-140.654l-0.009,0Zm3036.55,-5.194c2.985,-72.447 17.72,-87.185 37.572,-37.573c17.965,44.892 15.756,98.533 -4.907,119.199c-20.666,20.66 -35.364,-16.078 -32.664,-81.626l-0.001,-0Zm-161.592,-627.038c-66.073,-122.688 -241.364,-315.638 -389.535,-428.775c-268.263,-204.834 -268.795,-206.028 -125.901,-282.177c126.39,-67.354 134.122,-65.097 64.851,18.921c-66.221,80.317 -45.04,121.025 134.033,257.613c204.699,156.129 514.38,579.799 462.053,632.126c-13.953,13.962 -79.428,-75.014 -145.501,-197.705l-0,-0.003Zm-2718.61,10.319c36.588,-68.411 166.679,-220.735 289.091,-338.502c164.202,-157.972 202.234,-228.525 145.032,-269.043c-60.308,-42.72 -59.227,-50.07 4.868,-33.085c123.656,32.768 84.17,112.654 -224.435,454.059c-154.593,171.023 -251.143,254.98 -214.555,186.571l-0.001,0Zm-3499.21,-528.554c61.909,-68.409 126.555,-124.381 143.658,-124.381c17.102,-0 -19.559,55.972 -81.468,124.381c-61.909,68.409 -126.555,124.379 -143.658,124.379c-17.102,0 19.559,-55.97 81.468,-124.379Zm4197.84,-124.381c51.307,-33.156 121.271,-60.286 155.475,-60.286c34.205,0 20.212,27.13 -31.095,60.286c-51.307,33.156 -121.271,60.285 -155.475,60.285c-34.205,0 -20.212,-27.129 31.095,-60.285Zm299.29,-104.672c44.894,-17.958 98.533,-15.749 119.198,4.912c20.666,20.661 -16.065,35.363 -81.625,32.663c-72.448,-2.986 -87.184,-17.723 -37.573,-37.573l0,-0.002Zm684.093,-0c44.893,-17.958 98.532,-15.749 119.198,4.912c20.665,20.661 -16.066,35.363 -81.625,32.663c-72.448,-2.986 -87.185,-17.723 -37.573,-37.573l-0,-0.002Zm-4776.99,-46.427c-0,-17.112 55.971,-61.05 124.38,-97.661c68.409,-36.612 124.38,-52.574 124.38,-35.472c0,17.112 -55.971,61.05 -124.38,97.661c-68.409,36.612 -124.38,52.574 -124.38,35.472Zm2798.56,-66.567c-85.512,-48.883 -127.49,-88.879 -93.285,-88.879c34.204,0 132.154,39.996 217.665,88.879c85.512,48.884 127.49,88.877 93.286,88.877c-34.205,0 -132.155,-39.993 -217.666,-88.877Zm1539.21,52.097c42.756,-17.253 112.72,-17.253 155.476,-0c42.756,17.253 7.773,31.37 -77.738,31.37c-85.511,-0 -120.494,-14.127 -77.738,-31.37Zm1318.94,-285.31c152.491,-162.472 285.422,-295.404 295.403,-295.404c46.698,0 -2.675,55.836 -277.257,313.549l-295.403,277.258l277.257,-295.403Zm-2430.75,93.286c-77.357,-98.639 -75.157,-100.839 23.479,-23.481c59.858,46.944 108.833,95.919 108.833,108.832c0,51.185 -51.07,18.24 -132.313,-85.351l0.001,0Zm5859.14,77.738c6.487,-117.802 110.123,-316.168 113.734,-217.668c1.88,51.307 -23.71,135.264 -56.868,186.571c-33.157,51.307 -58.749,65.301 -56.866,31.097Zm-7172.75,-258.856c42.756,-17.252 112.72,-17.252 155.476,0c42.755,17.253 7.773,31.37 -77.738,31.37c-85.512,0 -120.494,-14.126 -77.738,-31.37Zm1134.97,-83.191c-36.612,-68.409 -52.574,-124.381 -35.471,-124.381c17.102,0 61.05,55.972 97.661,124.381c36.612,68.409 52.574,124.379 35.471,124.379c-17.102,0 -61.05,-55.97 -97.661,-124.379Zm-1911.17,19.086c60.509,-15.771 144.466,-14.737 186.571,2.351c42.104,17.041 -7.402,29.936 -110.017,28.669c-102.614,-1.175 -137.063,-15.208 -76.554,-30.973l-0,-0.047Zm435.331,0c60.509,-15.771 144.466,-14.737 186.571,2.351c42.105,17.041 -7.402,29.936 -110.016,28.669c-102.614,-1.175 -137.064,-15.208 -76.555,-30.973l0,-0.047Zm1299.37,-363.803c-104.199,-228.691 -84.319,-277.48 28.35,-69.577c52.615,97.088 84.026,188.158 69.803,202.381c-14.223,14.22 -58.392,-45.539 -98.153,-132.804Zm6463.01,-90.623c-1.88,-51.307 23.71,-135.264 56.866,-186.571c73.467,-113.681 73.467,-15.489 -0,155.476c-35.241,82.014 -54.612,92.605 -56.866,31.095Zm-638.887,-291.243c44.893,-17.958 98.534,-15.748 119.199,4.913c20.661,20.66 -16.077,35.363 -81.625,32.662c-72.449,-2.985 -87.185,-17.723 -37.574,-37.573l0,-0.002Zm-687.254,-63.691c77.359,-14.879 189.302,-14.315 248.761,1.175c59.46,15.56 -3.836,27.736 -140.653,27.045c-136.819,-0.705 -185.467,-13.422 -108.108,-28.3l0,0.08Zm-5328.63,-178.864c2.983,-72.449 17.721,-87.184 37.573,-37.575c17.965,44.895 15.756,98.533 -4.91,119.199c-20.665,20.66 -35.364,-16.078 -32.663,-81.624l0,0Zm-62.19,-435.332c2.985,-72.448 17.72,-87.185 37.573,-37.573c17.965,44.893 15.756,98.532 -4.91,119.197c-20.665,20.666 -35.364,-16.065 -32.664,-81.624l0.001,-0Zm2583.67,-59.405c-60.013,-156.39 -42.309,-196.742 31.004,-70.669c36.299,62.423 52.899,126.598 36.886,142.61c-16.011,16.012 -46.563,-16.362 -67.89,-71.941Zm-317.933,-627.155c-58.788,-89.723 -76.15,-144.136 -38.582,-120.917c71.792,44.37 216.589,284.049 171.602,284.049c-14.371,0 -74.231,-73.409 -133.02,-163.132Zm-2084.07,-171.026c-0,-67.164 247.033,-536.505 282.384,-536.505c17.102,0 -28.885,118.939 -102.194,264.309c-144.167,285.879 -180.19,340.296 -180.19,272.196Zm1561.05,-421.428c-218.866,-207.963 -344.801,-349.02 -279.856,-313.461c116.476,63.775 762.356,697.943 706.551,693.74c-15.816,-1.199 -207.829,-172.317 -426.695,-380.279Zm-1250.1,-200.747c0,-12.914 48.975,-61.889 108.833,-108.833c98.637,-77.357 100.837,-75.157 23.479,23.481c-81.243,103.593 -132.313,136.537 -132.313,85.353l0.001,-0.001Zm559.076,-443.714c-59.371,-71.537 -98.413,-77.158 -163.091,-23.479c-46.768,38.815 -85.034,56.579 -85.034,39.477c0,-17.103 37.731,-62.409 83.846,-100.681c63.97,-53.09 110.481,-40.153 196.209,54.576c61.8,68.288 97.461,124.16 79.245,124.16c-18.216,0 -68.244,-42.323 -111.175,-94.052l-0,-0.001Z" style="fill:#b0000f;fill-rule:nonzero;"/><path id="path130" d="M6263.58,7790.31c2.986,-72.447 17.721,-87.185 37.573,-37.573c17.965,44.892 15.756,98.533 -4.907,119.199c-20.666,20.661 -35.364,-16.054 -32.664,-81.626l-0.002,-0Zm-6235.93,-196.934c-109.572,-127.59 -191.738,-264.309 -158.844,-264.309c12.688,0 85.142,83.955 161.008,186.571c149.899,202.749 148.496,253.17 -2.163,77.738l-0.001,-0Zm4489.69,-139.93c-51.307,-33.156 -65.3,-60.285 -31.095,-60.285c34.204,-0 104.169,27.129 155.476,60.285c51.306,33.159 65.299,60.286 31.095,60.286c-34.205,-0 -104.169,-27.127 -155.476,-60.286Zm-567.645,-357.593c-77.357,-98.638 -75.157,-100.836 23.481,-23.481c59.858,46.944 108.833,95.919 108.833,108.832c0,51.187 -51.07,18.24 -132.313,-85.351l-0.001,0Zm2451.99,-450.879c-0,-188.127 11.658,-265.087 25.908,-171.022c14.249,94.062 14.249,247.982 -0,342.044c-14.249,94.065 -25.908,17.112 -25.908,-171.022Zm-4309.76,229.3c-0,-10.695 90.953,-101.656 202.118,-202.117l202.118,-182.659l-182.658,202.119c-170.263,188.402 -221.578,230.704 -221.578,182.657Zm1422.44,-213.752c-77.356,-98.638 -75.156,-100.838 23.482,-23.481c59.858,46.944 108.833,95.919 108.833,108.833c-0,51.184 -51.07,18.239 -132.314,-85.352l-0.001,0Zm-212.721,-332.278c-54.708,-105.793 -88.428,-203.391 -74.933,-216.885c13.494,-13.492 71.076,73.063 127.96,192.348c127.899,268.209 83.584,288.712 -53.027,24.537Zm-582.909,-652.401c2.983,-72.45 17.72,-87.185 37.573,-37.573c17.965,44.892 15.756,98.531 -4.91,119.198c-20.666,20.661 -35.364,-16.077 -32.663,-81.625l0,-0Zm62.19,-373.142c2.983,-72.449 17.721,-87.184 37.574,-37.572c17.964,44.892 15.755,98.53 -4.911,119.198c-20.665,20.661 -35.363,-16.077 -32.663,-81.626l0,0Zm1666.29,-259.126c-77.357,-98.638 -75.157,-100.836 23.481,-23.481c103.594,81.245 136.538,132.314 85.353,132.314c-12.914,0 -61.889,-48.975 -108.833,-108.833l-0.001,0Zm-1562.37,-181.115c42.756,-17.252 112.72,-17.252 155.476,0c42.756,17.253 7.773,31.368 -77.738,31.368c-85.511,-0 -120.493,-14.127 -77.738,-31.368Zm2868.37,-129.836c-77.357,-98.637 -75.157,-100.837 23.481,-23.482c103.594,81.243 136.538,132.312 85.353,132.312c-12.914,-0 -61.889,-48.975 -108.833,-108.833l-0.001,0.003Zm-3749.35,-179.818c-32.754,-85.356 -23.653,-89.204 55.536,-23.482c107.916,89.561 119.147,125.562 39.173,125.562c-30.546,-0 -73.165,-45.936 -94.709,-102.08Zm1798.29,62.568c34.205,-30.106 160.038,-138.478 279.631,-240.825l217.439,-186.089l-155.249,176.734c-85.388,97.202 -211.221,205.574 -279.63,240.825c-68.41,35.25 -96.395,39.46 -62.191,9.355Zm-3451.56,-46.159c0,-12.905 48.975,-61.889 108.833,-108.833c98.637,-77.355 100.837,-75.157 23.482,23.481c-81.244,103.594 -132.313,136.538 -132.313,85.352l-0.002,-0Zm5124.79,-116.446l-118.472,-139.93l139.928,118.472c76.961,65.16 139.928,128.128 139.928,139.93c0,49.767 -50.05,13.021 -161.384,-118.472Zm-3881.66,-373.142c-67.778,-111.167 -123.338,-227.772 -123.466,-259.126c-0.282,-70.879 8.528,-59.258 173.005,228.031c163.533,285.638 121.678,311.909 -49.539,31.095Zm3483.34,92.151c0,-27.58 89.487,-56.966 198.86,-65.299c230.319,-17.558 217.976,15.443 -27.837,74.417c-94.062,22.565 -171.023,18.451 -171.023,-9.12l0,0.002Zm-4070.35,-131.804c32.495,-30.361 129.045,-73.507 214.557,-95.879l155.475,-40.68l-155.475,93.677c-173.275,104.4 -309.55,131.635 -214.557,42.882Zm3368.24,-131.371c17.889,-68.409 43.255,-124.379 56.368,-124.379c13.113,-0 23.842,55.97 23.842,124.379c-0,68.409 -25.366,124.381 -56.368,124.381c-31.003,-0 -41.732,-55.972 -23.842,-124.381Zm-6453.11,-233.212l-214.317,-233.214l233.213,214.318c217.07,199.482 261.808,252.108 214.318,252.108c-10.392,-0 -115.339,-104.945 -233.214,-233.212Zm8709.98,-108.835c80.334,-85.511 160.055,-155.474 177.157,-155.474c17.102,0 -34.633,69.963 -114.967,155.474c-80.334,85.513 -160.054,155.476 -177.157,155.476c-17.102,-0 34.633,-69.963 114.967,-155.476Zm-5219.07,-129.562c2.985,-72.447 17.721,-87.184 37.573,-37.572c17.965,44.892 15.756,98.532 -4.91,119.198c-20.665,20.661 -35.364,-16.077 -32.664,-81.626l0.001,0Zm3047.32,0c2.985,-72.447 17.72,-87.184 37.572,-37.572c17.965,44.892 15.756,98.532 -4.907,119.198c-20.666,20.661 -35.364,-16.077 -32.664,-81.626l-0.001,0Zm-6908.03,-212.482c-73.068,-102.616 -118.857,-186.571 -101.755,-186.571c17.102,-0 90.878,83.955 163.945,186.571c73.068,102.613 118.858,186.57 101.755,186.57c-17.102,0 -90.877,-83.957 -163.945,-186.57Zm9266.34,100.899c-0,-12.904 48.975,-61.888 108.833,-108.832c98.637,-77.357 100.837,-75.157 23.481,23.481c-81.243,103.594 -132.313,136.538 -132.313,85.354l-0.001,-0.003Zm248.76,-349.662c36.612,-68.409 80.56,-124.379 97.662,-124.379c17.102,0 1.128,55.97 -35.471,124.379c-36.611,68.409 -80.56,124.381 -97.662,124.381c-17.102,0 -1.128,-55.972 35.471,-124.381Zm-2701.28,-43.959c-33.75,-88.635 -26.607,-95.778 34.814,-34.815c42.502,42.186 61.61,92.367 42.462,111.517c-19.147,19.156 -53.922,-15.373 -77.276,-76.702Zm-6754.24,-220.35c152.492,-162.471 285.423,-295.403 295.404,-295.403c46.697,0 -2.675,55.836 -277.257,313.552l-295.404,277.255l277.257,-295.404Zm4252.79,-210.581c168.36,-181.26 214.275,-267.049 155.475,-290.493c-54.011,-21.53 -57.318,-35.001 -9.374,-38.179c168.108,-11.141 123.313,113.327 -123.285,342.578l-261.733,243.319l238.917,-257.225Zm1924.84,-203.55c-131.305,-109.602 -130.214,-192.222 2.539,-192.222c34.204,0 43.472,18.71 20.595,41.595c-22.878,22.87 4.783,92.842 61.464,155.476c131.214,144.99 92.239,142.755 -84.597,-4.842l-0.001,-0.007Zm3590.75,87.633c0,-34.204 27.13,-104.169 60.286,-155.476c33.158,-51.306 60.285,-65.299 60.285,-31.094c0,34.204 -27.127,104.169 -60.285,155.476c-33.156,51.306 -60.286,65.299 -60.286,31.094Zm-9330.44,-54.574c-0,-12.904 48.975,-61.89 108.833,-108.835c98.637,-77.354 100.836,-75.154 23.479,23.482c-81.244,103.593 -132.313,136.538 -132.313,85.353l0.001,0Zm6092.04,-613.97c152.491,-162.472 285.422,-295.404 295.403,-295.404c46.698,0 -2.675,55.836 -277.257,313.549l-295.403,277.258l277.257,-295.403Zm-4520.56,-151.93c60.509,-15.771 144.466,-14.737 186.571,2.351c42.104,17.041 -7.402,29.936 -110.017,28.669c-102.614,-1.175 -137.063,-15.208 -76.554,-30.973l-0,-0.047Zm435.331,0c60.509,-15.771 144.466,-14.737 186.571,2.351c42.105,17.041 -7.402,29.936 -110.016,28.669c-102.614,-1.175 -137.064,-15.208 -76.555,-30.973l0,-0.047Zm6436.23,-809.36c77.359,-14.879 189.302,-14.315 248.761,1.175c59.46,15.56 -3.836,27.736 -140.653,27.045c-136.819,-0.705 -185.467,-13.422 -108.108,-28.3l0,0.08Zm-5390.82,-614.196c2.985,-72.448 17.72,-87.185 37.573,-37.573c17.965,44.893 15.756,98.532 -4.91,119.198c-20.665,20.665 -35.364,-16.066 -32.664,-81.625l0.001,-0Zm2226.01,-756.648c-77.357,-98.637 -75.157,-100.837 23.481,-23.479c103.594,81.243 136.538,132.313 85.353,132.313c-12.914,-0 -61.889,-48.975 -108.833,-108.833l-0.001,-0.001Zm-429.524,-497.522l-339.921,-357.594l357.593,339.922c332.217,315.798 386.083,375.266 339.922,375.266c-9.719,0 -170.636,-160.917 -357.594,-357.594Zm-781.162,-715.188l-118.472,-139.928l139.929,118.472c131.497,111.334 168.239,161.385 118.471,161.385c-11.802,-0 -74.768,-62.968 -139.928,-139.929Z" style="fill:#651722;fill-rule:nonzero;"/><path id="path128" d="M-23.787,7545.23c-43.267,-52.131 -66.624,-106.83 -51.904,-121.551c14.721,-14.714 60.924,27.933 102.675,94.789c90.288,144.574 60.177,160.447 -50.771,26.762Zm2240.1,-806.97c80.334,-85.511 160.055,-155.474 177.157,-155.474c17.103,0 -34.632,69.963 -114.966,155.474c-80.334,85.513 -160.055,155.476 -177.157,155.476c-17.102,-0 34.633,-69.963 114.966,-155.476Zm1298.06,-77.736c-77.356,-98.638 -75.156,-100.838 23.482,-23.481c59.858,46.944 108.833,95.919 108.833,108.833c-0,51.184 -51.07,18.239 -132.314,-85.352l-0.001,0Zm-150.1,-206.256c-22.545,-36.482 -27.655,-79.665 -11.352,-95.968c16.303,-16.313 46.211,13.539 66.466,66.328c42.052,109.585 6.21,128.862 -55.113,29.64l-0.001,0Zm-479.417,-1591.81c42.756,-17.252 112.72,-17.252 155.476,0c42.756,17.253 7.773,31.368 -77.738,31.368c-85.511,-0 -120.493,-14.127 -77.738,-31.368Zm-855.115,-273.435c-0,-36.224 27.985,-48.564 62.19,-27.424c34.205,21.131 62.19,50.778 62.19,65.861c0,15.09 -27.985,27.424 -62.19,27.424c-34.205,-0 -62.19,-29.638 -62.19,-65.861Zm1803.52,-20.779c-0,-13.445 43.431,-41.108 96.515,-61.479c55.344,-21.249 80.308,-10.813 58.52,24.442c-36.522,59.094 -155.035,87.404 -155.035,37.037Zm1356.86,-424.446c33.165,-33.165 112.248,-49.289 175.739,-35.83c85.5,18.122 69.862,33.762 -60.3,60.299c-113.486,23.129 -154.378,14.479 -115.439,-24.469Zm-4212.43,-71.307c14.251,-12.457 95.877,-55.991 181.389,-96.715c146.598,-69.817 148.583,-68.524 34.756,22.658c-99.069,79.372 -301.49,148.714 -216.145,74.046l0,0.011Zm3392.79,-132.805c19.687,-51.307 46.795,-93.284 60.238,-93.284c13.443,-0 24.442,41.977 24.442,93.284c-0,51.309 -27.108,93.287 -60.239,93.287c-33.13,-0 -44.13,-41.978 -24.441,-93.287Zm2136.96,-241.145c-0,-12.904 48.974,-61.888 108.832,-108.832c98.638,-77.357 100.838,-75.157 23.482,23.481c-81.244,103.594 -132.313,136.538 -132.313,85.354l-0.001,-0.003Zm-5094.69,-261.558c2.985,-72.447 17.721,-87.185 37.573,-37.573c17.965,44.892 15.756,98.533 -4.91,119.199c-20.665,20.66 -35.364,-16.078 -32.664,-81.626l0.001,-0Zm2953.12,-505.204c-33.75,-88.635 -26.607,-95.778 34.814,-34.816c42.502,42.187 61.61,92.368 42.462,111.517c-19.147,19.157 -53.922,-15.372 -77.276,-76.701Zm-190.569,-1262.04c61.91,-68.409 126.556,-124.379 143.658,-124.379c17.102,-0 -19.559,55.97 -81.468,124.379c-61.91,68.411 -126.556,124.381 -143.658,124.381c-17.102,0 19.558,-55.97 81.468,-124.381Zm-4458.26,-104.672c44.894,-17.958 98.533,-15.749 119.198,4.912c20.666,20.661 -16.065,35.363 -81.624,32.663c-72.448,-2.986 -87.185,-17.723 -37.574,-37.573l0,-0.002Zm310.952,-0c44.893,-17.958 98.532,-15.749 119.197,4.912c20.666,20.661 -16.065,35.363 -81.624,32.663c-72.448,-2.986 -87.185,-17.723 -37.573,-37.573l-0,-0.002Zm2867.7,-2678.34l-150.769,-171.023l171.023,150.768c159.847,140.916 199.543,191.278 150.769,191.278c-11.139,-0 -88.1,-76.961 -171.023,-171.023Z" style="fill:#8f000f;fill-rule:nonzero;"/><path id="path126" d="M977.686,4072.5c14.251,-12.458 95.877,-55.991 181.389,-96.716c146.598,-69.817 148.583,-68.524 34.756,22.659c-99.069,79.371 -301.49,148.713 -216.145,74.045l0,0.012Zm5529.75,-373.95c-0,-12.904 48.974,-61.889 108.832,-108.833c98.638,-77.357 100.838,-75.157 23.482,23.482c-81.244,103.593 -132.313,136.538 -132.313,85.353l-0.001,-0.002Z" style="fill:#2b1d1c;fill-rule:nonzero;"/></g></g><g id="Layer1"></g></svg>