<?xml version="1.0" encoding="UTF-8" standalone="no"?>
<!DOCTYPE svg PUBLIC "-//W3C//DTD SVG 1.1//EN" "http://www.w3.org/Graphics/SVG/1.1/DTD/svg11.dtd">
<svg width="100%" height="100%" viewBox="0 0 640 480" version="1.1" xmlns="http://www.w3.org/2000/svg" xmlns:xlink="http://www.w3.org/1999/xlink" xml:space="preserve" xmlns:serif="http://www.serif.com/" style="fill-rule:evenodd;clip-rule:evenodd;stroke-linejoin:round;stroke-miterlimit:2;">
    <g id="Layer-1" serif:id="Layer 1" transform="matrix(1,0,0,1,0,-572.362)">
        <rect id="rect3328" x="0" y="572.362" width="640" height="480" style="fill:rgb(20,45,80);"/>
        <g transform="matrix(1,0,0,1,-17,580.56)">
            <text x="273.419px" y="47.546px" style="font-family:'TTNorms-Medium', 'TT Norms';font-weight:500;font-size:36px;fill:rgb(211,214,222);">VanillaStack Installer</text>
        </g>
        <g id="text3002" transform="matrix(1,0,0,0.999998,-157.034,309)">
            <g transform="matrix(1,0,0,1,190.681,619.207)">
                <text x="0px" y="0px" style="font-family:'LucidaGrande-Bold', 'Lucida Grande', sans-serif;font-weight:600;font-size:8px;fill:rgb(70,88,114);">@PROJECT@ @VERSION@ (@DISTRIBUTION@)</text>
            </g>
            <g transform="matrix(1,0,0,1,190.681,633.207)">
                <text x="0px" y="0px" style="font-family:'LucidaGrande-Bold', 'Lucida Grande', sans-serif;font-weight:600;font-size:8px;fill:rgb(70,88,114);">@ARCHITECTURE@</text>
            </g>
            <g transform="matrix(1,0,0,1,190.728,652.207)">
                <text x="0px" y="0px" style="font-family:'LucidaGrande-Bold', 'Lucida Grande', sans-serif;font-weight:600;font-size:8px;fill:rgb(70,88,114);">Build: @YEAR@-@MONTH@-@DAY@ @HOUR@:@MINUTE@:@SECOND@</text>
            </g>
            <g transform="matrix(1,0,0,1,190.166,665.207)">
                <text x="0px" y="0px" style="font-family:'LucidaGrande', 'Lucida Grande', sans-serif;font-weight:500;font-size:8px;fill:rgb(70,88,114);">linux: @LINUX_VERSIONS@</text>
            </g>
            <g transform="matrix(1,0,0,1,190.166,678.207)">
                <text x="0px" y="0px" style="font-family:'LucidaGrande', 'Lucida Grande', sans-serif;font-weight:500;font-size:8px;fill:rgb(70,88,114);">live-build: @LIVE_BUILD_VERSION@</text>
            </g>
            <g transform="matrix(1,0,0,1,190.166,690.207)">
                <text x="0px" y="0px" style="font-family:'LucidaGrande', 'Lucida Grande', sans-serif;font-weight:500;font-size:8px;fill:rgb(70,88,114);">live-boot: @LIVE_BOOT_VERSION@</text>
            </g>
            <g transform="matrix(1,0,0,1,190.681,703.206)">
                <text x="0px" y="0px" style="font-family:'LucidaGrande', 'Lucida Grande', sans-serif;font-weight:500;font-size:8px;fill:rgb(70,88,114);">live-conﬁg: @LIVE_CONFIG_VERSION@</text>
            </g>
            <g transform="matrix(1,0,0,1,190.166,716.206)">
                <text x="0px" y="0px" style="font-family:'LucidaGrande', 'Lucida Grande', sans-serif;font-weight:500;font-size:8px;fill:rgb(70,88,114);">live-tools: @LIVE_TOOLS_VERSION@</text>
            </g>
        </g>
        <g id="g124" transform="matrix(1,0,0,1,-130.374,346.689)">
            <path id="path154" d="M264.025,375.611C250.703,372.526 245.9,370.217 240.257,364.183C236.522,360.191 234.369,356.486 232.873,351.476C231.774,347.798 231.029,347.885 230.299,351.776C229.532,355.863 226.562,361.284 223.83,363.583C220.383,366.483 215.683,368.671 206.062,371.854C196.423,375.044 196.458,375.052 193.448,369.112C187.272,356.923 188.693,346.042 197.629,337.106L201.572,333.163L198.674,333.763C197.08,334.093 193.228,334.34 190.115,334.313C180.784,334.23 173.231,330.023 167.176,321.538C163.25,316.037 163.294,315.809 169.317,310.358C177.831,302.653 187.551,298.014 195.184,298.014C199.521,298.014 206.452,299.819 212.305,302.473L216.922,304.566L214.38,300.352C210.427,293.8 208.615,286.924 209.112,280.358C209.343,277.297 210.223,273.292 211.11,271.263C212.743,267.529 220.159,256.014 220.932,256.014C221.171,256.014 225.245,259.811 229.986,264.451C236.81,271.131 239.091,273.904 240.932,277.764C244.013,284.219 245.199,290.364 244.603,296.776L244.125,301.926L247.761,298.657C257.25,290.127 268.007,287.509 286.338,289.268C294.252,290.028 294.159,289.742 290.207,301.129C284.768,316.8 278.622,325.651 270.301,329.798C268.131,330.879 265.376,331.764 264.178,331.764L262,331.764L265.771,335.89C273.017,343.818 275.332,351.444 274.681,365.235C274.281,373.685 273.431,377.643 272.061,377.431C271.767,377.385 268.15,376.566 264.025,375.611ZM234.598,337.236C233.676,337.058 231.988,337.053 230.848,337.224C229.708,337.397 230.463,337.542 232.525,337.548C234.588,337.554 235.521,337.413 234.598,337.235L234.598,337.236ZM240.625,335.801C244.653,333.766 248.74,329.133 248.62,326.738C248.604,326.409 248.055,327.151 247.401,328.389C245.5,331.986 244.019,333.362 240.025,335.238C237.963,336.206 236.714,337.002 237.25,337.006C237.786,337.009 239.305,336.468 240.625,335.801ZM224.275,335.393C223.45,334.94 221.466,333.347 219.865,331.854C217.378,329.533 217.142,329.433 218.243,331.169C219.532,333.201 223.615,336.247 225.025,336.228C225.438,336.223 225.1,335.847 224.275,335.393ZM247.756,314.694C245.734,310.788 241.13,307.206 237.4,306.637C235.145,306.293 235.253,306.393 238.168,307.348C242.056,308.622 246.158,312.285 247.636,315.802C248.194,317.129 248.713,319.998 248.789,322.177L248.928,326.139L249.207,322.088C249.424,318.942 249.1,317.291 247.756,314.694L247.756,314.694ZM215.43,320.326C215.251,319.398 215.105,320.157 215.105,322.014C215.105,323.87 215.251,324.629 215.43,323.701C215.608,322.773 215.608,321.254 215.43,320.326ZM220.239,311.042C221.221,310.164 223.038,308.912 224.275,308.26C225.513,307.607 226.255,307.06 225.926,307.044C222.809,306.887 215.611,314.33 215.667,317.652C215.676,318.195 216.306,317.289 217.068,315.639C217.829,313.989 219.256,311.92 220.239,311.042ZM228.947,306.561C228.698,306.311 228.051,306.285 227.51,306.501C226.911,306.741 227.089,306.918 227.963,306.954C228.753,306.987 229.196,306.81 228.947,306.56L228.947,306.561ZM232.697,305.811C232.448,305.561 231.801,305.535 231.26,305.751C230.661,305.991 230.839,306.168 231.713,306.204C232.503,306.237 232.946,306.06 232.697,305.811L232.697,305.811Z" style="fill:rgb(252,244,218);fill-rule:nonzero;"/>
            <path id="path152" d="M263.65,375.272C251.512,372.644 244.247,369.005 239.446,363.146C236.435,359.471 233.165,352.956 232.449,349.201C231.914,346.402 230.65,345.911 230.65,348.503C230.65,351.666 228.484,357.604 226.195,360.717C224.821,362.585 222.158,364.733 219.383,366.212C213.106,369.558 198.191,374.501 196.771,373.706C195.104,372.774 190.936,363.219 190.198,358.642C188.833,350.177 191.552,342.956 198.682,336.11C202.299,332.636 202.393,332.455 200.275,333.029C199.038,333.364 194.65,333.632 190.525,333.625C184.47,333.614 182.35,333.302 179.519,332.004C173.099,329.063 164.275,319.379 164.788,315.841C165.118,313.572 175.803,304.525 181.418,301.76C191.146,296.972 199.212,297.059 211.125,302.083L217.153,304.626L215.227,301.507C208.832,291.15 207.514,281.263 211.219,271.432C212.506,268.017 220.017,256.095 220.917,256.038C221.132,256.025 225.079,259.642 229.687,264.076C236.973,271.086 238.44,272.922 240.921,278.139C243.739,284.063 243.775,284.254 243.775,293.218L243.775,302.297L247.9,298.611C257.352,290.167 267.645,287.679 286.338,289.322C291.811,289.803 292.9,290.112 292.9,291.184C292.9,293.463 287.792,307.719 284.922,313.448C279.957,323.36 272.219,330.225 264.648,331.436L261.606,331.922L264.871,334.932C269.109,338.839 272.992,346.648 274.171,353.636C275.042,358.798 274.842,366.96 273.674,373.951C273.12,377.266 272.961,377.287 263.65,375.272ZM238.209,336.908C242.031,335.762 246.097,332.299 248.001,328.565C250.303,324.054 249.747,317.169 246.734,312.883C240.622,304.186 226.72,303.285 219.501,311.117C214.626,316.405 213.692,322.535 216.771,329.024C220.006,335.842 229.775,339.434 238.209,336.908Z" style="fill:rgb(207,208,208);fill-rule:nonzero;"/>
            <path id="path150" d="M263.65,374.85C247.879,371.238 240.348,366.247 235.566,356.238C234.16,353.296 232.778,349.619 232.495,348.068C231.858,344.577 230.65,343.642 230.65,346.64C230.65,350.35 227.825,358.231 225.479,361.067C224.26,362.54 221.265,364.81 218.823,366.111C213.299,369.056 198.646,374.019 197.161,373.448C196.554,373.216 194.82,370.407 193.306,367.207C190.778,361.862 190.553,360.839 190.54,354.639C190.522,346.131 192.176,342.549 199.132,336.04C201.823,333.522 203.369,331.713 202.566,332.02C201.763,332.328 198.681,332.956 195.715,333.417C189.561,334.374 184.241,333.622 178.68,331.008C172.733,328.212 164.047,318.347 164.97,315.437C165.671,313.228 175.531,305.143 181.06,302.243C191.982,296.515 199.093,296.94 215.905,304.325L218.785,305.59L216.882,303.095C215.835,301.723 213.864,298.246 212.502,295.369C210.187,290.48 210.025,289.623 210.025,282.229C210.025,274.589 210.121,274.128 212.83,268.729C214.373,265.654 216.849,261.501 218.331,259.499L221.027,255.859L223.435,258.374C224.76,259.757 227.902,262.649 230.418,264.801C239.962,272.963 244.61,283.28 243.969,294.879C243.771,298.459 243.353,301.989 243.041,302.723C242.729,303.456 244.351,302.223 246.647,299.982C251.422,295.319 259.353,291.049 265.703,289.719C270.484,288.718 291.13,289.193 292.267,290.33C293.229,291.293 288.064,306.309 284.171,313.869C278.971,323.966 272.506,329.402 263.345,331.38L261.165,331.851L263.816,334.037C267.373,336.968 270.979,342.744 272.817,348.453C273.957,351.992 274.314,355.065 274.274,361.014C274.216,369.851 273.398,376.167 272.275,376.459C271.863,376.566 267.982,375.842 263.65,374.85ZM239.487,336.602C243.654,334.866 247.692,330.529 249.106,326.269C251.445,319.228 247.958,311.297 240.89,307.584C236.253,305.148 228.494,305.246 223.517,307.805C211.141,314.166 212.41,331.986 225.579,336.762C229.095,338.037 236.239,337.955 239.487,336.602L239.487,336.602Z" style="fill:rgb(176,177,176);fill-rule:nonzero;"/>
            <path id="path148" d="M263.275,374.536C251.511,371.826 244.006,368.014 239.679,362.551C236.805,358.922 233.014,350.966 232.416,347.31C231.847,343.828 230.65,342.867 230.65,345.89C230.65,347.109 229.951,350.368 229.097,353.134C226.31,362.156 220.611,366.392 204.432,371.464L197.556,373.62L195.457,370.723C192.137,366.14 189.876,358.126 190.325,352.533C190.908,345.261 194.254,339.766 201.743,333.78C203.823,332.117 204.851,331.005 204.027,331.308C196.994,333.895 185.072,333.82 179.563,331.153C174.867,328.88 170.682,325.133 167.214,320.097L164.278,315.835L170.117,310.326C184.433,296.822 197.39,295.136 215.672,304.4L219.412,306.295L216.044,301.376C209.288,291.508 207.791,279.474 212.137,269.98C213.791,266.367 217.746,260.128 220.207,257.25C220.508,256.898 223.803,259.183 227.529,262.327C235.007,268.637 240.116,275.49 242.39,282.264C243.869,286.668 244.256,296.118 243.167,301.262L242.56,304.135L246.678,300.081C251.515,295.321 257.611,291.892 264.4,290.112C268.395,289.065 271.296,288.914 280.463,289.274C286.616,289.517 291.904,289.979 292.212,290.302C293.02,291.147 288.125,305.589 284.641,312.639C279.304,323.439 271.959,329.795 263.683,330.775L259.912,331.221L262.502,333.18C266.56,336.249 270.336,341.671 272.309,347.261C273.816,351.532 274.112,353.768 274.079,360.639C274.057,365.176 273.811,370.408 273.532,372.264C272.915,376.371 272.06,376.561 263.275,374.537L263.275,374.536ZM241.089,335.779C248.218,332.226 251.553,324.373 249.086,316.946C244.779,303.98 225.569,301.497 217.573,312.874C214.561,317.159 213.996,324.051 216.288,328.544C217.987,331.875 221.539,335.199 225.025,336.722C229.032,338.472 236.572,338.03 241.089,335.779Z" style="fill:rgb(142,146,144);fill-rule:nonzero;"/>
            <path id="path146" d="M264.4,374.501C252.292,371.913 245.989,368.88 240.641,363.069C236.837,358.935 235.089,355.62 232.828,348.255L231.105,342.639L230.169,348.129C228.58,357.449 225.13,362.575 217.998,366.214C213.47,368.524 198.588,373.246 197.342,372.768C195.871,372.204 192.873,366.245 191.25,360.663C188.167,350.057 192.517,340.336 204.057,332.045L206.275,330.451L200.65,331.908C186.269,335.633 174.495,331.191 166.426,318.998L164.312,315.803L169.993,310.443C173.637,307.006 177.738,304.036 181.428,302.163C186.416,299.632 188.012,299.2 193.422,298.916C200.529,298.543 205.206,299.624 213.983,303.669C219.528,306.225 219.689,306.133 216.68,302.119C210.401,293.744 208.22,282.741 211.015,273.539C212.242,269.498 217.808,259.778 220.559,256.869C220.902,256.507 229.245,263.754 233.695,268.279C237.928,272.584 241.411,278.811 243.002,284.92C244.413,290.335 244.442,294.801 243.104,300.487L242.08,304.836L247.053,300.036C256.503,290.913 265.103,288.355 282.877,289.38C290.901,289.843 292.15,290.087 292.15,291.192C292.15,291.894 291.001,295.882 289.596,300.053C283.159,319.168 274.644,329.197 263.56,330.716L260.167,331.181L264.065,334.867C268.796,339.342 272.203,345.523 273.443,351.883C274.37,356.636 274.076,371.977 273.005,374.701C272.399,376.244 272.576,376.249 264.4,374.501L264.4,374.501ZM241.433,335.64C250.728,330.413 252.764,319.081 245.797,311.354C242.132,307.289 238.151,305.547 232.525,305.547C225.241,305.547 219.292,308.89 216.342,314.643C213.22,320.73 214.14,326.958 218.939,332.237C224.741,338.618 233.721,339.977 241.433,335.64Z" style="fill:rgb(124,134,131);fill-rule:nonzero;"/>
            <path id="path144" d="M265.006,374.533C257.04,372.853 253.824,371.835 249.241,369.538C241.746,365.782 235.811,358.376 233.347,349.703C232.594,347.055 231.804,344.382 231.59,343.764C231.376,343.145 230.724,345.127 230.141,348.169C228.224,358.174 224.434,363.217 216.041,366.929C210.257,369.488 198.343,373.152 197.215,372.719C195.548,372.08 191.737,363.433 190.815,358.198C189.169,348.85 192.93,340.734 202.173,333.692C204.842,331.659 206.456,330.206 205.76,330.463C198.358,333.197 187.498,333.664 181.329,331.513C176.896,329.967 170.398,324.472 166.771,319.201L164.477,315.866L168.126,312.15C170.133,310.106 173.969,306.934 176.65,305.102C188.444,297.042 198.488,296.648 213.839,303.644C216.898,305.038 219.4,305.993 219.4,305.767C219.4,305.54 218.538,304.33 217.484,303.078C213.133,297.907 209.65,288.415 209.65,281.729C209.65,279.522 210.343,275.618 211.19,273.052C212.703,268.472 219.983,256.572 221.043,256.947C222.68,257.527 236.068,270.73 238.045,273.715C243.888,282.536 245.441,293.367 242.284,303.264C241.822,304.711 242.887,304.006 246.951,300.176C256.309,291.357 265.246,288.459 280.15,289.411C284.894,289.714 289.535,289.953 290.463,289.942C292.711,289.917 292.632,290.759 289.511,300.086C283.248,318.802 274.13,329.492 263.49,330.595C261.722,330.778 260.211,330.947 260.133,330.971C260.054,330.993 261.771,332.697 263.947,334.756C271.65,342.041 274.616,350.786 273.869,364.014C273.625,368.345 273.276,372.564 273.095,373.389C272.913,374.214 272.739,375.142 272.708,375.451C272.636,376.158 272.804,376.178 265.006,374.533ZM237.971,337.372C247.389,334.576 252.613,324.017 248.725,315.639C245.734,309.191 239.719,305.514 232.166,305.514C226.48,305.514 221.798,307.602 218.287,311.704C212.864,318.039 213.264,326.962 219.227,332.662C225.055,338.232 230.483,339.596 237.971,337.372Z" style="fill:rgb(110,113,111);fill-rule:nonzero;"/>
            <path id="path142" d="M264.4,374.092C243.64,369.686 236.438,362.915 231.742,343.389C231.277,341.455 231.056,341.97 230.165,347.055C228.416,357.041 225.161,362.143 218.275,365.692C215.415,367.167 198.793,373.014 197.461,373.014C196.356,373.014 191.698,362.314 190.886,357.911C189.098,348.223 194.007,339.008 204.716,331.947C208.857,329.217 208.847,329.07 204.625,330.559C200.455,332.031 195.119,332.758 189.174,332.667C180.481,332.532 173.755,328.515 167.071,319.463L164.356,315.787L169.097,311.331C183.478,297.814 195.542,295.6 212.709,303.33C216.292,304.944 219.43,306.264 219.682,306.264C219.934,306.264 218.994,304.761 217.592,302.925C212.15,295.795 209.143,286.703 209.929,279.749C210.804,272.007 212.902,267.524 220.652,256.843C221.112,256.208 235.359,269.922 237.555,273.114C242.716,280.614 244.667,289.683 243.074,298.764C242.531,301.857 242.15,304.465 242.227,304.559C242.304,304.653 244.542,302.607 247.202,300.012C256.196,291.236 267.222,288.019 282.925,289.588C287.691,290.065 291.761,290.624 291.969,290.832C292.642,291.505 286.122,309.504 283.496,314.22C278.144,323.833 270.144,330.174 263.008,330.458C261.299,330.527 259.9,330.704 259.9,330.853C259.9,331.002 261.686,332.757 263.87,334.752C271.501,341.726 274.639,350.804 273.856,363.639C273.605,367.764 273.146,372.179 272.837,373.451L272.275,375.764L264.4,374.092ZM238.529,337.271C242.945,335.767 248.088,330.866 249.39,326.921C252.954,316.121 244.076,305.041 232.122,305.37C226.59,305.522 222.858,307.025 219.227,310.563C206.384,323.079 220.965,343.256 238.529,337.271Z" style="fill:rgb(241,0,44);fill-rule:nonzero;"/>
            <path id="path140" d="M264.4,374.092C243.64,369.686 236.438,362.915 231.742,343.389C231.277,341.455 231.056,341.97 230.165,347.055C228.416,357.041 225.161,362.143 218.275,365.692C215.415,367.167 198.793,373.014 197.461,373.014C196.356,373.014 191.698,362.314 190.886,357.911C189.711,351.543 191.363,345.519 195.934,339.505C197.909,336.907 205.796,330.659 206.372,331.235C206.569,331.432 205.579,332.304 204.172,333.173C200.483,335.453 194.798,341.778 193.124,345.465C192.069,347.788 191.711,350.146 191.786,354.264L191.888,359.889L192.341,353.509C192.876,345.966 194.844,341.951 200.405,337.056C204.361,333.574 212.35,328.514 213.892,328.514C214.446,328.514 214.9,328.232 214.9,327.889C214.9,326.985 214.423,327.094 211.213,328.732C209.631,329.539 208.178,330.041 207.985,329.848C207.792,329.655 206.29,329.972 204.648,330.551C200.456,332.03 195.129,332.759 189.174,332.667C180.481,332.532 173.755,328.515 167.071,319.463L164.356,315.787L169.097,311.331C183.522,297.773 195.531,295.595 212.856,303.397C216.52,305.046 219.713,306.201 219.953,305.961C220.192,305.722 220.818,305.884 221.344,306.32C222.029,306.889 222.899,306.789 224.413,305.969C225.575,305.339 226.25,304.81 225.914,304.794C225.577,304.777 224.605,305.136 223.754,305.592C222.44,306.295 221.938,306.097 220.431,304.279C217.593,300.856 215.522,297.356 213.666,292.845C212.714,290.531 211.931,289.145 211.925,289.764C211.911,291.318 215.39,298.647 217.441,301.383C220.128,304.968 220.461,306.123 218.012,303.364C212.796,297.489 209.134,286.788 209.929,279.749C210.804,272.007 212.902,267.524 220.652,256.843C221.112,256.208 235.359,269.922 237.555,273.114C242.71,280.606 244.664,289.674 243.081,298.764C242.457,302.352 242.366,304.558 242.831,304.857C243.278,305.144 243.215,305.54 242.669,305.877C242.063,306.251 242.577,307.132 244.277,308.631L246.775,310.834L243.661,308.872C238.906,305.878 234.701,304.864 229.809,305.532C224.733,306.226 222.897,307.107 219.227,310.615C209.625,319.793 214.993,335.067 228.841,337.972C236.005,339.475 243.611,336.312 247.706,330.126C249.438,327.511 249.775,326.199 249.775,322.07C249.775,319.358 249.5,316.295 249.164,315.264C248.68,313.78 248.731,313.624 249.408,314.514C250.169,315.514 250.23,315.514 249.957,314.514C249.789,313.895 249.341,313.383 248.963,313.377C247.84,313.357 246.4,312.235 246.4,311.378C246.4,310.889 246.909,310.965 247.713,311.574C248.435,312.12 247.696,311.154 246.072,309.427L243.118,306.286L244.759,304.539C245.662,303.578 246.389,302.476 246.375,302.09C246.362,301.704 245.687,302.185 244.875,303.159C244.064,304.133 243.4,304.591 243.4,304.177C243.4,302.662 252.456,295.096 256.637,293.118C263.751,289.753 272.635,288.56 282.925,289.588C287.691,290.065 291.761,290.624 291.969,290.832C292.642,291.505 286.122,309.504 283.497,314.219C278.144,323.833 270.144,330.174 263.008,330.458C261.299,330.526 259.9,330.884 259.9,331.253C259.9,331.622 259.31,331.683 258.588,331.388C257.866,331.093 255.558,330.438 253.458,329.934L249.641,329.016L247.228,331.89C245.901,333.47 245.129,334.763 245.511,334.763C245.894,334.763 246.978,333.639 247.92,332.264L249.632,329.764L253.505,330.665C258.837,331.904 259.805,332.525 264.78,337.899C267.175,340.485 268.708,341.806 268.188,340.833C267.667,339.861 265.767,337.591 263.966,335.789C262.164,333.988 260.972,332.513 261.317,332.513C262.451,332.513 268.727,339.734 270.338,342.891C273.194,348.49 274.361,355.368 273.856,363.638C273.605,367.763 273.146,372.179 272.837,373.451L272.275,375.764L264.4,374.092ZM271.813,372.826C271.745,371.508 271.65,371.433 271.377,372.482C271.161,373.317 270.554,373.687 269.777,373.46C269.088,373.258 267.175,372.921 265.525,372.71C262.806,372.362 262.876,372.421 266.275,373.348C271.506,374.773 271.912,374.735 271.813,372.826ZM260.65,371.514C258.086,370.692 256.114,370.692 258.025,371.514C258.85,371.868 260.2,372.148 261.025,372.136C262.231,372.119 262.158,371.996 260.65,371.514ZM198.684,370.997C197.71,370.806 196.573,369.533 195.754,367.716C195.018,366.084 194.276,364.888 194.106,365.058C193.935,365.229 194.501,366.751 195.363,368.441C196.535,370.737 197.353,371.488 198.603,371.412C200.228,371.312 200.23,371.3 198.684,370.997ZM210.823,367.661C219.91,364.373 223.819,361.561 226.318,356.514C227.441,354.245 228.538,350.87 228.756,349.014C229.109,345.995 229.031,346.11 228.009,350.101C225.491,359.94 222.395,362.734 208.298,367.884C203.885,369.497 201.204,370.629 202.339,370.4C203.474,370.172 207.292,368.939 210.823,367.661ZM272.431,366.835C272.251,365.902 272.098,366.489 272.089,368.139C272.081,369.789 272.228,370.552 272.416,369.835C272.603,369.118 272.61,367.768 272.431,366.835L272.431,366.835ZM250.772,368.249C243.475,364.672 239.054,359.906 235.96,352.281C235.147,350.278 234.464,349.103 234.441,349.672C234.419,350.24 235.457,352.85 236.747,355.472C239.407,360.874 244.806,366.363 249.601,368.54C254.061,370.565 255.013,370.328 250.772,368.249ZM273.194,358.59C273.027,357.242 272.887,358.164 272.883,360.639C272.878,363.114 273.015,364.217 273.186,363.09C273.357,361.963 273.361,359.938 273.194,358.59L273.194,358.59ZM271.533,348.556C270.861,346.244 270.175,344.489 270.008,344.656C269.842,344.822 270.199,346.6 270.803,348.605C271.406,350.611 271.946,353.127 272.002,354.195C272.095,355.965 272.134,355.987 272.43,354.449C272.609,353.519 272.205,350.867 271.533,348.556L271.533,348.556ZM233.932,345.357C233.668,344.04 233.296,343.118 233.105,343.309C232.914,343.5 232.991,344.717 233.275,346.014C233.951,349.09 234.557,348.484 233.932,345.357L233.932,345.357ZM223.144,337.761C223.918,338.175 224.827,338.5 225.164,338.484C225.5,338.467 224.817,337.934 223.647,337.3C222.476,336.665 221.435,336.257 221.334,336.392C220.189,337.929 215.651,345.994 215.654,346.487C215.657,346.845 217.026,344.859 218.698,342.073C221.337,337.675 221.923,337.107 223.144,337.761ZM217.139,340.695L220.299,335.376L218.168,333.007C216.996,331.705 215.781,330.318 215.469,329.926C215.156,329.534 214.9,329.438 214.9,329.712C214.9,329.987 215.942,331.397 217.214,332.847L219.528,335.482L216.719,340.185C213.24,346.01 213.238,346.014 213.646,346.014C213.829,346.014 215.401,343.62 217.139,340.695L217.139,340.695ZM230.029,342.264C230.186,340.614 230.053,339.264 229.733,339.264C229.412,339.264 229.15,340.614 229.15,342.264C229.15,343.914 229.284,345.264 229.447,345.264C229.609,345.264 229.872,343.914 230.029,342.264ZM253.15,344.229C253.15,344.072 251.294,342.542 249.025,340.829C246.757,339.117 244.9,337.879 244.9,338.08C244.9,338.409 252.513,344.472 252.963,344.501C253.066,344.507 253.15,344.385 253.15,344.229L253.15,344.229ZM234.634,339.787C235.985,339.524 235.911,339.45 234.213,339.366C232.521,339.282 232.166,339.566 232.237,340.951C232.299,342.147 232.422,342.27 232.658,341.372C232.842,340.676 233.731,339.962 234.634,339.787ZM250.03,339.148C244.816,335.092 243.547,334.204 244.525,335.302C245.909,336.853 252.768,342.21 253.405,342.237C253.752,342.251 252.233,340.862 250.03,339.148ZM228.197,338.811C227.948,338.561 227.301,338.535 226.76,338.751C226.161,338.991 226.339,339.168 227.213,339.204C228.003,339.237 228.446,339.06 228.197,338.81L228.197,338.811ZM242.827,337.495C243.571,337.464 243.848,337.161 243.472,336.786C243.097,336.41 241.897,336.66 240.671,337.369C239.491,338.051 239.2,338.37 240.025,338.078C240.85,337.786 242.111,337.523 242.827,337.495ZM190.525,331.047C185.961,330.727 182.561,330.026 180.025,328.883C175.952,327.046 170.742,322.389 168.218,318.328L166.626,315.768L171.227,311.444C176.402,306.58 181.224,303.529 186.766,301.613C188.833,300.898 189.811,300.302 188.939,300.288C186.061,300.244 177.086,305.365 171.189,310.416L165.389,315.385L168.494,319.811C174.313,328.106 181.425,331.794 191.275,331.625L197.275,331.521L190.525,331.047ZM201.775,330.264C203.686,329.442 201.715,329.442 199.15,330.264C197.643,330.746 197.569,330.868 198.775,330.886C199.6,330.898 200.95,330.618 201.775,330.264ZM206.65,328.764C208.021,327.878 206.837,327.878 204.775,328.764C203.786,329.189 203.659,329.422 204.4,329.449C205.019,329.472 206.032,329.164 206.65,328.764ZM267.695,328.3C273.486,326.327 279.409,320.222 283.468,312.042C285.356,308.239 286.89,304.792 286.876,304.383C286.862,303.974 285.368,306.698 283.553,310.438C277.807,322.278 271.399,327.693 261.842,328.786C257.535,329.279 257.47,329.314 260.704,329.411C262.59,329.467 265.736,328.968 267.695,328.3ZM256.338,328.267C255.822,328.059 254.978,328.059 254.463,328.267C253.947,328.475 254.369,328.645 255.4,328.645C256.432,328.645 256.853,328.475 256.338,328.267ZM210.4,327.264C211.019,326.864 211.188,326.537 210.775,326.537C210.363,326.537 209.519,326.864 208.9,327.264C208.282,327.664 208.113,327.991 208.525,327.991C208.938,327.991 209.782,327.664 210.4,327.264ZM253.15,327.726C253.15,327.568 252.475,327.262 251.65,327.046C250.825,326.831 250.15,326.96 250.15,327.334C250.15,327.708 250.825,328.014 251.65,328.014C252.475,328.014 253.15,327.884 253.15,327.726ZM251.529,320.095C251.318,317.431 251.547,316.683 252.772,316.042C254.102,315.347 254.059,315.31 252.4,315.728C251.369,315.988 250.512,316.242 250.495,316.294C250.479,316.346 250.62,318.582 250.809,321.264C250.997,323.945 251.295,325.514 251.471,324.751C251.646,323.987 251.672,321.892 251.53,320.095L251.529,320.095ZM213.4,321.264C213.4,318.884 213.129,318.276 212.088,318.323C211.304,318.358 211.153,318.534 211.713,318.76C212.228,318.968 212.65,320.292 212.65,321.701C212.65,323.111 212.819,324.264 213.025,324.264C213.232,324.264 213.4,322.914 213.4,321.264ZM208.338,317.767C207.822,317.559 206.978,317.559 206.463,317.767C205.947,317.975 206.369,318.145 207.4,318.145C208.432,318.145 208.853,317.975 208.338,317.767ZM203.838,317.017C203.322,316.809 202.478,316.809 201.963,317.017C201.447,317.225 201.869,317.395 202.9,317.395C203.932,317.395 204.353,317.225 203.838,317.017ZM198.213,316.247C196.337,315.757 196.59,314.53 198.588,314.427C199.977,314.355 200.029,314.276 198.883,313.981C197.247,313.56 195.762,314.778 196.485,315.948C196.762,316.397 197.56,316.725 198.257,316.677C199.4,316.598 199.396,316.556 198.213,316.247L198.213,316.247ZM215.978,313.402C217.061,311.554 218.677,309.651 219.569,309.173C221.08,308.365 220.84,308.128 216.095,305.736C213.291,304.322 210.867,303.297 210.708,303.456C210.548,303.616 212.403,304.695 214.828,305.854L219.239,307.962L216.695,311.295C215.295,313.129 214.15,314.917 214.15,315.269C214.15,315.621 213.391,316.056 212.463,316.234C210.816,316.552 210.814,316.562 212.392,316.662C213.565,316.736 214.548,315.842 215.978,313.402ZM209.102,315.522C208.594,315.316 207.582,315.304 206.852,315.493C206.122,315.684 206.538,315.852 207.775,315.867C209.013,315.881 209.61,315.727 209.102,315.521L209.102,315.522ZM203.852,314.772C203.344,314.566 202.332,314.554 201.602,314.743C200.872,314.934 201.288,315.102 202.525,315.117C203.763,315.131 204.36,314.977 203.852,314.771L203.852,314.772ZM253.9,313.389C254.932,312.799 255.438,312.317 255.025,312.317C254.613,312.317 253.432,312.799 252.4,313.389C251.369,313.978 250.863,314.461 251.275,314.461C251.688,314.461 252.869,313.978 253.9,313.389ZM258.4,313.764C259.019,313.364 259.188,313.037 258.775,313.037C258.363,313.037 257.519,313.364 256.9,313.764C256.282,314.164 256.113,314.491 256.525,314.491C256.938,314.491 257.782,314.164 258.4,313.764ZM262.9,311.889C263.932,311.299 264.438,310.817 264.025,310.817C263.613,310.817 262.432,311.299 261.4,311.889C260.369,312.478 259.863,312.961 260.275,312.961C260.688,312.961 261.869,312.478 262.9,311.889ZM259.15,311.139C260.182,310.549 260.688,310.067 260.275,310.067C259.863,310.067 258.682,310.549 257.65,311.139C256.619,311.728 256.113,312.211 256.525,312.211C256.938,312.211 258.119,311.728 259.15,311.139ZM263.65,309.264C264.269,308.864 264.438,308.537 264.025,308.537C263.613,308.537 262.769,308.864 262.15,309.264C261.532,309.664 261.363,309.991 261.775,309.991C262.188,309.991 263.032,309.664 263.65,309.264ZM241.063,304.576C241.001,303.373 240.88,303.253 240.641,304.16C240.432,304.955 239.833,305.279 239.041,305.026C237.96,304.681 237.939,304.74 238.9,305.431C240.602,306.656 241.159,306.435 241.063,304.576ZM229.9,304.084C229.9,303.71 229.225,303.581 228.4,303.796C227.575,304.012 226.9,304.318 226.9,304.476C226.9,304.634 227.575,304.764 228.4,304.764C229.225,304.764 229.9,304.458 229.9,304.084ZM237.197,304.311C236.948,304.061 236.301,304.035 235.76,304.251C235.161,304.491 235.339,304.669 236.213,304.705C237.003,304.737 237.446,304.56 237.197,304.311L237.197,304.311ZM207.508,302.043C206.124,301.439 203.93,300.782 202.633,300.584C201.244,300.371 201.969,300.816 204.4,301.666C209.295,303.379 211.06,303.593 207.508,302.043ZM228.913,300.873C228.673,300.275 228.496,300.452 228.46,301.326C228.427,302.117 228.604,302.56 228.853,302.311C229.103,302.061 229.129,301.414 228.913,300.873L228.913,300.873ZM231.163,300.873C230.923,300.275 230.746,300.452 230.71,301.326C230.677,302.117 230.854,302.56 231.103,302.311C231.353,302.061 231.379,301.414 231.163,300.873L231.163,300.873ZM242.516,292.389C242.536,283.586 242.097,285.02 241.712,295.014C241.544,299.345 241.654,302.045 241.954,301.014C242.255,299.982 242.508,296.101 242.516,292.389L242.516,292.389ZM250.547,298.637C251.383,297.909 253.915,296.296 256.172,295.053C258.429,293.809 259.918,292.785 259.481,292.777C258.166,292.755 249.909,297.956 247.9,300.072C245.951,302.126 247.501,301.286 250.547,298.637ZM197.838,299.721C196.497,299.555 194.303,299.555 192.963,299.721C191.622,299.887 192.719,300.024 195.4,300.024C198.082,300.024 199.178,299.888 197.838,299.721ZM228.147,297.076C227.939,296.561 227.769,296.982 227.769,298.014C227.769,299.045 227.939,299.467 228.147,298.951C228.355,298.436 228.355,297.592 228.147,297.076ZM230.413,297.123C230.173,296.525 229.996,296.702 229.96,297.576C229.927,298.367 230.104,298.81 230.353,298.56C230.603,298.311 230.629,297.664 230.413,297.123L230.413,297.123ZM290.5,293.701C291.125,291.85 291.106,291.264 290.424,291.267C289.919,291.269 289.464,292.452 289.386,293.969C289.225,297.083 289.371,297.047 290.5,293.701L290.5,293.701ZM227.413,294.123C227.173,293.525 226.996,293.702 226.96,294.576C226.927,295.367 227.104,295.81 227.353,295.56C227.603,295.311 227.629,294.664 227.413,294.123L227.413,294.123ZM229.663,294.123C229.423,293.525 229.246,293.702 229.21,294.576C229.177,295.367 229.354,295.81 229.603,295.56C229.853,295.311 229.879,294.664 229.663,294.123L229.663,294.123ZM226.663,291.123C226.423,290.525 226.246,290.702 226.21,291.576C226.177,292.367 226.354,292.81 226.603,292.56C226.853,292.311 226.879,291.664 226.663,291.123L226.663,291.123ZM228.913,291.123C228.673,290.525 228.496,290.702 228.46,291.576C228.427,292.367 228.604,292.81 228.853,292.56C229.103,292.311 229.129,291.664 228.913,291.123L228.913,291.123ZM264.025,292.014C264.971,291.607 265.109,291.369 264.4,291.369C263.782,291.369 262.6,291.659 261.775,292.014C260.83,292.42 260.691,292.658 261.4,292.658C262.019,292.658 263.2,292.368 264.025,292.014ZM270.222,290.748C269.504,290.561 268.154,290.554 267.222,290.734C266.289,290.913 266.875,291.067 268.525,291.075C270.175,291.084 270.939,290.937 270.222,290.749L270.222,290.748ZM285.963,290.726C284.828,290.554 282.972,290.554 281.838,290.726C280.703,290.897 281.632,291.038 283.9,291.038C286.169,291.038 287.097,290.897 285.963,290.726ZM278.098,289.985C277.176,289.807 275.488,289.802 274.348,289.973C273.208,290.146 273.963,290.291 276.025,290.297C278.088,290.303 279.021,290.162 278.098,289.984L278.098,289.985ZM211.67,285.465C211.48,284.735 211.312,285.15 211.297,286.388C211.281,287.625 211.437,288.222 211.642,287.715C211.848,287.207 211.86,286.194 211.67,285.465L211.67,285.465ZM239.248,277.935C236.505,272.384 233.27,268.625 224.497,260.788L221.026,257.686L217.578,262.687C213.943,267.959 211.117,274.394 211.2,277.209C211.227,278.133 211.728,277.11 212.313,274.936C213.605,270.137 215.034,267.253 218.433,262.581L221.022,259.023L226.023,263.2C228.774,265.497 232.337,268.954 233.941,270.883C236.833,274.36 241.094,282.352 241.209,284.514C241.254,285.368 241.365,285.398 241.668,284.639C241.887,284.089 240.798,281.072 239.248,277.935L239.248,277.935Z" style="fill:rgb(219,2,43);fill-rule:nonzero;"/>
            <path id="path138" d="M264.4,374.092C243.64,369.686 236.438,362.915 231.742,343.389C231.277,341.455 231.056,341.97 230.165,347.055C228.416,357.041 225.161,362.143 218.275,365.692C215.415,367.167 198.793,373.014 197.461,373.014C196.356,373.014 191.698,362.314 190.886,357.911C189.098,348.223 194.007,339.008 204.716,331.947C208.857,329.217 208.847,329.07 204.625,330.559C200.455,332.031 195.119,332.758 189.174,332.667C180.481,332.532 173.755,328.515 167.071,319.463L164.356,315.787L169.097,311.331C183.478,297.814 195.542,295.6 212.709,303.33C216.292,304.944 219.43,306.264 219.682,306.264C219.934,306.264 218.994,304.761 217.592,302.925C212.15,295.795 209.143,286.703 209.929,279.749C210.804,272.007 212.902,267.524 220.652,256.843C221.112,256.208 235.359,269.922 237.555,273.114C242.716,280.614 244.667,289.683 243.074,298.764C242.531,301.857 242.15,304.465 242.227,304.559C242.304,304.653 244.542,302.607 247.202,300.012C255.648,291.771 265.706,288.498 279.961,289.351C284.188,289.604 288.407,290.125 289.336,290.509C290.52,290.999 290.016,291.051 287.65,290.682C285.794,290.392 280.563,290.154 276.025,290.152C262.569,290.146 253.188,293.899 245.722,302.275L242.032,306.415L245.23,309.527C246.989,311.238 248.752,313.243 249.148,313.981C249.815,315.223 250.466,315.073 257.884,311.965C262.293,310.118 265.9,308.886 265.9,309.228C265.9,309.57 262.441,311.271 258.213,313.008L250.525,316.166L250.525,322.052C250.525,328.815 250.138,328.479 258.775,329.219C272.293,330.378 281.572,320.988 288.846,298.786C290.397,294.054 291.782,290.534 291.925,290.964C292.371,292.302 286.17,309.405 283.493,314.219C278.151,323.828 270.145,330.174 263.008,330.458C261.299,330.526 259.9,330.704 259.9,330.853C259.9,331.002 261.686,332.757 263.87,334.752C271.501,341.726 274.639,350.804 273.856,363.639C273.605,367.764 273.146,372.179 272.837,373.451L272.275,375.764L264.4,374.092ZM272.416,371.701C272.737,370.154 272.988,365.176 272.975,360.639C272.956,354.023 272.614,351.435 271.251,347.576C267.912,338.127 261.576,331.555 254.141,329.827L249.909,328.843L247.06,331.991C245.494,333.722 244.212,335.307 244.212,335.514C244.212,335.72 246.419,337.52 249.117,339.515C251.815,341.509 253.855,343.309 253.649,343.514C253.444,343.72 251.029,342.122 248.282,339.963L243.289,336.039L240.709,337.269C239.29,337.946 236.784,338.714 235.14,338.977C231.712,339.525 231.656,339.751 233.336,346.28C236.17,357.295 242.069,365.114 250.432,368.942C253.753,370.463 267.796,374.237 270.929,374.452C271.426,374.486 272.095,373.248 272.416,371.701ZM217.466,365.003C224.71,361.344 227.765,356.476 229.473,345.871C230.026,342.443 230.432,339.615 230.376,339.585C229.608,339.181 221.309,336.366 221.223,336.481C221.158,336.567 219.668,338.933 217.913,341.737C216.157,344.54 214.569,346.682 214.383,346.497C214.198,346.311 215.419,343.898 217.098,341.135C218.777,338.371 220.15,335.86 220.15,335.553C220.15,335.247 219.427,334.353 218.544,333.567C216.113,331.406 213.416,325.042 213.408,321.451C213.404,319.698 213.294,318.264 213.163,318.264C213.033,318.264 211.092,317.945 208.851,317.556C206.609,317.167 203.096,316.641 201.044,316.387C198.992,316.133 197.163,315.777 196.981,315.595C195.92,314.533 198.392,314.608 205.766,315.861L214.069,317.271L214.935,315.18C215.412,314.029 216.929,311.927 218.308,310.507L220.815,307.926L215.42,305.336C206.135,300.879 202.419,299.888 195.025,299.898C188.97,299.907 187.74,300.16 183.068,302.364C177.883,304.81 173.535,307.895 168.248,312.881L165.47,315.5L168.535,319.869C176.153,330.729 186.713,334.027 201.813,330.262C205.505,329.342 209.485,328.097 210.658,327.496C215.139,325.199 213.232,327.281 207.26,331.203C197.26,337.773 193.369,342.468 191.68,350.004C190.749,354.161 191.761,360.276 194.35,366.13C197.258,372.705 196.648,372.552 206.456,369.17C211.241,367.52 216.195,365.645 217.466,365.003L217.466,365.003ZM238.529,337.271C242.945,335.767 248.088,330.866 249.39,326.921C252.954,316.121 244.076,305.041 232.122,305.37C226.59,305.522 222.858,307.025 219.227,310.563C206.384,323.079 220.965,343.256 238.529,337.271ZM224.65,305.889C225.682,305.299 227.285,304.805 228.213,304.79C230.257,304.758 230.266,304.382 228.4,297.264C227.589,294.17 226.92,290.992 226.913,290.201C226.887,287.329 227.906,289.884 229.477,296.636L231.083,303.538L234.804,304.425C236.851,304.912 239.046,305.535 239.683,305.808C242.359,306.957 243.65,290.402 241.46,283.028C239.833,277.549 235.182,270.422 230.457,266.168C228.295,264.221 225.281,261.464 223.761,260.042L220.996,257.455L217.879,262.045C209.975,273.684 208.712,283.79 213.778,294.855C215.739,299.138 221.246,307.036 222.237,306.987C222.533,306.973 223.619,306.478 224.65,305.889L224.65,305.889Z" style="fill:rgb(82,80,79);fill-rule:nonzero;"/>
            <path id="path136" d="M268.15,374.455C266.636,373.923 266.805,373.869 269.028,374.178C271.234,374.483 271.851,374.294 272.129,373.224C272.398,372.191 272.496,372.271 272.563,373.576C272.657,375.402 271.5,375.632 268.15,374.455L268.15,374.455ZM259.9,372.831C258.044,372.406 256.863,371.945 257.275,371.806C257.688,371.667 259.882,372.014 262.15,372.576C266.924,373.759 264.939,373.984 259.9,372.831L259.9,372.831ZM196.624,371.623C194.668,369.461 191.62,361.807 191.249,358.123L190.898,354.639L191.891,358.764C192.956,363.191 194.812,367.871 196.563,370.548L197.648,372.207L206.462,369.174C221.197,364.102 224.257,361.953 227.305,354.539C228.301,352.119 229.119,350.645 229.125,351.264C229.146,353.524 225.55,360.005 223.157,362.018C219.7,364.927 216.379,366.498 206.453,369.921C198.318,372.726 197.717,372.83 196.624,371.623ZM249.553,369.221C247.029,367.961 243.414,365.355 241.518,363.432C238.284,360.152 233.606,351.922 233.687,349.656C233.707,349.097 234.589,350.754 235.646,353.339C238.798,361.041 244.859,366.882 253.01,370.069C254.944,370.825 255.989,371.459 255.333,371.479C254.677,371.498 252.076,370.482 249.553,369.221ZM272.824,369.264C272.824,367.82 272.979,367.229 273.167,367.951C273.356,368.673 273.356,369.854 273.167,370.576C272.979,371.298 272.824,370.707 272.824,369.264ZM273.625,360.264C273.625,357.995 273.766,357.067 273.937,358.201C274.109,359.335 274.109,361.192 273.937,362.326C273.766,363.46 273.625,362.532 273.625,360.264ZM271.8,349.914C271.154,347.563 270.383,344.964 270.086,344.139C269.747,343.195 269.967,343.334 270.68,344.514C271.874,346.49 273.779,353.385 273.272,353.892C273.108,354.056 272.446,352.266 271.8,349.914ZM190.992,350.514C190.933,348.629 193.453,342.264 194.258,342.264C194.495,342.264 194.171,343.265 193.538,344.489C192.905,345.713 192.086,347.992 191.719,349.552C191.226,351.647 191.036,351.898 190.992,350.514ZM229.621,345.709C229.85,343.272 230.187,340.89 230.369,340.416C230.56,339.916 229.032,338.997 226.738,338.232C224.558,337.505 222.438,336.768 222.025,336.594C221.613,336.42 219.806,338.659 218.011,341.569C216.215,344.479 214.589,346.702 214.396,346.509C214.203,346.316 215.419,343.898 217.098,341.135C218.777,338.371 220.15,335.86 220.15,335.553C220.15,335.247 219.427,334.353 218.544,333.567C216.113,331.406 213.416,325.042 213.408,321.451C213.404,319.698 213.294,318.264 213.163,318.264C213.033,318.264 211.092,317.945 208.851,317.556C206.609,317.167 203.096,316.641 201.044,316.387C198.992,316.133 197.163,315.777 196.981,315.595C195.92,314.533 198.392,314.608 205.766,315.861L214.069,317.271L214.935,315.18C215.412,314.029 216.909,311.948 218.263,310.554C220.465,308.286 220.595,307.924 219.5,307.114C218.826,306.615 218.697,306.409 219.213,306.655C220.745,307.386 220.303,306.298 217.541,302.535C214.7,298.665 211.159,291.56 211.175,289.764C211.181,289.145 212.011,290.644 213.018,293.096C214.819,297.476 219.309,304.632 221.287,306.273C222.037,306.895 222.869,306.81 224.559,305.936C225.806,305.291 227.518,304.764 228.363,304.764C230.246,304.764 230.248,304.314 228.4,297.264C227.589,294.17 226.92,290.992 226.913,290.201C226.887,287.328 227.906,289.884 229.477,296.636L231.083,303.538L234.804,304.425C236.851,304.912 239.088,305.551 239.776,305.844C240.691,306.234 242.275,305.105 245.684,301.633L250.342,296.889L242.012,306.396L245.22,309.517C246.985,311.234 248.752,313.243 249.148,313.981C249.815,315.223 250.466,315.073 257.884,311.965C262.293,310.118 265.9,308.886 265.9,309.228C265.9,309.57 262.441,311.271 258.213,313.008L250.525,316.166L250.525,322.052C250.525,328.815 250.136,328.476 258.775,329.223C263.008,329.59 264.788,329.385 267.963,328.168C272.448,326.448 273.359,326.73 269.088,328.516C264.594,330.395 258.757,330.9 254.081,329.813L249.909,328.843L247.06,331.991C245.494,333.722 244.212,335.307 244.212,335.514C244.212,335.72 246.419,337.52 249.117,339.515C251.815,341.509 253.855,343.309 253.649,343.514C253.444,343.72 251.029,342.122 248.282,339.963L243.289,336.039L240.709,337.269C239.29,337.946 236.784,338.714 235.14,338.977C232.788,339.353 232.15,339.781 232.15,340.984C232.15,341.825 231.897,342.256 231.588,341.942C231.278,341.628 230.616,343.343 230.115,345.755L229.205,350.139L229.621,345.709ZM237.569,337.729C241.665,336.592 246.535,332.591 248.463,328.781C254.154,317.532 245.309,305.037 231.775,305.208C226.583,305.274 222.557,307.045 218.876,310.885C213.882,316.096 212.906,322.222 216.062,328.555C219.953,336.365 228.838,340.154 237.569,337.729ZM232.525,346.014C232.241,344.717 232.164,343.5 232.355,343.309C232.546,343.118 232.918,344.04 233.182,345.357C233.807,348.484 233.201,349.09 232.525,346.014ZM267.408,339.652C266.52,338.215 264.383,335.811 262.66,334.31C260.936,332.808 260.229,331.941 261.09,332.382C262.88,333.3 267.618,338.368 268.865,340.697C270.232,343.252 269.156,342.479 267.408,339.652ZM195.775,340.014C196.522,339.189 197.302,338.514 197.508,338.514C197.714,338.514 197.272,339.189 196.525,340.014C195.779,340.839 194.999,341.514 194.793,341.514C194.587,341.514 195.029,340.839 195.775,340.014ZM199.878,336.042C200.894,334.889 203.171,333.033 204.937,331.917C206.703,330.801 208.148,329.644 208.149,329.345C208.151,328.636 212.681,326.295 213.149,326.762C213.346,326.96 211.037,328.707 208.017,330.645C204.996,332.583 201.514,335.062 200.278,336.154L198.031,338.139L199.878,336.042ZM192.4,331.771C196.319,331.421 201.197,330.613 203.24,329.976C205.284,329.34 207.089,328.952 207.252,329.115C208.118,329.981 198.582,331.931 192.4,332.152L185.275,332.407L192.4,331.771ZM183.26,331.251C183.801,331.035 184.448,331.061 184.697,331.311C184.946,331.56 184.503,331.737 183.713,331.704C182.839,331.668 182.661,331.491 183.26,331.251L183.26,331.251ZM176.885,328.768C173.165,326.635 169.017,322.393 166.015,317.652L164.617,315.444L168.779,311.64C171.069,309.548 174.029,307.116 175.358,306.235L177.775,304.634L175.9,306.241C174.869,307.126 172.08,309.542 169.702,311.61L165.379,315.37L168.489,319.804C171.777,324.491 174.374,326.794 179.275,329.37C180.925,330.238 181.938,330.959 181.525,330.973C181.113,330.988 179.025,329.996 176.885,328.768ZM275.888,323.089C279.996,318.882 283.821,312.463 286.93,304.56C288.103,301.578 289.082,299.476 289.106,299.889C289.129,300.301 288.463,302.445 287.624,304.652C284.055,314.043 278.884,322.213 274.658,325.14C272.85,326.391 273.147,325.896 275.888,323.089ZM213.4,304.389C211.544,303.395 210.363,302.581 210.775,302.581C211.188,302.581 213.044,303.395 214.9,304.389C216.757,305.383 217.938,306.196 217.525,306.196C217.113,306.196 215.257,305.383 213.4,304.389ZM178.15,304.394C178.15,303.886 184.242,300.856 184.582,301.195C184.739,301.352 183.356,302.215 181.509,303.113C179.662,304.01 178.15,304.587 178.15,304.394L178.15,304.394ZM241.611,303.264C242.769,298.274 242.788,287.598 241.646,283.702C240.999,281.497 240.601,279.564 240.759,279.405C240.918,279.246 241.577,280.898 242.224,283.076C243.669,287.942 243.673,298.036 242.23,302.139C241.65,303.789 241.371,304.295 241.611,303.264L241.611,303.264ZM205.525,301.212C203.549,300.424 200.015,299.994 195.169,299.952C187.878,299.889 187.786,298.982 195.055,298.839C198.807,298.764 206.466,300.389 208.806,301.756C210.672,302.846 208.878,302.549 205.525,301.212L205.525,301.212ZM289.205,298.335C289.128,297.202 291.507,290.371 291.857,290.721C292.016,290.879 291.496,292.838 290.703,295.074C289.909,297.31 289.235,298.777 289.205,298.335ZM253.15,295.442C253.15,295.235 253.825,294.705 254.65,294.264C255.475,293.822 256.15,293.63 256.15,293.836C256.15,294.042 255.475,294.572 254.65,295.014C253.825,295.455 253.15,295.648 253.15,295.442ZM256.9,293.199C256.9,292.704 263.659,290.597 267.57,289.871C269.559,289.503 270.939,289.499 270.713,289.863C270.493,290.22 269.518,290.513 268.548,290.513C267.578,290.513 264.645,291.183 262.03,292.003C256.699,293.674 256.9,293.627 256.9,293.198L256.9,293.199ZM289.01,290.752C289.551,290.535 290.198,290.562 290.447,290.811C290.696,291.06 290.253,291.237 289.463,291.205C288.589,291.169 288.411,290.991 289.01,290.752L289.01,290.752ZM282.963,289.985C283.891,289.806 285.41,289.806 286.338,289.985C287.266,290.163 286.506,290.31 284.65,290.31C282.794,290.31 282.035,290.163 282.963,289.985ZM273.963,289.235C274.891,289.056 276.41,289.056 277.338,289.235C278.266,289.413 277.507,289.56 275.65,289.56C273.794,289.56 273.035,289.413 273.963,289.235ZM210.574,286.014C210.574,284.57 210.729,283.979 210.917,284.701C211.106,285.423 211.106,286.604 210.917,287.326C210.729,288.048 210.574,287.458 210.574,286.014ZM209.71,281.826C209.746,280.953 209.923,280.775 210.163,281.373C210.379,281.915 210.353,282.562 210.103,282.811C209.854,283.06 209.677,282.617 209.71,281.826L209.71,281.826ZM210.574,277.764C210.574,276.32 210.729,275.729 210.917,276.451C211.106,277.173 211.106,278.354 210.917,279.076C210.729,279.798 210.574,279.208 210.574,277.764ZM237.173,274.155C235.693,271.758 232.692,268.183 230.504,266.212C228.316,264.241 225.311,261.494 223.827,260.107C221.67,258.093 220.924,257.767 220.113,258.487C219.26,259.245 219.259,259.176 220.109,258.054C221.053,256.809 221.326,256.911 224.165,259.554C232.739,267.537 237.393,272.559 238.834,275.384C241.105,279.835 240.321,279.256 237.173,274.155L237.173,274.155ZM211.168,273.946C211.143,272.257 215.444,263.862 216.955,262.65C217.713,262.042 217.504,262.654 216.431,264.183C215.449,265.583 213.867,268.62 212.916,270.933C211.964,273.246 211.178,274.602 211.168,273.946Z" style="fill:rgb(206,0,21);fill-rule:nonzero;"/>
            <path id="path134" d="M270.4,374.717C271.019,374.481 271.773,373.917 272.076,373.464C272.416,372.955 272.632,373.142 272.639,373.951C272.646,374.833 272.097,375.244 270.963,375.204C269.835,375.165 269.649,375.003 270.4,374.717ZM267.26,374.001C267.801,373.785 268.448,373.811 268.697,374.061C268.946,374.31 268.503,374.487 267.713,374.454C266.839,374.418 266.661,374.241 267.26,374.001L267.26,374.001ZM196.658,371.619C195.404,370.186 193.137,365.862 193.18,364.988C193.197,364.659 193.74,365.401 194.387,366.639C197.405,372.409 197.252,372.308 201.056,371.012C202.94,370.37 204.626,369.989 204.802,370.166C204.979,370.342 203.46,371.018 201.428,371.668C198.033,372.753 197.647,372.749 196.658,371.619ZM259.76,372.501C260.301,372.285 260.948,372.311 261.197,372.561C261.446,372.81 261.003,372.987 260.213,372.955C259.339,372.919 259.161,372.741 259.76,372.501L259.76,372.501ZM250.338,369.666C248.172,368.658 246.4,367.64 246.4,367.404C246.4,367.168 247.465,367.526 248.767,368.199C250.069,368.872 252.347,369.87 253.83,370.416C255.312,370.961 256.019,371.428 255.4,371.453C254.782,371.479 252.503,370.674 250.338,369.666ZM272.824,369.264C272.824,367.82 272.979,367.229 273.167,367.951C273.356,368.673 273.356,369.854 273.167,370.576C272.979,371.298 272.824,370.707 272.824,369.264ZM211.15,367.764C211.769,367.364 212.613,367.037 213.025,367.037C213.438,367.037 213.269,367.364 212.65,367.764C212.032,368.164 211.188,368.491 210.775,368.491C210.363,368.491 210.532,368.164 211.15,367.764ZM214.9,366.264C215.519,365.864 216.363,365.537 216.775,365.537C217.188,365.537 217.019,365.864 216.4,366.264C215.782,366.664 214.938,366.991 214.525,366.991C214.113,366.991 214.282,366.664 214.9,366.264ZM243.025,365.045C241.677,363.897 241.401,363.441 242.337,363.906C243.712,364.589 246.29,367.058 245.555,366.987C245.401,366.973 244.263,366.098 243.025,365.045ZM192.118,362.86C191.861,362.189 191.672,361.247 191.698,360.765C191.724,360.283 192.069,360.697 192.464,361.685C192.859,362.673 193.048,363.616 192.884,363.78C192.72,363.944 192.375,363.53 192.118,362.86ZM273.625,360.264C273.625,357.995 273.766,357.067 273.937,358.201C274.109,359.336 274.109,361.192 273.937,362.326C273.766,363.461 273.625,362.533 273.625,360.264ZM223.519,361.011C227.076,356.856 227.125,356.81 226.311,358.389C225.886,359.214 224.579,360.731 223.407,361.761L221.275,363.633L223.519,361.011ZM237.384,358.242C236.155,356.305 235.154,354.364 235.159,353.929C235.164,353.494 236.036,354.656 237.096,356.511C238.156,358.365 239.374,360.306 239.804,360.823C240.233,361.34 240.366,361.764 240.101,361.764C239.835,361.764 238.612,360.179 237.384,358.242ZM191.047,357.639C191.062,356.401 191.23,355.986 191.42,356.715C191.61,357.445 191.598,358.458 191.392,358.965C191.187,359.473 191.031,358.876 191.047,357.639L191.047,357.639ZM226.923,356.139C226.923,355.726 227.25,354.882 227.65,354.264C228.05,353.645 228.377,353.476 228.377,353.889C228.377,354.301 228.05,355.145 227.65,355.764C227.25,356.382 226.923,356.551 226.923,356.139ZM272.769,352.764C272.769,351.732 272.939,351.311 273.147,351.826C273.355,352.342 273.355,353.186 273.147,353.701C272.939,354.217 272.769,353.795 272.769,352.764ZM228.46,351.576C228.495,350.702 228.673,350.525 228.913,351.123C229.129,351.664 229.103,352.311 228.853,352.561C228.604,352.81 228.427,352.367 228.46,351.576ZM234.118,351.61C233.861,350.939 233.672,349.997 233.698,349.515C233.724,349.033 234.069,349.447 234.464,350.435C234.859,351.423 235.048,352.366 234.884,352.53C234.72,352.694 234.375,352.28 234.118,351.61ZM191.019,349.764C191.019,348.732 191.189,348.31 191.397,348.826C191.605,349.342 191.605,350.185 191.397,350.701C191.189,351.217 191.019,350.795 191.019,349.764ZM271.96,349.326C271.996,348.452 272.173,348.275 272.413,348.873C272.629,349.414 272.603,350.061 272.353,350.31C272.104,350.56 271.927,350.117 271.96,349.326L271.96,349.326ZM229.269,348.264C229.269,347.232 229.439,346.81 229.647,347.326C229.855,347.842 229.855,348.685 229.647,349.201C229.439,349.717 229.269,349.295 229.269,348.264ZM191.65,347.226C191.65,346.421 193.882,342.264 194.314,342.264C194.52,342.264 194.131,343.36 193.449,344.701C192.057,347.438 191.65,348.009 191.65,347.226ZM214.15,346.402C214.15,346.203 215.539,343.771 217.237,340.997C219.161,337.854 220.079,335.639 219.674,335.117C217.243,331.976 214.15,326.785 214.15,325.844C214.15,325.226 215.023,326.471 216.09,328.611C217.157,330.752 219.044,333.226 220.284,334.109C221.524,334.992 222.221,335.922 221.833,336.176C221.445,336.431 219.696,338.917 217.947,341.701C215.053,346.307 214.15,347.424 214.15,346.402ZM232.21,344.826C232.246,343.952 232.423,343.775 232.663,344.373C232.879,344.914 232.853,345.561 232.603,345.81C232.354,346.06 232.177,345.617 232.21,344.826L232.21,344.826ZM230.023,343.764C229.812,339.886 230.656,338.506 233.175,338.616C234.941,338.693 235.106,338.799 233.838,339.043C232.762,339.25 232.15,339.909 232.15,340.86C232.15,341.681 231.836,342.158 231.451,341.92C231.067,341.683 230.611,342.422 230.439,343.563C230.141,345.531 230.12,345.542 230.023,343.763L230.023,343.764ZM248.275,339.968C245.8,337.933 243.269,336.398 242.65,336.556C242.032,336.714 240.85,337.086 240.025,337.383C239.2,337.68 239.707,337.178 241.15,336.267C242.594,335.356 244.788,333.717 246.025,332.625L248.275,330.639L246.08,333.068C244.873,334.405 244.029,335.611 244.205,335.748C244.381,335.886 246.635,337.597 249.213,339.55C251.791,341.503 253.9,343.25 253.9,343.432C253.9,344.288 252.423,343.378 248.275,339.968ZM194.65,341.23C194.65,341.075 195.241,340.484 195.963,339.918C197.152,338.985 197.179,339.012 196.246,340.201C195.266,341.45 194.65,341.848 194.65,341.23L194.65,341.23ZM264.326,336.242C262.016,333.816 260.666,332.126 261.326,332.486C262.509,333.131 266.164,336.893 268.094,339.451C269.882,341.821 268.593,340.723 264.326,336.242ZM225.4,337.764C224.029,336.878 225.214,336.878 227.275,337.764C228.264,338.189 228.392,338.422 227.65,338.449C227.032,338.472 226.019,338.163 225.4,337.764ZM236.51,338.001C237.051,337.785 237.698,337.811 237.947,338.06C238.196,338.31 237.753,338.487 236.963,338.454C236.089,338.418 235.911,338.241 236.51,338.001L236.51,338.001ZM200.65,335.138C201.619,334.107 202.581,333.263 202.787,333.263C202.993,333.263 202.369,334.107 201.4,335.138C200.432,336.17 199.47,337.013 199.264,337.013C199.058,337.013 199.682,336.17 200.65,335.138ZM188.483,331.963C190.247,331.805 192.947,331.807 194.483,331.969C196.019,332.13 194.575,332.26 191.275,332.257C187.975,332.254 186.719,332.122 188.483,331.964L188.483,331.963ZM198.213,331.267C198.728,331.059 199.572,331.059 200.088,331.267C200.603,331.475 200.182,331.645 199.15,331.645C198.119,331.645 197.697,331.475 198.213,331.267ZM179.65,330.263C179.032,329.864 178.863,329.536 179.275,329.536C179.688,329.536 180.532,329.864 181.15,330.263C181.769,330.663 181.938,330.99 181.525,330.99C181.113,330.99 180.269,330.663 179.65,330.263ZM203.65,329.888C207.075,328.57 208.422,328.589 205.525,329.917C204.288,330.483 202.769,330.937 202.15,330.924C201.532,330.912 202.207,330.446 203.65,329.89L203.65,329.888ZM253.924,329.791C250.747,329.064 249.578,329.053 248.739,329.745C247.8,330.518 247.789,330.386 248.657,328.763C249.208,327.732 249.918,324.863 250.236,322.388L250.812,317.888L250.33,327.927L254.027,328.72C256.06,329.156 259.451,329.513 261.562,329.513C263.673,329.513 265.26,329.637 265.088,329.788C264.16,330.605 257.484,330.607 253.924,329.791L253.924,329.791ZM208.15,329.552C208.15,329.139 209.146,328.287 210.363,327.658C212.942,326.324 213.672,326.217 213.022,327.269C212.292,328.449 208.15,330.39 208.15,329.552ZM174.652,327.36C171.82,325.308 168.58,321.648 165.9,317.473C164.687,315.583 164.719,315.51 168.223,312.223L171.775,308.888L168.556,312.325L165.336,315.761L168.725,320.364C170.589,322.896 173.472,325.867 175.132,326.965C177.843,328.76 178.659,329.513 177.888,329.513C177.743,329.513 176.287,328.544 174.652,327.36ZM268.213,328.49C268.385,328.34 269.369,327.815 270.4,327.324C272.168,326.482 272.192,326.497 270.819,327.597C269.625,328.554 267.184,329.391 268.213,328.49L268.213,328.49ZM276.113,322.998C278.433,320.666 281.246,316.613 283.224,312.75C285.024,309.235 286.609,306.472 286.747,306.611C287.206,307.069 282.259,316.333 279.629,319.939C278.205,321.892 275.968,324.247 274.658,325.172C273.065,326.297 273.547,325.577 276.113,322.998ZM213.589,321.638C213.598,319.988 213.751,319.402 213.931,320.335C214.11,321.268 214.103,322.618 213.916,323.335C213.728,324.052 213.581,323.289 213.59,321.638L213.589,321.638ZM204.4,316.944C200.482,316.326 197.135,315.695 196.963,315.542C195.945,314.635 198.182,314.672 204.328,315.666C208.153,316.285 212.097,316.858 213.092,316.941C215.377,317.13 215.493,318.298 213.213,318.165C212.285,318.111 208.319,317.561 204.4,316.944L204.4,316.944ZM249.105,315.691C248.495,313.259 243.493,308.161 240.216,306.631C238.874,306.004 238.39,305.664 239.142,305.875C239.894,306.086 241.244,305.88 242.142,305.419C243.466,304.739 243.603,304.763 242.865,305.544C242.141,306.312 242.617,307.135 245.193,309.574C246.974,311.259 248.754,313.243 249.15,313.981C249.815,315.223 250.467,315.072 257.884,311.965C262.293,310.118 265.9,308.876 265.9,309.206C265.9,309.536 262.441,311.235 258.213,312.981C253.985,314.728 250.317,316.494 250.062,316.906C249.807,317.319 249.377,316.772 249.105,315.691L249.105,315.691ZM214.903,315.434C214.902,314.909 216.235,313.032 217.866,311.263C220.762,308.12 220.805,307.995 219.695,305.856L218.559,303.666L220.409,305.404C221.974,306.874 222.511,307.007 223.894,306.267C224.793,305.786 225.694,305.557 225.896,305.759C226.098,305.961 225.541,306.356 224.658,306.636C222.488,307.325 217.962,311.376 216.278,314.138C215.523,315.376 214.905,315.959 214.903,315.434ZM173.275,307.764C174.022,306.939 174.802,306.264 175.008,306.264C175.214,306.264 174.772,306.939 174.025,307.764C173.279,308.589 172.499,309.264 172.293,309.264C172.087,309.264 172.529,308.589 173.275,307.764ZM228.213,304.984C230.254,304.591 230.259,304.356 228.4,297.264C227.589,294.17 226.931,290.964 226.936,290.139C226.954,287.411 228.13,290.513 229.495,296.889C230.201,300.189 231.262,303.267 231.852,303.73C232.722,304.413 232.48,304.66 230.568,305.043C229.273,305.302 227.833,305.468 227.369,305.412C226.905,305.355 227.285,305.163 228.213,304.984L228.213,304.984ZM234.963,305.017C235.478,304.809 236.322,304.809 236.838,305.017C237.353,305.225 236.932,305.395 235.9,305.395C234.869,305.395 234.447,305.225 234.963,305.017ZM178.15,304.441C178.15,304.235 178.825,303.705 179.65,303.264C180.475,302.822 181.15,302.63 181.15,302.836C181.15,303.042 180.475,303.572 179.65,304.014C178.825,304.455 178.15,304.648 178.15,304.441ZM211.9,303.639C210.869,303.049 210.363,302.567 210.775,302.567C211.188,302.567 212.369,303.049 213.4,303.639C214.432,304.228 214.938,304.71 214.525,304.71C214.113,304.71 212.932,304.228 211.9,303.639ZM246.369,300.826C248.208,298.867 249.811,297.264 249.931,297.264C250.495,297.264 249.899,297.937 246.588,301.045L243.025,304.389L246.369,300.826ZM217.055,301.951C216.122,300.762 216.148,300.735 217.338,301.668C218.06,302.234 218.65,302.825 218.65,302.98C218.65,303.598 218.034,303.2 217.055,301.951L217.055,301.951ZM287.715,302.889C287.793,301.468 289.043,299.076 289.086,300.264C289.109,300.882 288.8,301.895 288.4,302.514C288,303.132 287.692,303.301 287.715,302.889ZM241.96,301.326C241.996,300.452 242.173,300.275 242.413,300.873C242.629,301.414 242.603,302.061 242.353,302.311C242.104,302.56 241.927,302.117 241.96,301.326L241.96,301.326ZM201.213,299.767C201.728,299.559 202.572,299.559 203.088,299.767C203.603,299.975 203.182,300.145 202.15,300.145C201.119,300.145 200.697,299.975 201.213,299.767ZM214.9,298.764C214.459,297.939 214.266,297.264 214.473,297.264C214.679,297.264 215.209,297.939 215.65,298.764C216.092,299.589 216.284,300.264 216.078,300.264C215.872,300.264 215.342,299.589 214.9,298.764ZM192.963,298.971C194.303,298.805 196.497,298.805 197.838,298.971C199.178,299.138 198.082,299.274 195.4,299.274C192.719,299.274 191.622,299.138 192.963,298.971ZM242.824,297.264C242.824,295.82 242.979,295.229 243.167,295.951C243.356,296.673 243.356,297.854 243.167,298.576C242.979,299.298 242.824,298.707 242.824,297.264ZM212.772,294.607C211.516,291.849 211.755,291.26 213.114,293.768C213.749,294.938 214.127,296.037 213.956,296.208C213.784,296.38 213.252,295.659 212.772,294.607ZM290.715,293.514C290.692,292.895 291,291.882 291.4,291.264C292.286,289.893 292.286,291.077 291.4,293.139C290.975,294.128 290.742,294.255 290.715,293.514ZM266.852,289.994C267.582,289.804 268.594,289.816 269.102,290.022C269.61,290.228 269.013,290.383 267.775,290.368C266.538,290.354 266.122,290.185 266.852,289.995L266.852,289.994ZM283.722,289.983C284.654,289.803 286.004,289.81 286.722,289.997C287.439,290.184 286.675,290.331 285.025,290.323C283.375,290.314 282.789,290.161 283.722,289.982L283.722,289.983ZM242.797,287.888C242.812,286.651 242.98,286.235 243.17,286.965C243.36,287.695 243.348,288.707 243.142,289.215C242.937,289.723 242.781,289.126 242.796,287.888L242.797,287.888ZM273.963,289.234C274.891,289.055 276.41,289.055 277.338,289.234C278.266,289.413 277.507,289.559 275.65,289.559C273.794,289.559 273.035,289.413 273.963,289.234ZM210.46,287.076C210.495,286.202 210.673,286.024 210.913,286.622C211.129,287.164 211.103,287.811 210.853,288.06C210.604,288.309 210.427,287.866 210.46,287.076L210.46,287.076ZM241.96,284.076C241.996,283.202 242.173,283.024 242.413,283.622C242.629,284.164 242.603,284.811 242.353,285.06C242.104,285.309 241.927,284.866 241.96,284.076L241.96,284.076ZM209.71,281.826C209.746,280.952 209.923,280.775 210.163,281.373C210.379,281.914 210.353,282.561 210.103,282.811C209.854,283.06 209.677,282.617 209.71,281.826L209.71,281.826ZM240.868,281.11C240.144,279.224 240.358,278.737 241.242,280.257C241.68,281.01 241.88,281.784 241.687,281.977C241.494,282.17 241.125,281.78 240.868,281.11ZM237.034,273.546C236.325,272.464 236.115,271.808 236.568,272.088C237.434,272.623 239.18,275.514 238.638,275.514C238.465,275.514 237.743,274.628 237.034,273.546ZM211.9,271.484C211.9,270.674 214.879,265.014 215.306,265.014C215.512,265.014 214.957,266.448 214.073,268.201C212.335,271.649 211.9,272.305 211.9,271.484ZM229.9,265.593C226.807,262.651 225.625,261.288 227.275,262.565C230.187,264.818 236.55,271.05 235.865,270.978C235.678,270.959 232.994,268.535 229.9,265.593ZM215.65,263.98C215.65,263.825 216.241,263.234 216.963,262.668C218.152,261.735 218.179,261.762 217.246,262.951C216.266,264.2 215.65,264.598 215.65,263.98L215.65,263.98ZM222.393,258.629C221.677,257.767 221.206,257.699 220.426,258.346C219.862,258.814 219.4,259.029 219.4,258.822C219.4,258.616 219.855,258.07 220.411,257.608C221.183,256.968 221.744,257.124 222.778,258.266C223.523,259.09 223.953,259.764 223.733,259.764C223.514,259.764 222.91,259.253 222.393,258.629L222.393,258.629Z" style="fill:rgb(142,19,40);fill-rule:nonzero;"/>
            <path id="path132" d="M270.4,374.717C271.019,374.481 271.773,373.917 272.076,373.464C272.416,372.955 272.632,373.142 272.639,373.951C272.646,374.833 272.097,375.244 270.963,375.204C269.835,375.165 269.649,375.003 270.4,374.717ZM267.26,374.001C267.801,373.785 268.448,373.811 268.697,374.061C268.946,374.31 268.503,374.487 267.713,374.454C266.839,374.418 266.661,374.241 267.26,374.001L267.26,374.001ZM196.658,371.619C195.404,370.186 193.137,365.862 193.18,364.988C193.197,364.659 193.74,365.401 194.387,366.639C197.405,372.409 197.252,372.308 201.056,371.012C202.94,370.37 204.626,369.989 204.802,370.166C204.979,370.342 203.46,371.018 201.428,371.668C198.033,372.753 197.647,372.749 196.658,371.619ZM250.338,369.666C248.172,368.658 246.4,367.64 246.4,367.404C246.4,367.168 247.465,367.526 248.767,368.199C250.069,368.872 252.347,369.87 253.83,370.416C255.312,370.961 256.019,371.428 255.4,371.453C254.782,371.479 252.503,370.674 250.338,369.666ZM272.769,368.514C272.769,367.482 272.939,367.061 273.147,367.576C273.355,368.092 273.355,368.936 273.147,369.451C272.939,369.967 272.769,369.545 272.769,368.514ZM210.4,368.219C210.4,368.057 210.924,367.723 211.564,367.477C212.232,367.221 212.533,367.347 212.27,367.772C211.83,368.485 210.4,368.826 210.4,368.219ZM214.9,366.264C215.519,365.864 216.363,365.537 216.775,365.537C217.188,365.537 217.019,365.864 216.4,366.264C215.782,366.664 214.938,366.991 214.525,366.991C214.113,366.991 214.282,366.664 214.9,366.264ZM243.025,365.045C241.677,363.897 241.401,363.441 242.337,363.906C243.712,364.589 246.29,367.058 245.555,366.987C245.401,366.973 244.263,366.098 243.025,365.045ZM192.118,362.86C191.861,362.189 191.672,361.247 191.698,360.765C191.724,360.283 192.069,360.697 192.464,361.685C192.859,362.673 193.048,363.616 192.884,363.78C192.72,363.944 192.375,363.53 192.118,362.86ZM273.625,360.264C273.625,357.995 273.766,357.067 273.937,358.201C274.109,359.336 274.109,361.192 273.937,362.326C273.766,363.461 273.625,362.533 273.625,360.264ZM223.519,361.011C227.076,356.856 227.125,356.81 226.311,358.389C225.886,359.214 224.579,360.731 223.407,361.761L221.275,363.633L223.519,361.011ZM237.384,358.242C236.155,356.305 235.154,354.364 235.159,353.929C235.164,353.494 236.036,354.656 237.096,356.511C238.156,358.365 239.374,360.306 239.804,360.823C240.233,361.34 240.366,361.764 240.101,361.764C239.835,361.764 238.612,360.179 237.384,358.242ZM190.96,356.826C190.996,355.952 191.173,355.775 191.413,356.373C191.629,356.914 191.603,357.561 191.353,357.811C191.104,358.06 190.927,357.617 190.96,356.826L190.96,356.826ZM226.923,356.139C226.923,355.726 227.25,354.882 227.65,354.264C228.05,353.645 228.377,353.476 228.377,353.889C228.377,354.301 228.05,355.145 227.65,355.764C227.25,356.382 226.923,356.551 226.923,356.139ZM228.46,351.576C228.495,350.702 228.673,350.525 228.913,351.123C229.129,351.664 229.103,352.311 228.853,352.561C228.604,352.81 228.427,352.367 228.46,351.576ZM234.118,351.61C233.861,350.939 233.672,349.997 233.698,349.515C233.724,349.033 234.069,349.447 234.464,350.435C234.859,351.423 235.048,352.366 234.884,352.53C234.72,352.694 234.375,352.28 234.118,351.61ZM271.96,349.326C271.996,348.452 272.173,348.275 272.413,348.873C272.629,349.414 272.603,350.061 272.353,350.31C272.104,350.56 271.927,350.117 271.96,349.326L271.96,349.326ZM229.269,348.264C229.269,347.232 229.439,346.81 229.647,347.326C229.855,347.842 229.855,348.685 229.647,349.201C229.439,349.717 229.269,349.295 229.269,348.264ZM191.65,347.226C191.65,346.421 193.882,342.264 194.314,342.264C194.52,342.264 194.131,343.36 193.449,344.701C192.057,347.438 191.65,348.009 191.65,347.226ZM229.977,343.245C229.935,341.929 230.243,340.64 230.663,340.381C231.082,340.122 231.231,339.596 230.993,339.212C230.756,338.828 231.679,338.553 233.044,338.601C234.623,338.656 234.98,338.819 234.025,339.048C231.914,339.556 231.323,340.27 230.647,343.132L230.054,345.639L229.977,343.245ZM250.136,341.121C249.343,340.166 249.39,340.057 250.419,340.452C251.096,340.712 251.65,341.225 251.65,341.594C251.65,342.558 251.216,342.423 250.136,341.121L250.136,341.121ZM194.65,341.23C194.65,341.075 195.241,340.484 195.963,339.918C197.152,338.985 197.179,339.011 196.246,340.201C195.266,341.45 194.65,341.848 194.65,341.23L194.65,341.23ZM266.65,338.513C265.769,337.276 265.217,336.263 265.423,336.263C265.629,336.263 266.519,337.276 267.4,338.513C268.281,339.751 268.834,340.763 268.627,340.763C268.421,340.763 267.531,339.751 266.65,338.513ZM225.4,337.763C224.782,337.364 224.613,337.036 225.025,337.036C225.438,337.036 226.282,337.364 226.9,337.763C227.519,338.163 227.688,338.49 227.275,338.49C226.863,338.49 226.019,338.163 225.4,337.763ZM241.15,336.184C242.594,335.319 244.788,333.717 246.025,332.624L248.275,330.638L246.025,333.143C244.788,334.52 242.864,336.123 241.75,336.705C238.635,338.333 238.199,337.954 241.15,336.184ZM200.65,335.138C201.619,334.107 202.581,333.263 202.787,333.263C202.993,333.263 202.369,334.107 201.4,335.138C200.432,336.17 199.47,337.013 199.264,337.013C199.058,337.013 199.682,336.17 200.65,335.138ZM219.242,334.201C217.052,331.871 214.153,327.27 214.162,326.138C214.166,325.726 215.023,326.907 216.067,328.763C217.112,330.62 219.048,333.057 220.371,334.181C221.693,335.304 222.417,336.232 221.978,336.243C221.54,336.255 220.308,335.335 219.242,334.201ZM261.775,333.545C260.427,332.397 260.151,331.941 261.087,332.406C262.462,333.089 265.04,335.558 264.305,335.486C264.151,335.472 263.013,334.598 261.775,333.545ZM189.963,332.017C190.478,331.809 191.322,331.809 191.838,332.017C192.353,332.225 191.932,332.395 190.9,332.395C189.869,332.395 189.447,332.225 189.963,332.017ZM198.213,331.267C198.728,331.059 199.572,331.059 200.088,331.267C200.603,331.475 200.182,331.645 199.15,331.645C198.119,331.645 197.697,331.475 198.213,331.267ZM179.65,330.264C179.032,329.864 178.863,329.537 179.275,329.537C179.688,329.537 180.532,329.864 181.15,330.264C181.769,330.664 181.938,330.991 181.525,330.991C181.113,330.991 180.269,330.664 179.65,330.264ZM203.263,330.284C203.463,329.959 204.308,329.516 205.14,329.298C205.972,329.081 206.488,329.168 206.288,329.492C206.088,329.817 205.243,330.26 204.411,330.477C203.579,330.695 203.062,330.608 203.263,330.284L203.263,330.284ZM257.65,330.437C257.65,330.104 258.729,329.75 260.049,329.649C262.826,329.438 262.677,329.836 259.713,330.547C258.578,330.819 257.65,330.769 257.65,330.437L257.65,330.437ZM248.893,328.013C249.477,326.569 250.164,324.882 250.419,324.263C250.674,323.644 250.684,324.319 250.441,325.763C250.198,327.207 249.511,328.894 248.915,329.513C247.968,330.495 247.965,330.304 248.893,328.013ZM174.652,327.359C171.82,325.307 168.58,321.647 165.9,317.472C164.687,315.583 164.719,315.51 168.223,312.222L171.775,308.888L168.556,312.324L165.336,315.76L168.725,320.364C170.589,322.896 173.472,325.866 175.132,326.965C177.843,328.759 178.659,329.513 177.888,329.513C177.743,329.513 176.287,328.544 174.652,327.359ZM208.525,328.932C208.938,328.519 210.119,327.937 211.15,327.638C212.4,327.276 212.775,327.344 212.275,327.844C211.863,328.257 210.682,328.839 209.65,329.138C208.4,329.5 208.025,329.432 208.525,328.932L208.525,328.932ZM268.213,328.49C268.385,328.339 269.369,327.814 270.4,327.323C272.168,326.481 272.192,326.497 270.819,327.597C269.625,328.554 267.184,329.39 268.213,328.49L268.213,328.49ZM276.113,322.997C278.433,320.666 281.246,316.612 283.224,312.75C285.024,309.235 286.609,306.472 286.747,306.61C287.206,307.069 282.259,316.332 279.629,319.939C278.205,321.892 275.968,324.247 274.658,325.172C273.065,326.297 273.547,325.576 276.113,322.997ZM213.589,321.638C213.598,319.988 213.751,319.401 213.931,320.334C214.11,321.267 214.103,322.617 213.916,323.334C213.728,324.051 213.581,323.288 213.59,321.638L213.589,321.638ZM250.21,321.575C250.246,320.702 250.423,320.524 250.663,321.122C250.879,321.664 250.853,322.311 250.603,322.56C250.354,322.809 250.177,322.366 250.21,321.575L250.21,321.575ZM248.261,314.013C247.464,312.534 245.35,310.207 243.563,308.843C240.328,306.372 240.321,306.358 242.045,305.44C243.569,304.627 243.662,304.654 242.827,305.668C242.028,306.636 242.284,307.127 244.443,308.774C246.912,310.657 250.647,315.767 250.015,316.398C249.847,316.566 249.058,315.493 248.261,314.013L248.261,314.013ZM215.475,314.138C215.916,313.313 217.485,311.476 218.961,310.056C220.942,308.151 221.4,307.3 220.71,306.811C219.983,306.296 219.996,306.207 220.769,306.412C222.26,306.807 221.784,307.771 218.062,311.888C216.198,313.95 215.034,314.963 215.475,314.138L215.475,314.138ZM173.275,307.764C174.022,306.939 174.802,306.264 175.008,306.264C175.214,306.264 174.772,306.939 174.025,307.764C173.279,308.589 172.499,309.264 172.293,309.264C172.087,309.264 172.529,308.589 173.275,307.764ZM223.9,306.264C224.519,305.864 225.363,305.537 225.775,305.537C226.188,305.537 226.019,305.864 225.4,306.264C224.782,306.664 223.938,306.991 223.525,306.991C223.113,306.991 223.282,306.664 223.9,306.264ZM227.51,305.001C228.051,304.785 228.698,304.811 228.947,305.061C229.196,305.31 228.753,305.487 227.963,305.454C227.089,305.418 226.911,305.241 227.51,305.001L227.51,305.001ZM235.76,305.001C236.301,304.785 236.948,304.811 237.197,305.061C237.446,305.31 237.003,305.487 236.213,305.454C235.339,305.418 235.161,305.241 235.76,305.001L235.76,305.001ZM178.15,304.441C178.15,304.235 178.825,303.705 179.65,303.264C180.475,302.822 181.15,302.63 181.15,302.836C181.15,303.042 180.475,303.572 179.65,304.014C178.825,304.455 178.15,304.648 178.15,304.441ZM211.9,303.639C210.869,303.049 210.363,302.567 210.775,302.567C211.188,302.567 212.369,303.049 213.4,303.639C214.432,304.228 214.938,304.71 214.525,304.71C214.113,304.71 212.932,304.228 211.9,303.639ZM230.463,304.267C230.978,304.059 231.822,304.059 232.338,304.267C232.853,304.475 232.432,304.645 231.4,304.645C230.369,304.645 229.947,304.475 230.463,304.267ZM246.369,300.826C248.208,298.867 249.811,297.264 249.931,297.264C250.495,297.264 249.899,297.937 246.588,301.045L243.025,304.389L246.369,300.826ZM217.055,301.951C216.122,300.762 216.148,300.735 217.338,301.668C218.06,302.234 218.65,302.825 218.65,302.98C218.65,303.598 218.034,303.2 217.055,301.951L217.055,301.951ZM287.715,302.889C287.793,301.468 289.043,299.076 289.086,300.264C289.109,300.882 288.8,301.895 288.4,302.514C288,303.132 287.692,303.301 287.715,302.889ZM201.213,299.767C201.728,299.559 202.572,299.559 203.088,299.767C203.603,299.975 203.182,300.145 202.15,300.145C201.119,300.145 200.697,299.975 201.213,299.767ZM214.9,298.764C214.459,297.939 214.266,297.264 214.473,297.264C214.679,297.264 215.209,297.939 215.65,298.764C216.092,299.589 216.284,300.264 216.078,300.264C215.872,300.264 215.342,299.589 214.9,298.764ZM191.852,298.994C192.582,298.804 193.594,298.816 194.102,299.022C194.61,299.228 194.013,299.383 192.775,299.368C191.538,299.354 191.122,299.185 191.852,298.994L191.852,298.994ZM197.102,298.994C197.832,298.804 198.844,298.816 199.352,299.022C199.86,299.228 199.263,299.383 198.025,299.368C196.788,299.354 196.372,299.185 197.102,298.994L197.102,298.994ZM212.772,294.606C211.516,291.848 211.755,291.26 213.114,293.767C213.749,294.938 214.127,296.037 213.956,296.208C213.784,296.38 213.252,295.659 212.772,294.606ZM290.715,293.514C290.692,292.895 291,291.882 291.4,291.264C292.286,289.893 292.286,291.077 291.4,293.139C290.975,294.128 290.742,294.255 290.715,293.514ZM283.01,290.001C283.551,289.785 284.198,289.811 284.447,290.06C284.696,290.31 284.253,290.487 283.463,290.454C282.589,290.418 282.411,290.241 283.01,290.001L283.01,290.001ZM274.722,289.233C275.654,289.054 277.004,289.06 277.722,289.247C278.439,289.435 277.675,289.582 276.025,289.573C274.375,289.565 273.789,289.412 274.722,289.232L274.722,289.233ZM210.46,287.076C210.495,286.202 210.673,286.025 210.913,286.623C211.129,287.164 211.103,287.811 210.853,288.06C210.604,288.31 210.427,287.867 210.46,287.076L210.46,287.076ZM209.71,281.826C209.746,280.952 209.923,280.775 210.163,281.373C210.379,281.914 210.353,282.561 210.103,282.81C209.854,283.06 209.677,282.617 209.71,281.826L209.71,281.826ZM240.868,281.11C240.144,279.224 240.358,278.737 241.242,280.257C241.68,281.01 241.88,281.784 241.687,281.977C241.494,282.17 241.125,281.78 240.868,281.11ZM237.034,273.546C236.325,272.464 236.115,271.808 236.568,272.088C237.434,272.623 239.18,275.514 238.638,275.514C238.465,275.514 237.743,274.628 237.034,273.546ZM211.9,271.484C211.9,270.674 214.879,265.014 215.306,265.014C215.512,265.014 214.957,266.448 214.073,268.201C212.335,271.649 211.9,272.305 211.9,271.484ZM230.726,266.401C228.087,263.893 226.568,262.192 227.351,262.621C228.756,263.39 236.545,271.038 235.872,270.988C235.681,270.973 233.366,268.909 230.726,266.401ZM215.65,263.98C215.65,263.825 216.241,263.234 216.963,262.668C218.152,261.735 218.179,261.762 217.246,262.951C216.266,264.2 215.65,264.598 215.65,263.98L215.65,263.98ZM222.393,258.629C221.677,257.767 221.206,257.699 220.426,258.346C219.862,258.814 219.4,259.029 219.4,258.822C219.4,258.616 219.855,258.07 220.411,257.608C221.183,256.968 221.744,257.124 222.778,258.266C223.523,259.09 223.953,259.764 223.733,259.764C223.514,259.764 222.91,259.253 222.393,258.629L222.393,258.629Z" style="fill:rgb(176,0,15);fill-rule:nonzero;"/>
            <path id="path130" d="M271.96,374.076C271.996,373.202 272.173,373.025 272.413,373.623C272.629,374.164 272.603,374.811 272.353,375.061C272.104,375.31 271.927,374.867 271.96,374.076L271.96,374.076ZM196.756,371.701C195.434,370.162 194.443,368.514 194.84,368.514C194.993,368.514 195.867,369.526 196.782,370.764C198.589,373.209 198.573,373.817 196.756,371.701L196.756,371.701ZM250.9,370.014C250.282,369.614 250.113,369.287 250.525,369.287C250.938,369.287 251.782,369.614 252.4,370.014C253.019,370.414 253.188,370.741 252.775,370.741C252.363,370.741 251.519,370.414 250.9,370.014ZM244.055,365.701C243.122,364.512 243.148,364.485 244.338,365.418C245.06,365.984 245.65,366.575 245.65,366.73C245.65,367.348 245.034,366.95 244.055,365.701L244.055,365.701ZM273.625,360.264C273.625,357.995 273.766,357.067 273.937,358.201C274.109,359.336 274.109,361.192 273.937,362.326C273.766,363.461 273.625,362.533 273.625,360.264ZM221.65,363.029C221.65,362.9 222.747,361.803 224.088,360.591L226.525,358.389L224.322,360.826C222.269,363.098 221.65,363.608 221.65,363.029ZM238.805,360.451C237.872,359.262 237.898,359.235 239.088,360.168C239.81,360.734 240.4,361.325 240.4,361.48C240.4,362.098 239.784,361.7 238.805,360.451L238.805,360.451ZM236.239,356.444C235.58,355.168 235.173,353.991 235.336,353.828C235.498,353.666 236.193,354.71 236.879,356.148C238.421,359.383 237.887,359.63 236.239,356.444ZM229.21,348.576C229.245,347.702 229.423,347.525 229.663,348.123C229.879,348.664 229.853,349.311 229.603,349.561C229.354,349.81 229.177,349.367 229.21,348.576L229.21,348.576ZM229.96,344.076C229.995,343.202 230.173,343.025 230.413,343.623C230.629,344.164 230.603,344.811 230.353,345.061C230.104,345.31 229.927,344.867 229.96,344.076L229.96,344.076ZM250.055,340.951C249.122,339.762 249.148,339.735 250.338,340.668C251.587,341.648 251.984,342.264 251.367,342.264C251.211,342.264 250.621,341.673 250.055,340.951L250.055,340.951ZM231.213,338.767C231.728,338.559 232.572,338.559 233.088,338.767C233.603,338.975 233.182,339.145 232.15,339.145C231.119,339.145 230.697,338.975 231.213,338.767ZM265.805,337.201C264.872,336.012 264.898,335.985 266.088,336.918C267.337,337.898 267.734,338.514 267.117,338.514C266.961,338.514 266.371,337.923 265.805,337.201L265.805,337.201ZM220.588,335.033C220.193,334.003 220.303,333.957 221.258,334.749C222.56,335.829 222.695,336.264 221.731,336.264C221.362,336.264 220.848,335.71 220.588,335.033ZM242.275,335.787C242.688,335.424 244.205,334.117 245.648,332.883L248.27,330.639L246.398,332.77C245.368,333.942 243.85,335.249 243.025,335.674C242.2,336.099 241.863,336.15 242.275,335.787ZM200.65,335.23C200.65,335.075 201.241,334.484 201.963,333.918C203.152,332.985 203.179,333.012 202.246,334.201C201.266,335.45 200.65,335.848 200.65,335.23L200.65,335.23ZM262.454,333.826L261.025,332.139L262.713,333.567C263.641,334.353 264.4,335.113 264.4,335.255C264.4,335.855 263.797,335.412 262.454,333.826ZM215.642,329.326C214.825,327.986 214.155,326.579 214.153,326.201C214.15,325.346 214.256,325.487 216.24,328.951C218.212,332.396 217.707,332.713 215.642,329.326ZM257.65,330.437C257.65,330.105 258.729,329.75 260.049,329.65C262.826,329.438 262.677,329.836 259.713,330.547C258.578,330.82 257.65,330.77 257.65,330.437L257.65,330.437ZM208.563,328.848C208.955,328.482 210.119,327.961 211.15,327.692L213.025,327.201L211.15,328.331C209.061,329.59 207.417,329.918 208.563,328.848ZM249.183,327.264C249.399,326.439 249.705,325.764 249.863,325.764C250.021,325.764 250.15,326.439 250.15,327.264C250.15,328.089 249.844,328.764 249.471,328.764C249.097,328.764 248.967,328.089 249.183,327.264ZM171.36,324.451L168.775,321.639L171.588,324.223C174.206,326.629 174.745,327.264 174.172,327.264C174.047,327.264 172.781,325.998 171.36,324.451ZM276.4,323.139C277.369,322.107 278.331,321.264 278.537,321.264C278.743,321.264 278.119,322.107 277.15,323.139C276.181,324.17 275.22,325.014 275.014,325.014C274.808,325.014 275.431,324.17 276.4,323.139ZM213.46,321.576C213.496,320.702 213.673,320.525 213.913,321.123C214.129,321.664 214.103,322.311 213.853,322.561C213.604,322.81 213.427,322.367 213.46,321.576L213.46,321.576ZM250.21,321.576C250.246,320.702 250.423,320.525 250.663,321.123C250.879,321.664 250.853,322.311 250.603,322.561C250.354,322.81 250.177,322.367 250.21,321.576L250.21,321.576ZM166.9,319.014C166.019,317.776 165.467,316.764 165.673,316.764C165.879,316.764 166.769,317.776 167.65,319.014C168.531,320.251 169.084,321.264 168.877,321.264C168.671,321.264 167.781,320.251 166.9,319.014ZM278.65,320.23C278.65,320.075 279.241,319.484 279.963,318.918C281.152,317.985 281.179,318.012 280.246,319.201C279.266,320.45 278.65,320.848 278.65,320.231L278.65,320.23ZM281.65,316.014C282.092,315.189 282.622,314.514 282.828,314.514C283.034,314.514 282.842,315.189 282.4,316.014C281.959,316.839 281.429,317.514 281.223,317.514C281.016,317.514 281.209,316.839 281.65,316.014ZM249.074,315.484C248.667,314.415 248.753,314.328 249.493,315.064C250.006,315.572 250.236,316.178 250.005,316.409C249.775,316.64 249.355,316.223 249.074,315.484ZM167.619,312.826C169.458,310.867 171.061,309.264 171.181,309.264C171.745,309.264 171.149,309.937 167.838,313.045L164.275,316.389L167.619,312.826ZM218.907,310.287C220.937,308.101 221.491,307.066 220.782,306.783C220.13,306.524 220.09,306.361 220.669,306.323C222.696,306.189 222.156,307.69 219.182,310.454L216.025,313.389L218.907,310.287ZM242.12,307.832C240.536,306.51 240.549,305.514 242.15,305.514C242.563,305.514 242.675,305.739 242.399,306.015C242.123,306.291 242.456,307.135 243.14,307.89C244.722,309.639 244.252,309.612 242.12,307.832L242.12,307.832ZM285.423,308.889C285.423,308.476 285.75,307.632 286.15,307.014C286.55,306.395 286.877,306.226 286.877,306.639C286.877,307.051 286.55,307.895 286.15,308.514C285.75,309.132 285.423,309.301 285.423,308.889ZM172.9,308.23C172.9,308.075 173.491,307.484 174.213,306.918C175.402,305.985 175.429,306.012 174.496,307.201C173.516,308.45 172.9,308.848 172.9,308.23L172.9,308.23ZM246.369,300.826C248.208,298.867 249.811,297.264 249.931,297.264C250.495,297.264 249.899,297.937 246.588,301.045L243.025,304.389L246.369,300.826ZM191.852,298.994C192.582,298.804 193.594,298.816 194.102,299.022C194.61,299.228 194.013,299.383 192.775,299.368C191.538,299.354 191.122,299.185 191.852,298.994L191.852,298.994ZM197.102,298.994C197.832,298.804 198.844,298.816 199.352,299.022C199.86,299.228 199.263,299.383 198.025,299.368C196.788,299.354 196.372,299.185 197.102,298.994L197.102,298.994ZM274.722,289.233C275.654,289.054 277.004,289.061 277.722,289.247C278.439,289.435 277.675,289.582 276.025,289.574C274.375,289.565 273.789,289.412 274.722,289.232L274.722,289.233ZM209.71,281.826C209.746,280.952 209.923,280.775 210.163,281.373C210.379,281.914 210.353,282.561 210.103,282.811C209.854,283.06 209.677,282.617 209.71,281.826L209.71,281.826ZM236.555,272.701C235.622,271.512 235.648,271.485 236.838,272.418C238.087,273.398 238.484,274.014 237.867,274.014C237.711,274.014 237.121,273.423 236.555,272.701L236.555,272.701ZM231.375,266.701L227.275,262.389L231.588,266.488C235.594,270.296 236.244,271.014 235.687,271.014C235.57,271.014 233.629,269.073 231.375,266.701ZM221.954,258.076L220.525,256.389L222.213,257.817C223.799,259.16 224.242,259.764 223.642,259.764C223.499,259.764 222.74,259.004 221.954,258.076Z" style="fill:rgb(101,23,34);fill-rule:nonzero;"/>
            <path id="path128" d="M196.135,371.121C195.613,370.492 195.332,369.832 195.509,369.655C195.687,369.477 196.244,369.992 196.748,370.798C197.836,372.541 197.473,372.733 196.135,371.121ZM223.15,361.389C224.119,360.357 225.081,359.514 225.287,359.514C225.493,359.514 224.869,360.357 223.9,361.389C222.932,362.42 221.97,363.264 221.764,363.264C221.558,363.264 222.182,362.42 223.15,361.389ZM238.805,360.451C237.872,359.262 237.898,359.235 239.088,360.168C239.81,360.734 240.4,361.325 240.4,361.48C240.4,362.098 239.784,361.7 238.805,360.451L238.805,360.451ZM236.994,357.964C236.723,357.524 236.661,357.003 236.858,356.806C237.054,356.61 237.415,356.97 237.659,357.606C238.166,358.928 237.734,359.16 236.994,357.964L236.994,357.964ZM231.213,338.767C231.728,338.559 232.572,338.559 233.088,338.767C233.603,338.975 233.182,339.145 232.15,339.145C231.119,339.145 230.697,338.975 231.213,338.767ZM220.9,335.469C220.9,335.033 221.238,334.884 221.65,335.139C222.063,335.393 222.4,335.751 222.4,335.933C222.4,336.115 222.063,336.264 221.65,336.264C221.238,336.264 220.9,335.906 220.9,335.469ZM242.65,335.219C242.65,335.057 243.174,334.723 243.814,334.477C244.482,334.221 244.783,334.347 244.52,334.772C244.08,335.485 242.65,335.826 242.65,335.219ZM259.014,330.1C259.414,329.7 260.367,329.506 261.133,329.668C262.164,329.887 261.976,330.075 260.406,330.395C259.037,330.674 258.544,330.57 259.014,330.1ZM208.213,329.24C208.385,329.09 209.369,328.565 210.4,328.074C212.168,327.232 212.192,327.247 210.819,328.347C209.625,329.304 207.184,330.14 208.213,329.24L208.213,329.24ZM249.129,327.639C249.367,327.02 249.693,326.514 249.856,326.514C250.018,326.514 250.15,327.02 250.15,327.639C250.15,328.257 249.823,328.764 249.424,328.764C249.024,328.764 248.892,328.257 249.129,327.639ZM274.9,324.73C274.9,324.575 275.491,323.984 276.213,323.418C277.402,322.485 277.429,322.511 276.496,323.701C275.516,324.95 274.9,325.348 274.9,324.73L274.9,324.73ZM213.46,321.576C213.496,320.702 213.673,320.525 213.913,321.123C214.129,321.664 214.103,322.311 213.853,322.56C213.604,322.81 213.427,322.367 213.46,321.576L213.46,321.576ZM249.074,315.483C248.667,314.414 248.753,314.328 249.493,315.064C250.006,315.572 250.236,316.177 250.005,316.408C249.775,316.639 249.355,316.223 249.074,315.483ZM246.775,300.264C247.522,299.439 248.302,298.764 248.508,298.764C248.714,298.764 248.272,299.439 247.525,300.264C246.779,301.089 245.999,301.764 245.793,301.764C245.587,301.764 246.029,301.089 246.775,300.264ZM193.01,299.001C193.551,298.785 194.198,298.811 194.447,299.06C194.696,299.31 194.253,299.487 193.463,299.454C192.589,299.418 192.411,299.241 193.01,299.001L193.01,299.001ZM196.76,299.001C197.301,298.785 197.948,298.811 198.197,299.06C198.446,299.31 198.003,299.487 197.213,299.454C196.339,299.418 196.161,299.241 196.76,299.001L196.76,299.001ZM231.344,266.701L229.525,264.639L231.588,266.457C233.516,268.156 233.994,268.764 233.406,268.764C233.272,268.764 232.344,267.835 231.344,266.701Z" style="fill:rgb(143,0,15);fill-rule:nonzero;"/>
            <path id="path126" d="M208.213,329.24C208.385,329.09 209.369,328.565 210.4,328.074C212.168,327.232 212.192,327.247 210.819,328.347C209.625,329.304 207.184,330.141 208.213,329.24L208.213,329.24ZM274.9,324.73C274.9,324.575 275.491,323.984 276.213,323.418C277.402,322.485 277.429,322.512 276.496,323.701C275.516,324.95 274.9,325.348 274.9,324.731L274.9,324.73Z" style="fill:rgb(43,29,28);fill-rule:nonzero;"/>
        </g>
    </g>
</svg>
