<?xml version="1.0" standalone="no"?>
<!DOCTYPE svg PUBLIC "-//W3C//DTD SVG 20010904//EN"
 "http://www.w3.org/TR/2001/REC-SVG-20010904/DTD/svg10.dtd">
<svg version="1.0" xmlns="http://www.w3.org/2000/svg"
 width="512.000000pt" height="512.000000pt" viewBox="0 0 512.000000 512.000000"
 preserveAspectRatio="xMidYMid meet">
<metadata>
Created by potrace 1.11, written by Peter Selinger 2001-2013
</metadata>
<g transform="translate(0.000000,512.000000) scale(0.100000,-0.100000)"
fill="#000000" stroke="none">
<path d="M2234 4855 c-17 -19 -30 -36 -28 -38 3 -2 -2 -10 -11 -17 -8 -7 -15
-19 -15 -27 0 -8 -4 -11 -10 -8 -5 3 -12 -6 -16 -20 -3 -14 -10 -25 -16 -25
-5 0 -6 -5 -2 -12 5 -8 2 -9 -10 -5 -10 4 -15 3 -11 -3 6 -10 -31 -69 -52 -83
-7 -4 -13 -14 -13 -21 0 -7 -9 -21 -20 -31 -11 -10 -20 -24 -20 -32 0 -7 -5
-13 -11 -13 -5 0 -7 -4 -4 -10 3 -5 1 -10 -4 -10 -6 0 -11 -7 -11 -15 0 -7 -8
-19 -17 -24 -14 -8 -15 -10 -3 -11 12 0 12 -2 2 -9 -7 -4 -15 -17 -16 -27 -2
-10 -9 -18 -17 -16 -10 3 -10 0 1 -13 11 -13 10 -15 -3 -10 -9 4 -15 1 -14 -7
1 -40 -4 -60 -15 -55 -9 3 -13 -7 -14 -31 0 -20 -5 -37 -11 -39 -5 -2 -8 -15
-5 -28 2 -15 0 -25 -7 -25 -6 0 -11 -11 -11 -24 0 -13 -6 -27 -12 -29 -10 -4
-9 -6 1 -6 11 -1 11 -4 0 -18 -9 -11 -10 -14 -2 -9 9 5 11 2 7 -8 -3 -9 -9
-14 -13 -12 -3 2 -6 -20 -4 -50 1 -30 -2 -52 -6 -50 -4 3 -8 -4 -8 -15 -1 -13
2 -17 10 -12 7 4 6 0 -2 -10 -9 -12 -10 -17 -2 -17 7 0 9 -5 6 -10 -4 -6 -12
-7 -18 -4 -9 5 -9 4 0 -6 6 -7 9 -19 6 -28 -5 -11 -3 -13 7 -7 10 6 11 4 4 -6
-14 -24 -16 -51 -2 -43 7 4 10 4 6 -1 -4 -4 -3 -17 3 -28 7 -11 7 -17 1 -13
-5 3 -12 -3 -15 -14 -3 -11 -1 -18 4 -14 5 3 9 -6 9 -20 0 -13 3 -32 7 -42 4
-12 3 -15 -5 -10 -7 4 -12 2 -12 -3 0 -6 7 -11 16 -11 10 0 12 -5 7 -12 -11
-19 -13 -39 -2 -32 5 3 6 10 3 16 -4 6 -2 8 4 5 5 -4 8 -16 5 -26 -3 -10 1
-30 8 -42 7 -13 12 -36 10 -50 -1 -17 4 -29 14 -33 13 -5 14 -9 4 -28 -11 -20
-10 -21 2 -11 12 10 15 8 16 -7 1 -14 -3 -17 -15 -13 -9 3 -14 3 -10 -1 5 -6
16 -10 47 -15 3 -1 -4 -8 -15 -16 -18 -14 -18 -15 0 -8 16 5 18 2 14 -20 -5
-24 -3 -25 10 -15 11 9 13 9 9 1 -4 -6 -1 -17 6 -25 13 -13 28 -45 24 -52 -1
-2 7 -14 18 -27 15 -18 15 -20 3 -10 -26 20 -22 6 6 -22 14 -14 21 -28 18 -33
-4 -5 -6 -8 -4 -7 6 3 43 -31 53 -49 8 -14 6 -16 -7 -11 -12 4 -15 3 -10 -5 4
-7 17 -12 28 -12 21 0 21 0 2 -22 -10 -12 -14 -18 -7 -15 6 4 14 3 18 -3 4 -6
10 -8 15 -5 5 3 17 -7 27 -22 10 -15 34 -42 53 -60 19 -18 29 -33 23 -33 -7 0
-13 6 -13 13 0 8 -3 7 -10 -3 -5 -8 -12 -11 -17 -7 -4 5 -1 12 6 16 8 5 9 11
3 15 -6 3 -12 1 -14 -5 -5 -14 -78 9 -78 24 0 4 -5 5 -10 2 -6 -3 -13 1 -16 9
-3 9 -10 14 -14 11 -12 -7 -60 16 -60 28 0 6 -3 8 -6 4 -4 -3 -24 3 -45 13
-21 11 -45 20 -54 20 -8 0 -15 5 -15 10 0 6 -9 10 -19 10 -11 0 -23 5 -26 10
-3 6 -17 10 -31 10 -17 0 -23 4 -18 12 5 7 2 9 -8 5 -9 -3 -19 -3 -23 1 -4 4
-10 7 -13 8 -4 0 -15 4 -24 7 -10 4 -26 10 -35 14 -10 3 -23 5 -30 4 -6 -1
-14 3 -18 8 -3 6 -12 8 -20 4 -8 -3 -15 0 -15 6 0 6 -3 10 -7 10 -5 -1 -10 0
-13 1 -3 1 -16 3 -30 4 -14 2 -41 7 -60 11 -19 4 -47 8 -62 9 -15 1 -31 5 -34
9 -4 4 -13 2 -21 -4 -9 -8 -13 -8 -13 0 0 6 -17 10 -45 8 -26 -2 -45 2 -45 8
0 5 -4 4 -9 -3 -11 -17 -21 -17 -32 0 -6 9 -9 9 -9 1 0 -6 -9 -10 -20 -8 -11
2 -22 -1 -26 -6 -4 -6 -11 -6 -20 2 -8 6 -14 7 -14 2 0 -5 -8 -9 -17 -10 -10
-1 -36 -4 -58 -8 -22 -4 -47 -8 -57 -9 -9 -1 -23 -8 -31 -15 -12 -9 -17 -9
-22 0 -6 8 -10 7 -17 -4 -5 -9 -15 -14 -22 -11 -8 3 -17 0 -21 -5 -3 -6 -11
-9 -16 -6 -5 4 -9 1 -9 -5 0 -6 -4 -8 -10 -5 -5 3 -10 2 -10 -4 0 -6 -7 -8
-15 -5 -8 4 -15 1 -15 -5 0 -6 -6 -11 -14 -11 -13 0 -75 -29 -86 -40 -3 -3
-29 -16 -57 -30 -29 -14 -53 -28 -53 -32 0 -5 -6 -8 -13 -8 -7 0 -25 -12 -40
-26 -16 -15 -34 -23 -43 -20 -8 3 -13 2 -10 -3 3 -5 -11 -21 -32 -37 -20 -15
-45 -35 -54 -43 -34 -31 -47 -41 -58 -41 -6 0 -8 -4 -5 -10 3 -5 -1 -10 -10
-10 -9 0 -14 -4 -10 -9 3 -5 -3 -12 -14 -16 -11 -3 -22 -12 -25 -20 -3 -8 -12
-15 -19 -15 -7 0 -20 -11 -27 -25 -7 -14 -15 -23 -18 -20 -3 2 -13 -7 -24 -20
-11 -14 -24 -23 -29 -19 -5 3 -9 2 -8 -3 3 -19 -2 -34 -9 -29 -8 5 -42 -28
-42 -40 0 -3 -9 -13 -20 -22 -20 -17 -40 -79 -22 -68 5 3 22 -13 37 -37 16
-23 21 -36 13 -29 -13 11 -18 11 -24 0 -4 -7 -4 -10 1 -6 4 4 14 0 22 -8 8 -8
19 -11 25 -8 7 5 9 -2 6 -20 -4 -18 -1 -29 8 -33 8 -3 11 -10 7 -17 -4 -6 2
-4 13 4 10 8 16 10 12 6 -4 -5 0 -15 10 -23 9 -8 11 -12 5 -8 -8 4 -13 0 -13
-9 0 -9 7 -13 19 -11 13 2 18 -1 15 -10 -3 -7 0 -16 7 -21 8 -5 10 -3 4 7 -6
10 -5 11 4 3 7 -6 13 -21 14 -32 0 -12 7 -24 15 -27 7 -3 10 -10 6 -16 -4 -8
-3 -9 5 -5 7 5 9 13 4 20 -7 11 6 -4 38 -42 6 -7 8 -19 6 -26 -4 -9 2 -12 19
-10 15 1 24 -3 24 -11 0 -8 5 -17 12 -21 7 -5 8 -3 3 6 -5 7 3 5 18 -6 16 -12
22 -23 16 -28 -12 -13 -11 -26 2 -26 5 0 7 5 4 10 -3 6 -2 10 4 10 5 0 13 -10
17 -22 9 -31 24 -39 48 -26 19 10 20 10 7 -6 -8 -9 -11 -19 -7 -23 3 -3 6 -1
6 5 0 7 5 12 11 12 6 0 9 -7 6 -14 -4 -10 -1 -13 8 -9 8 3 12 10 8 16 -4 6 7
1 24 -11 17 -12 33 -19 37 -17 3 3 4 2 1 -2 -8 -10 -36 -13 -30 -2 4 5 -2 6
-11 2 -13 -5 -15 -3 -9 7 5 9 4 11 -4 6 -14 -9 4 -37 23 -35 23 3 37 -1 32 -9
-3 -5 1 -9 9 -9 11 0 12 4 4 13 -7 9 -6 14 3 20 7 4 10 4 6 -1 -9 -10 17 -35
37 -35 9 0 14 -4 10 -9 -3 -5 0 -13 6 -17 7 -4 9 -3 6 3 -4 6 0 13 8 17 8 3
15 1 15 -4 0 -6 7 -10 16 -10 9 0 12 -5 8 -12 -5 -8 0 -7 11 2 17 14 17 13 10
-10 l-8 -25 22 25 c12 14 21 21 20 15 -3 -22 1 -35 12 -35 5 0 7 5 4 10 -3 6
-2 10 2 10 5 0 14 -9 21 -20 7 -11 18 -20 25 -20 6 0 4 5 -6 11 -9 5 -17 15
-17 22 0 9 2 9 8 0 10 -15 60 -24 67 -12 4 5 15 4 28 -3 29 -16 47 -18 47 -7
0 6 5 7 10 4 17 -11 11 -24 -10 -20 -11 2 -20 0 -20 -4 0 -5 14 -8 30 -7 17 0
30 6 30 12 0 6 10 10 22 8 13 -1 27 -3 32 -3 4 -1 5 -8 2 -17 -5 -14 -4 -15 9
-4 8 7 15 9 15 4 1 -5 7 2 16 16 14 23 14 23 9 3 -4 -14 -2 -23 4 -23 6 0 11
7 11 15 0 8 5 15 11 15 5 0 8 -4 5 -8 -2 -4 4 -14 15 -20 18 -12 19 -11 10 5
-8 16 -5 19 22 18 18 -1 35 3 38 8 3 5 9 2 12 -6 4 -11 -2 -14 -24 -12 -16 1
-29 -1 -29 -5 0 -7 60 -6 68 0 8 7 29 5 42 -4 13 -9 13 -9 2 6 -7 9 -22 15
-33 13 -11 -2 -17 0 -14 4 3 5 25 8 50 6 24 -1 42 1 40 6 -3 4 5 6 17 3 13 -3
28 -6 33 -7 6 -2 15 -6 21 -9 6 -4 11 -1 11 7 0 8 -4 12 -8 10 -4 -3 -10 2
-13 11 -6 15 -3 15 20 -1 15 -9 24 -13 21 -8 -3 5 3 15 15 22 11 7 18 9 15 4
-3 -4 2 -15 11 -23 14 -13 15 -12 9 4 -6 14 -4 17 9 12 13 -5 15 -4 5 7 -9 12
-6 13 16 9 16 -2 35 -10 43 -16 8 -5 12 -7 8 -2 -9 11 10 48 22 41 5 -3 11 -1
15 5 4 6 11 8 16 5 5 -4 9 0 9 7 0 9 3 9 10 -2 6 -10 5 -20 -6 -30 -13 -13
-16 -13 -24 0 -8 12 -10 9 -10 -13 0 -16 -4 -26 -10 -22 -6 3 -13 -1 -16 -9
-3 -9 -9 -14 -13 -12 -4 3 -22 -9 -40 -25 -18 -16 -38 -26 -44 -22 -5 3 -7 1
-4 -4 4 -6 -6 -19 -21 -29 -15 -10 -50 -41 -79 -70 -29 -28 -54 -49 -57 -46
-4 3 -6 0 -6 -7 0 -17 -26 -42 -35 -33 -5 4 -5 2 -1 -5 3 -6 -4 -19 -16 -27
-12 -9 -19 -16 -15 -16 8 0 -2 -13 -35 -50 -9 -10 -14 -21 -11 -24 4 -3 1 -6
-6 -6 -7 0 -10 -4 -6 -9 3 -6 -2 -14 -11 -19 -9 -5 -16 -13 -16 -18 -1 -16
-21 -54 -29 -54 -4 0 -6 -9 -4 -19 2 -11 -3 -22 -12 -25 -8 -4 -13 -13 -9 -21
3 -8 1 -15 -4 -15 -5 0 -7 -9 -5 -20 2 -11 -1 -22 -6 -25 -5 -4 -7 -11 -4 -16
4 -5 1 -9 -5 -9 -6 0 -8 -11 -6 -25 3 -14 0 -25 -5 -25 -6 0 -7 -9 -4 -22 6
-17 4 -20 -11 -14 -18 6 -18 5 0 -9 11 -8 14 -15 7 -15 -7 0 -9 -4 -6 -10 3
-5 0 -10 -7 -10 -9 0 -9 -3 2 -10 13 -9 13 -10 0 -10 -9 0 -11 -3 -4 -8 6 -4
10 -22 10 -40 -1 -24 -5 -31 -16 -27 -11 4 -10 1 2 -8 14 -11 15 -16 5 -27 -9
-10 -9 -11 2 -5 10 6 12 2 7 -13 -4 -11 -3 -23 2 -26 5 -3 8 -24 6 -46 -2 -22
1 -40 7 -40 5 0 9 -5 9 -11 0 -5 -4 -7 -10 -4 -15 10 -12 -5 6 -22 13 -13 13
-17 2 -24 -10 -7 -10 -9 0 -9 6 0 12 -7 12 -16 0 -9 -5 -12 -12 -8 -7 4 -8 3
-4 -5 4 -6 11 -9 16 -6 4 3 10 -4 13 -14 3 -12 0 -18 -7 -17 -6 2 -7 1 -3 -2
4 -2 2 -11 -5 -20 -10 -14 -10 -15 2 -5 21 19 35 16 19 -4 -8 -9 -9 -14 -3
-10 7 4 14 0 17 -8 4 -10 1 -12 -11 -9 -9 3 -7 -1 6 -8 18 -11 20 -16 10 -27
-11 -11 -10 -13 3 -8 9 3 16 0 17 -6 1 -7 3 -25 5 -42 4 -30 23 -75 33 -75 2
0 0 10 -6 23 -11 21 -10 21 4 3 11 -14 13 -23 5 -32 -8 -10 -6 -12 9 -9 16 3
20 -2 18 -25 -1 -16 2 -27 6 -24 4 3 8 1 8 -5 0 -5 -6 -12 -12 -15 -7 -4 -3
-4 9 -2 13 2 26 -1 30 -6 3 -6 2 -9 -3 -6 -5 3 -15 -1 -22 -8 -11 -13 -9 -14
13 -10 22 4 25 3 15 -9 -14 -16 -4 -39 12 -29 7 5 9 2 5 -8 -3 -9 1 -24 8 -35
8 -10 15 -13 15 -8 0 6 -5 16 -12 23 -7 7 -9 12 -4 12 13 0 37 -30 31 -39 -7
-12 9 -22 39 -25 13 -2 23 3 23 10 0 9 -5 10 -17 4 -9 -5 -22 -5 -30 0 -12 7
-11 9 5 9 11 0 32 2 48 4 24 4 26 2 15 -12 -12 -14 -11 -14 5 -2 10 8 16 19
13 26 -5 13 29 13 41 0 5 -4 3 -5 -4 -1 -7 4 -17 -3 -23 -16 -11 -22 -10 -22
4 -4 9 11 16 17 16 13 0 -4 12 1 27 10 30 20 32 20 45 1 6 -8 7 -5 2 12 -6 23
-6 24 11 10 17 -14 18 -14 5 10 -12 23 -12 24 4 10 22 -18 56 -24 56 -9 0 5 5
7 12 3 7 -4 8 -3 4 5 -4 6 -13 9 -19 5 -7 -3 -4 1 6 9 19 16 57 12 57 -5 0 -6
6 -5 14 2 8 6 12 19 9 28 -3 9 -3 14 2 10 4 -4 14 -3 22 3 9 9 13 8 13 0 0 -6
-4 -11 -10 -11 -5 0 -10 -5 -10 -11 0 -8 4 -8 15 1 8 6 18 9 23 6 6 -3 15 1
22 9 14 17 35 21 25 4 -4 -6 2 -5 13 2 12 7 18 17 15 22 -3 5 -9 3 -14 -4 -5
-8 -9 -9 -9 -4 0 6 5 17 10 25 7 12 10 12 10 1 0 -7 6 -11 14 -8 11 4 13 1 9
-11 -4 -13 -2 -12 10 3 8 11 13 23 11 27 -3 4 2 5 10 2 9 -3 16 -10 16 -15 0
-5 5 -9 10 -9 7 0 7 6 0 20 -7 14 -7 20 0 20 5 0 10 -4 10 -10 0 -5 5 -10 11
-10 5 0 7 5 4 10 -3 6 3 10 15 10 12 0 19 4 15 9 -3 5 0 13 6 17 8 4 9 3 5 -4
-4 -7 -3 -12 3 -12 6 0 8 -8 5 -17 -5 -15 -4 -16 5 -3 6 8 16 15 23 15 7 0 12
11 12 24 l-2 24 19 -24 c16 -21 18 -22 13 -3 -3 13 1 26 13 35 16 13 17 12 5
-2 -10 -14 -10 -18 3 -23 9 -3 13 -2 10 3 -3 5 -1 12 5 16 6 4 8 10 5 14 -2 5
14 5 35 1 22 -4 43 -3 46 1 5 9 -2 13 -18 10 -4 0 -5 6 -2 14 5 12 9 12 29 -1
13 -8 26 -11 29 -6 8 13 -3 22 -20 15 -8 -3 -14 0 -14 7 0 6 4 9 9 5 5 -3 13
0 17 6 5 9 11 7 19 -5 11 -15 13 -15 19 -1 3 9 10 14 14 11 5 -3 9 1 9 9 0 13
-3 13 -17 0 -14 -13 -17 -13 -17 0 0 8 4 12 8 9 4 -2 11 0 14 6 5 8 11 8 20 0
10 -9 16 -7 24 8 6 11 7 23 3 27 -4 5 0 4 8 -1 21 -12 41 -14 34 -3 -3 5 -10
7 -15 4 -5 -4 -9 -1 -9 4 0 6 6 11 14 11 8 0 16 7 20 15 3 8 13 15 21 15 9 0
13 -5 10 -10 -4 -6 -11 -8 -16 -5 -5 4 -9 1 -9 -4 0 -6 4 -11 9 -11 15 0 28
24 26 47 -1 12 3 21 9 20 6 -1 10 4 8 11 -2 10 2 10 20 1 22 -12 22 -11 8 6
-14 17 -13 18 3 12 16 -6 21 2 18 30 -1 7 5 13 14 13 10 0 13 -5 9 -12 -4 -7
-3 -8 5 -4 9 6 9 11 -1 24 -11 14 -10 15 6 9 16 -6 17 -5 6 8 -9 11 -9 15 -1
15 7 0 10 4 6 9 -3 5 3 16 13 23 10 7 21 21 25 31 4 11 12 15 18 11 8 -4 9 -3
5 5 -4 6 -13 8 -19 4 -8 -5 -8 -2 0 9 7 8 10 18 6 21 -3 4 -1 7 6 7 6 0 11 6
9 14 -2 8 6 22 17 31 11 9 15 14 9 11 -8 -4 -11 3 -10 18 0 13 4 22 9 19 4 -2
7 4 7 13 0 10 8 26 18 37 9 11 13 18 7 15 -5 -3 -11 5 -11 18 -1 13 2 22 6 19
5 -3 11 -1 15 5 3 5 1 10 -6 10 -7 0 -9 8 -4 23 3 12 7 28 7 35 1 6 5 12 9 12
5 0 5 7 2 17 -5 12 -3 14 8 8 11 -7 11 -5 -1 10 -9 11 -10 16 -2 11 6 -4 12
-3 12 3 0 5 -6 11 -12 14 -10 3 -10 7 0 20 8 9 11 21 8 26 -4 5 -2 12 4 16 5
3 10 11 10 16 0 6 -4 8 -8 5 -5 -3 -9 1 -9 8 0 9 7 12 16 8 9 -3 13 -2 9 3 -4
4 -2 15 5 23 10 13 9 15 -4 10 -11 -4 -15 0 -14 13 1 10 5 22 10 26 4 5 5 3 2
-3 -4 -7 0 -17 8 -24 12 -10 13 -16 4 -26 -9 -11 -9 -14 0 -14 8 0 9 -5 1 -19
-14 -27 -13 -36 3 -22 11 9 13 5 12 -19 -1 -17 3 -30 8 -30 5 0 4 -6 -2 -14
-9 -11 -9 -16 0 -22 8 -5 9 -3 4 6 -5 9 -4 11 4 6 9 -6 9 -11 -1 -24 -8 -10
-9 -13 -1 -9 6 4 14 3 18 -3 3 -5 -2 -10 -12 -11 -14 0 -15 -2 -3 -6 16 -6 30
-23 30 -36 0 -5 -6 -5 -12 -1 -7 4 -4 -3 7 -16 11 -13 15 -21 10 -17 -6 3 -11
-3 -11 -14 0 -12 7 -19 18 -19 10 0 18 -4 18 -10 0 -5 -8 -7 -17 -3 -13 4 -11
1 5 -13 12 -10 24 -30 27 -43 2 -12 10 -30 17 -39 10 -12 10 -16 1 -19 -10 -4
-10 -7 0 -18 7 -7 17 -10 22 -7 6 3 4 -2 -4 -11 -12 -15 -11 -17 2 -17 10 0
14 -6 11 -15 -4 -8 -1 -15 5 -15 6 0 11 -7 11 -15 0 -8 9 -24 21 -36 13 -13
18 -28 15 -42 -3 -12 -3 -16 0 -9 6 13 25 17 23 4 -4 -21 2 -32 14 -26 7 5 6
0 -3 -11 -8 -10 -10 -16 -4 -12 6 4 20 -3 30 -16 19 -21 19 -21 -1 -7 -18 14
-19 14 -7 -2 8 -9 10 -23 6 -30 -4 -7 -4 -10 1 -6 11 11 36 -12 28 -25 -4 -6
-1 -7 6 -3 9 6 8 13 -5 27 -16 18 -16 19 -1 13 16 -6 21 -17 18 -37 0 -4 4 -7
9 -7 6 0 10 -6 10 -14 0 -7 9 -16 20 -19 11 -3 20 -11 20 -19 0 -11 -2 -11 -9
0 -7 11 -9 10 -14 -3 -4 -9 -3 -14 2 -11 5 3 14 -1 21 -9 9 -11 16 -12 25 -5
9 8 14 6 19 -5 4 -10 2 -14 -5 -9 -8 4 -8 0 0 -14 6 -12 16 -24 23 -28 7 -4 8
-3 4 4 -4 7 -2 12 3 12 6 0 11 -7 11 -15 0 -8 5 -15 11 -15 5 0 7 4 4 10 -3 6
1 7 10 4 14 -6 14 -8 -2 -21 -10 -8 -13 -12 -6 -9 6 4 17 -2 23 -11 10 -16 11
-16 6 -1 -7 24 9 31 25 11 10 -12 10 -14 2 -9 -7 4 -13 3 -13 -2 0 -5 11 -14
25 -20 32 -15 38 -15 29 0 -4 7 -3 8 4 4 6 -4 8 -14 5 -22 -5 -13 -1 -15 14
-10 13 4 26 -1 38 -14 10 -11 22 -17 26 -14 5 3 6 -3 2 -13 -6 -16 -5 -16 10
-4 10 8 20 11 24 7 3 -3 0 -6 -8 -6 -11 -1 -10 -3 2 -10 9 -5 25 -8 36 -6 12
3 20 -1 20 -10 0 -10 -4 -11 -14 -3 -8 7 -13 8 -13 1 0 -10 19 -21 31 -18 4 0
17 -8 30 -19 l24 -20 -19 22 c-10 13 -23 20 -29 16 -6 -3 -7 -1 -3 6 6 9 11 9
21 1 8 -7 19 -9 24 -6 5 4 12 2 16 -4 4 -6 10 -8 15 -5 5 3 7 -3 5 -15 -2 -11
1 -23 7 -26 7 -4 8 -2 4 4 -4 7 -2 12 4 12 6 0 8 5 4 12 -4 7 -3 8 4 4 6 -4 8
-14 5 -24 -6 -15 -5 -15 11 -3 13 11 19 12 29 2 9 -10 8 -11 -8 -5 -20 7 -20
7 0 -9 11 -8 23 -13 27 -11 4 3 22 -3 40 -12 28 -15 31 -15 20 -1 -10 12 -10
17 -1 23 7 4 9 3 6 -3 -8 -13 20 -26 36 -16 6 4 8 0 5 -9 -4 -8 0 -15 7 -15 8
0 13 3 12 6 -1 3 3 6 8 6 6 0 9 -4 7 -11 -1 -6 4 -11 13 -11 8 0 12 4 9 9 -3
4 0 8 5 8 6 0 12 -4 12 -10 1 -5 2 -14 3 -19 0 -5 5 -13 10 -18 5 -4 6 -3 3 3
-4 6 5 16 20 23 24 11 25 11 12 -5 -13 -16 -12 -17 6 -10 46 18 85 15 85 -6 0
-5 -4 -6 -10 -3 -6 3 -7 -1 -3 -10 5 -13 7 -14 14 -3 10 16 29 18 47 5 8 -6
12 -5 12 4 0 11 2 11 9 1 4 -7 14 -12 22 -10 8 2 13 -3 12 -9 -2 -7 6 -13 18
-13 13 0 18 -4 13 -12 -5 -7 -3 -8 6 -3 10 6 10 11 -4 20 -14 11 -15 13 -1 18
8 4 14 3 14 -1 -3 -19 3 -22 22 -11 15 8 19 8 15 0 -4 -6 -2 -11 3 -11 6 0 11
-5 11 -12 0 -9 -3 -9 -12 0 -15 15 -28 15 -28 0 0 -6 3 -8 7 -5 3 4 15 -1 25
-10 11 -10 19 -13 18 -8 -4 20 0 35 11 35 6 0 8 -7 5 -16 -3 -8 -2 -12 4 -9 6
3 10 1 10 -4 0 -6 10 -10 23 -8 14 1 21 -3 19 -11 -1 -8 2 -11 8 -7 8 5 6 13
-5 25 -11 12 -13 20 -6 25 6 3 14 -1 17 -9 3 -9 10 -13 15 -11 4 3 17 -3 29
-15 15 -15 20 -17 20 -5 0 13 11 19 31 17 3 -1 6 6 6 13 0 11 -4 12 -13 4 -9
-8 -11 -5 -7 10 3 12 9 21 13 21 10 0 8 20 -4 39 -6 10 -5 12 2 7 8 -5 12 4
12 28 0 19 5 38 10 41 6 3 10 12 10 18 0 7 -4 6 -10 -3 -7 -11 -8 -4 -6 23 2
21 11 46 20 56 15 16 15 19 1 31 -14 11 -13 14 2 26 10 7 13 14 7 14 -13 0
-14 31 -1 47 5 7 6 13 1 13 -5 0 -2 5 6 10 13 8 13 10 -2 10 -11 0 -15 5 -12
14 3 8 13 12 22 10 9 -3 6 2 -8 10 -14 8 -19 15 -12 16 8 0 11 11 9 35 -3 21
0 35 7 35 6 0 4 5 -4 10 -11 7 -11 10 -2 10 7 0 10 5 7 10 -4 6 -1 18 7 27 7
10 8 14 1 10 -18 -11 -22 16 -4 31 9 8 10 11 4 7 -7 -3 -13 -3 -14 2 0 4 -2
23 -4 41 -2 27 0 32 13 27 13 -5 12 -2 -3 15 -14 15 -15 20 -4 20 10 0 11 2 2
8 -6 4 -10 20 -9 35 2 15 -1 27 -6 27 -5 0 -4 10 3 21 9 17 8 20 -2 14 -9 -6
-11 -3 -6 8 3 10 3 17 -1 17 -4 0 -8 9 -8 20 0 11 4 20 8 20 4 0 8 4 8 10 0 5
-3 9 -8 7 -6 -2 -14 8 -11 16 6 20 5 36 -2 31 -10 -6 -10 -4 -14 41 -2 17 -4
32 -5 35 -1 3 -2 8 -1 13 0 4 -4 7 -10 7 -5 0 -8 4 -5 9 4 5 0 11 -6 14 -10 3
-10 9 0 27 8 12 10 20 5 17 -4 -3 -14 1 -21 9 -10 11 -10 14 0 14 9 0 9 3 2 8
-12 8 -28 43 -26 55 1 4 -4 7 -11 7 -8 0 -7 4 3 10 13 8 12 10 -2 10 -16 0
-22 13 -21 47 1 7 -3 10 -8 7 -5 -3 -9 2 -9 10 0 9 -5 16 -12 16 -6 0 -9 3 -5
6 3 3 -3 15 -13 27 -11 11 -17 24 -14 29 3 4 0 8 -5 8 -6 0 -11 7 -11 15 0 8
-7 15 -16 15 -10 0 -14 6 -11 14 3 8 -1 17 -9 20 -9 3 -12 11 -8 18 4 7 4 10
-1 6 -9 -8 -35 15 -35 32 0 6 -4 8 -10 5 -5 -3 -12 5 -16 19 -4 17 -11 23 -22
19 -10 -4 -13 -2 -8 5 4 7 1 15 -8 18 -9 3 -13 10 -10 15 3 5 -3 6 -12 2 -13
-5 -16 -3 -11 10 3 9 2 16 -2 14 -8 -2 -57 35 -105 80 -13 12 -27 19 -30 16
-3 -4 -6 -2 -7 3 0 5 -2 16 -4 24 -2 12 9 15 59 16 46 0 60 3 58 14 -2 10 1
11 10 3 18 -14 88 -16 88 -3 0 6 -4 9 -9 5 -5 -3 -12 -1 -15 4 -4 5 2 8 11 7
9 -2 19 -8 21 -14 2 -7 8 -12 13 -12 6 0 8 4 5 8 -2 4 5 14 17 22 19 11 20 11
10 -1 -9 -11 -6 -14 16 -13 40 1 55 12 40 30 -10 12 -9 13 6 8 13 -5 16 -4 11
4 -5 8 -1 10 10 5 10 -4 15 -2 11 4 -3 5 1 10 10 10 13 0 12 -4 -5 -18 -18
-14 -19 -18 -6 -23 8 -3 12 -2 9 4 -7 12 26 29 45 23 9 -3 8 0 -4 9 -12 10
-15 17 -8 22 6 3 13 2 17 -4 9 -15 25 -12 25 6 0 9 -5 12 -12 8 -6 -4 -8 -3
-5 4 4 5 15 9 24 8 9 -2 27 9 39 23 17 20 25 23 36 14 9 -8 18 -9 28 -1 12 8
12 9 -2 4 -10 -3 -18 -1 -18 4 0 6 4 10 10 10 5 0 7 7 4 15 -5 11 -2 13 10 9
9 -3 13 -11 9 -17 -3 -6 -1 -7 6 -3 9 6 9 11 0 22 -10 12 -9 13 4 9 17 -7 70
43 63 60 -2 6 5 12 17 12 11 1 27 10 36 19 11 12 12 14 2 9 -11 -6 -13 -4 -8
9 4 10 7 20 7 24 0 3 7 -3 15 -14 15 -18 15 -18 8 0 -5 15 -3 17 8 11 12 -7
12 -6 1 7 -10 13 -10 18 -1 24 8 4 9 3 5 -4 -4 -7 -2 -12 3 -12 6 0 11 9 11
20 0 11 5 20 11 20 5 0 7 -5 3 -12 -4 -6 -3 -8 4 -5 5 4 8 16 5 27 -6 22 12
28 20 8 3 -7 4 0 4 16 -1 18 4 31 13 33 13 4 13 3 0 -6 -9 -7 -10 -11 -3 -11
16 0 26 17 13 25 -15 9 -2 25 15 18 18 -6 20 13 3 21 -7 4 -3 4 9 2 15 -3 20
0 16 10 -3 8 -10 11 -16 7 -5 -3 4 15 22 40 18 26 34 47 37 47 3 0 2 -6 -2
-12 -5 -9 -3 -9 9 1 15 12 15 31 1 31 -3 0 -2 -5 2 -12 4 -7 3 -8 -5 -4 -16
10 -3 29 16 22 8 -3 12 -2 8 3 -3 5 -2 11 2 14 5 2 3 2 -4 1 -8 -2 -7 8 4 32
11 21 22 33 31 29 7 -2 11 -1 7 4 -3 5 -2 11 2 14 5 2 3 3 -3 1 -6 -1 -11 4
-11 11 0 8 8 12 20 10 16 -4 17 -2 5 12 -11 14 -10 15 12 10 14 -4 19 -4 12
-1 -6 3 -10 10 -6 15 3 5 0 9 -6 9 -7 0 -6 5 2 14 7 8 18 11 23 8 6 -3 5 1 -1
9 -8 10 -8 22 2 47 15 34 27 45 18 15 -5 -15 -4 -15 4 -3 7 9 8 18 1 26 -7 8
-6 15 2 20 8 5 10 2 5 -7 -4 -8 1 -3 11 10 9 13 18 33 20 45 2 17 1 18 -7 6
-5 -8 -10 -10 -10 -5 1 13 26 46 31 40 3 -2 6 6 6 18 2 17 0 19 -7 7 -7 -11
-10 -11 -10 -2 0 7 10 17 23 22 12 5 17 9 10 9 -12 1 -12 18 0 39 5 6 5 17 1
24 -4 6 -3 9 2 6 5 -3 18 4 28 15 16 17 17 19 3 14 -9 -3 -17 -2 -17 3 0 6 5
10 11 10 7 0 9 9 6 23 -6 22 -6 22 10 2 14 -18 15 -18 9 -1 -3 10 -1 26 6 35
12 14 11 14 -4 2 -16 -12 -16 -9 1 42 11 30 17 58 14 61 -4 3 -1 6 5 6 7 0 12
7 12 16 0 8 5 12 10 9 6 -3 10 -1 10 4 0 6 -6 11 -12 11 -9 0 -8 3 2 9 8 6 19
7 25 4 5 -3 4 0 -2 8 -19 20 -16 47 7 54 11 4 17 11 14 17 -4 6 -10 5 -15 -3
-7 -11 -9 -10 -9 4 0 9 6 17 13 17 9 0 8 3 -2 9 -11 7 -11 10 2 17 13 8 14 12
2 28 -11 14 -27 19 -60 19 -25 0 -48 4 -51 8 -3 5 -13 5 -23 -1 -10 -5 -21 -7
-24 -4 -3 4 -30 8 -59 11 -89 8 -93 8 -105 16 -8 5 -13 3 -13 -4 0 -8 -4 -8
-12 -1 -7 5 -23 8 -36 6 -15 -3 -21 0 -16 7 5 8 1 8 -14 0 -12 -6 -23 -8 -25
-4 -3 5 -31 7 -64 7 -33 -1 -61 3 -65 10 -6 8 -10 8 -15 0 -10 -13 -43 -14
-43 -1 0 5 -6 5 -13 -2 -10 -8 -17 -7 -27 2 -9 9 -11 9 -6 0 4 -8 -1 -11 -14
-10 -11 1 -20 5 -20 10 0 4 -6 5 -12 0 -7 -4 -40 -9 -73 -10 -33 0 -60 -2 -60
-3 0 -1 -14 -3 -30 -4 -17 -1 -35 -5 -41 -8 -5 -4 -16 -3 -24 2 -8 5 -19 5
-25 0 -9 -7 -42 -15 -105 -25 -8 -1 -33 -7 -55 -13 -22 -6 -43 -12 -47 -12 -4
-1 -24 -8 -43 -16 -20 -8 -40 -12 -45 -9 -6 4 -10 2 -10 -3 0 -6 -20 -16 -45
-23 -25 -7 -45 -17 -45 -20 0 -4 -22 -15 -50 -24 -27 -9 -50 -21 -50 -26 0 -6
-4 -8 -9 -5 -5 3 -12 -1 -15 -10 -4 -9 -9 -14 -12 -11 -7 6 -118 -66 -129 -83
-4 -6 -11 -8 -16 -5 -5 4 -9 -2 -9 -11 0 -10 -3 -15 -6 -11 -3 3 -16 -5 -29
-19 -12 -13 -26 -24 -30 -24 -4 0 -21 -16 -38 -35 -16 -19 -34 -32 -41 -28 -6
3 -8 3 -4 -1 4 -5 -10 -25 -30 -46 -20 -21 -55 -59 -77 -84 -22 -25 -44 -46
-50 -45 -5 0 -4 3 3 6 6 2 9 10 6 15 -4 7 -2 8 4 4 7 -4 12 -3 12 3 0 5 -5 13
-12 17 -7 5 -2 15 18 32 16 13 21 22 12 19 -10 -4 -20 -2 -23 3 -4 6 -1 10 5
10 6 0 8 5 4 13 -6 9 -5 9 7 0 11 -9 14 -7 16 14 1 19 -1 22 -8 12 -7 -10 -8
-7 -6 10 2 13 12 31 23 39 13 10 14 13 3 9 -9 -3 -16 1 -16 9 0 8 7 14 16 15
10 0 12 2 4 6 -7 2 -13 14 -13 25 0 18 2 19 18 7 15 -12 15 -11 -1 8 -12 14
-15 23 -8 28 6 3 11 11 11 16 0 6 -6 7 -12 3 -10 -6 -10 -4 -2 7 6 8 11 37 10
66 -1 28 2 49 7 46 4 -2 5 8 1 24 -4 15 -7 45 -7 66 0 21 -4 37 -11 37 -7 0
-7 3 -1 8 13 9 18 32 7 32 -11 0 -13 39 -1 45 5 4 2 17 -7 31 -9 13 -14 27
-10 31 3 3 0 13 -7 21 -10 13 -9 15 8 9 17 -6 16 -4 -4 12 -16 12 -20 20 -11
23 9 3 8 8 -4 21 -16 16 -14 22 7 18 5 -1 6 3 2 9 -3 6 -11 8 -16 5 -5 -4 -9
5 -9 19 0 14 -4 26 -10 26 -5 0 -10 11 -10 25 0 14 -5 25 -11 25 -8 0 -7 5 1
16 8 8 9 14 4 12 -5 -2 -10 0 -11 5 -2 4 -10 21 -18 37 -9 17 -13 36 -9 43 4
7 4 9 0 5 -14 -12 -35 15 -23 30 7 9 7 12 0 10 -6 -2 -10 -1 -10 2 1 3 -8 16
-20 30 -13 13 -23 30 -23 37 0 7 -3 13 -7 13 -13 0 -43 61 -36 72 3 6 1 8 -5
4 -12 -7 -44 33 -36 46 3 4 -2 8 -10 8 -9 0 -16 4 -16 9 0 4 -10 19 -22 33
-128 140 -165 178 -176 178 -7 0 -11 3 -9 8 3 7 -38 51 -48 52 -3 0 -10 0 -16
0 -5 0 -7 5 -4 10 3 6 2 10 -4 10 -6 0 -23 12 -38 28 -16 15 -33 29 -38 31 -6
1 -9 7 -7 13 1 5 -2 7 -7 4 -5 -4 -24 7 -40 23 -17 17 -31 28 -31 25 0 -3 -7
1 -15 10 -8 8 -15 17 -15 20 0 5 -117 126 -122 126 -2 0 -17 -16 -34 -35z
m-124 -1775 c0 -5 -2 -10 -4 -10 -3 0 -8 5 -11 10 -3 6 -1 10 4 10 6 0 11 -4
11 -10z m2770 -124 c0 -3 -4 -8 -10 -11 -5 -3 -10 -1 -10 4 0 6 5 11 10 11 6
0 10 -2 10 -4z m-469 -739 l-24 -22 19 27 c10 14 21 24 23 22 3 -3 -6 -15 -18
-27z m-3921 -142 c0 -15 -21 -12 -30 5 -11 20 -10 21 9 10 12 -6 21 -13 21
-15z m3633 -58 c-5 -8 -8 -7 -11 1 -2 7 -9 9 -14 6 -7 -4 -8 -2 -4 4 4 6 13 9
21 6 8 -4 12 -11 8 -17z m-2413 -11 c0 -3 -4 -8 -10 -11 -5 -3 -10 -1 -10 4 0
6 5 11 10 11 6 0 10 -2 10 -4z m-140 -46 c0 -5 -2 -10 -4 -10 -3 0 -8 5 -11
10 -3 6 -1 10 4 10 6 0 11 -4 11 -10z m1500 -1290 c0 -5 -2 -10 -4 -10 -3 0
-8 5 -11 10 -3 6 -1 10 4 10 6 0 11 -4 11 -10z m-1885 -70 c3 -5 1 -10 -4 -10
-6 0 -11 5 -11 10 0 6 2 10 4 10 3 0 8 -4 11 -10z m819 -68 c3 -5 -1 -9 -9 -9
-8 0 -15 4 -15 9 0 4 4 8 9 8 6 0 12 -4 15 -8z m2336 -36 c0 -3 -4 -8 -10 -11
-5 -3 -10 -1 -10 4 0 6 5 11 10 11 6 0 10 -2 10 -4z m-2550 -31 c0 -1 -8 -10
-19 -19 -16 -15 -19 -15 -24 -2 -4 11 -1 13 10 9 10 -4 14 -2 10 4 -3 5 0 10
8 10 8 0 15 -1 15 -2z m-115 -35 c-3 -5 -1 -10 6 -10 7 0 10 -3 6 -6 -9 -9
-28 6 -22 17 4 5 8 9 11 9 3 0 2 -4 -1 -10z m-385 -24 c0 -3 -4 -8 -10 -11 -5
-3 -10 -1 -10 4 0 6 5 11 10 11 6 0 10 -2 10 -4z m303 -9 c3 -8 -1 -14 -8 -14
-7 0 -11 6 -8 14 3 7 6 13 8 13 2 0 5 -6 8 -13z m-77 -29 c4 -7 4 -10 -1 -6
-4 4 -16 3 -26 -3 -12 -6 -19 -6 -19 0 0 5 8 12 18 14 9 3 18 5 19 6 1 0 5 -5
9 -11z m2094 8 c0 -2 -7 -7 -16 -10 -8 -3 -12 -2 -9 4 6 10 25 14 25 6z m557
-141 c0 -8 -4 -12 -9 -9 -4 3 -8 9 -8 15 0 5 4 9 8 9 5 0 9 -7 9 -15z"/>
<path d="M1846 3562 c-3 -5 1 -9 9 -9 8 0 12 4 9 9 -3 4 -7 8 -9 8 -2 0 -6 -4
-9 -8z"/>
<path d="M3175 3420 c3 -5 8 -10 11 -10 2 0 4 5 4 10 0 6 -5 10 -11 10 -5 0
-7 -4 -4 -10z"/>
<path d="M5005 3329 c-4 -6 -5 -12 -2 -15 2 -3 7 2 10 11 7 17 1 20 -8 4z"/>
<path d="M1963 3279 c-2 -23 3 -25 10 -4 4 8 3 16 -1 19 -4 3 -9 -4 -9 -15z"/>
<path d="M4986 3273 c-6 -14 -5 -15 5 -6 7 7 10 15 7 18 -3 3 -9 -2 -12 -12z"/>
<path d="M2038 3143 c7 -3 16 -2 19 1 4 3 -2 6 -13 5 -11 0 -14 -3 -6 -6z"/>
<path d="M4926 3102 c-3 -5 1 -9 9 -9 8 0 12 4 9 9 -3 4 -7 8 -9 8 -2 0 -6 -4
-9 -8z"/>
<path d="M3120 3070 c-9 -6 -10 -10 -3 -10 6 0 15 5 18 10 8 12 4 12 -15 0z"/>
<path d="M2110 3040 c0 -5 5 -10 10 -10 6 0 10 5 10 10 0 6 -4 10 -10 10 -5 0
-10 -4 -10 -10z"/>
<path d="M4755 2680 c3 -5 8 -10 11 -10 2 0 4 5 4 10 0 6 -5 10 -11 10 -5 0
-7 -4 -4 -10z"/>
<path d="M4683 2558 c-20 -26 -23 -37 -12 -44 8 -4 9 -3 5 4 -4 7 -2 12 4 12
6 0 9 4 5 9 -3 6 3 14 12 20 10 6 13 11 7 11 -6 0 -16 -6 -21 -12z"/>
<path d="M70 2516 c0 -2 8 -10 18 -17 15 -13 16 -12 3 4 -13 16 -21 21 -21 13z"/>
<path d="M118 2423 c7 -3 16 -2 19 1 4 3 -2 6 -13 5 -11 0 -14 -3 -6 -6z"/>
<path d="M381 2131 c-10 -6 -9 -10 3 -14 8 -3 18 -2 21 3 8 13 -9 20 -24 11z"/>
<path d="M4306 2131 c-4 -5 -2 -12 3 -15 5 -4 12 -2 15 3 4 5 2 12 -3 15 -5 4
-12 2 -15 -3z"/>
<path d="M3926 1982 c-2 -4 -28 -8 -56 -7 -28 1 -53 -2 -56 -6 -2 -4 7 -6 21
-4 14 1 25 -3 25 -9 0 -8 2 -8 8 1 4 6 22 10 40 8 32 -3 51 8 33 19 -5 4 -12
3 -15 -2z"/>
<path d="M3967 1979 c7 -7 15 -10 18 -7 3 3 -2 9 -12 12 -14 6 -15 5 -6 -5z"/>
<path d="M1626 1968 c3 -5 10 -6 15 -3 13 9 11 12 -6 12 -8 0 -12 -4 -9 -9z"/>
<path d="M690 1940 c0 -5 5 -10 11 -10 5 0 7 5 4 10 -3 6 -8 10 -11 10 -2 0
-4 -4 -4 -10z"/>
<path d="M891 1896 c-9 -11 -9 -16 0 -22 8 -5 9 -3 5 5 -10 15 25 11 37 -4 5
-6 7 -5 5 3 -2 8 -7 13 -12 12 -5 -1 -12 3 -16 10 -5 8 -10 7 -19 -4z"/>
<path d="M1024 1869 c-19 -22 -19 -22 4 -8 12 8 22 17 22 21 0 12 -6 9 -26
-13z"/>
<path d="M2625 1249 c-11 -16 -1 -19 13 -3 7 8 8 14 3 14 -5 0 -13 -5 -16 -11z"/>
<path d="M2757 1138 c7 -13 13 -33 15 -54 1 -6 7 -11 14 -11 9 0 7 8 -4 26
-10 14 -16 26 -14 28 6 8 1 23 -9 23 -6 0 -7 -5 -2 -12z"/>
<path d="M2861 917 c-1 -11 -6 -15 -13 -11 -7 5 -8 3 -3 -5 10 -16 29 2 22 21
-4 8 -6 7 -6 -5z"/>
<path d="M1136 637 c3 -10 9 -15 12 -12 3 3 0 11 -7 18 -10 9 -11 8 -5 -6z"/>
<path d="M2090 558 c0 -11 12 -10 30 2 12 7 10 9 -8 7 -12 0 -22 -5 -22 -9z"/>
<path d="M1195 500 c-3 -6 1 -7 9 -4 18 7 21 14 7 14 -6 0 -13 -4 -16 -10z"/>
<path d="M3265 500 c-4 -6 -2 -9 4 -8 5 2 17 -6 25 -17 16 -19 16 -19 5 8 -13
28 -24 34 -34 17z"/>
<path d="M3477 399 c4 -13 8 -18 11 -10 2 7 -1 18 -6 23 -8 8 -9 4 -5 -13z"/>
<path d="M3841 287 c-8 -10 -7 -14 2 -14 8 0 14 6 14 14 0 7 -1 13 -2 13 -2 0
-8 -6 -14 -13z"/>
<path d="M3870 286 c0 -8 4 -17 8 -20 4 -2 8 4 8 15 0 10 -4 19 -8 19 -4 0 -8
-6 -8 -14z"/>
<path d="M3926 269 c3 -5 9 -7 14 -4 4 3 11 0 13 -5 3 -6 4 -5 3 1 -1 7 -10
13 -19 15 -9 1 -15 -2 -11 -7z"/>
<path d="M3995 259 c-4 -6 -5 -12 -2 -15 2 -3 7 2 10 11 7 17 1 20 -8 4z"/>
<path d="M4227 205 c3 -8 9 -12 14 -9 12 7 11 11 -5 17 -10 4 -13 1 -9 -8z"/>
</g>
</svg>
