<svg id="Ebene_1" data-name="Ebene 1" xmlns="http://www.w3.org/2000/svg" viewBox="0 0 530.68 561.18"><defs><style>.cls-1{fill:#fff;}.cls-2{fill:#e3e3e3;}.cls-3{fill:#bf2c3c;}.cls-4{fill:#767978;}</style></defs><title>Logo VanillaStack</title><path d="M508.69,384.71" transform="translate(-225.24 -27.49)"/><path d="M486.59,387.9" transform="translate(-225.24 -27.49)"/><rect class="cls-1" width="530.68" height="561.18"/><path class="cls-2" d="M292.62,277.75s21.64-5.39,21.64-36v-1.17H290.83v1.17c0,16.55-8.69,25.19-25.24,25.19v21.58c16.55,0,25.24,8.64,25.24,25.19h23.43c0-30.58-21.64-36-21.64-36Z" transform="translate(-225.24 -27.49)"/><path class="cls-2" d="M314.16,243.32H290.83V116.15c0-22.53,8.4-36.45,26.86-36.45H417.4v20.41H324.57c-7.24.07-10.52,3.53-10.41,16Z" transform="translate(-225.24 -27.49)"/><path class="cls-2" d="M314.26,311.41H290.83v127.7c0,22.64,8.44,36.61,27,36.61H417.94v-20.5H324.72c-7.27-.06-10.57-3.54-10.46-16.11Z" transform="translate(-225.24 -27.49)"/><path class="cls-2" d="M667.54,243.17h23.33V116c0-22.54-8.4-36.46-26.86-36.46H564.3V100h92.83c7.24.06,10.52,3.52,10.41,16Z" transform="translate(-225.24 -27.49)"/><path class="cls-2" d="M689.09,277.74s-21.55-5.36-21.55-35.81v-1.16h23.33v1.16c0,16.48,8.66,25.08,25.14,25.08v21.5c-16.48,0-25.14,8.6-25.14,25.08H667.54c0-30.45,21.55-35.82,21.55-35.82Z" transform="translate(-225.24 -27.49)"/><path class="cls-2" d="M667.54,311.27h23.33V438.43c0,22.54-8.4,36.46-26.86,36.46H564.3V454.47h92.83c7.24-.06,10.52-3.52,10.41-16Z" transform="translate(-225.24 -27.49)"/><path class="cls-3" d="M468,254.46a12,12,0,0,0-.9-1.56A80.38,80.38,0,0,1,450,216.14a57.06,57.06,0,0,1,5.69-36.6c4.26-8.37,10-16,15.13-23.91.77-1.19,1.69-2.28,2.88-3.86,3,3.2,5.73,6.4,8.79,9.21,5.44,5,11.37,9.47,16.59,14.67a83.38,83.38,0,0,1,18.74,29c2.94,7.48,4,15.31,4.38,23.08.34,6.5-1.27,13.09-2,19.64a5.5,5.5,0,0,0,.39,3.09c.71-.7,1.47-1.36,2.12-2.11,10-11.43,22.13-19.67,36.81-24.08a92,92,0,0,1,31.05-3.63c8.43.4,16.83,1.34,25.25,2a26.26,26.26,0,0,0,3.2.11c3.68-.15,4.83,1.12,4,4.82-.66,2.78-1.59,5.49-2.44,8.22-5,16.15-10.68,32.06-20,46.32-7.2,11-16.16,20.32-29.07,24.61-4,1.34-8.38,1.63-12.58,2.41-.58.11-1.14.31-2.26.62,1.73,1.48,3.08,2.68,4.47,3.83,11.83,9.72,18.92,22.24,22.19,37.11,2.68,12.15,2.57,24.35,1.13,36.6-.53,4.51-1.33,9-1.86,13.51-.28,2.39-1.49,3.05-3.66,2.53-12.22-3-24.65-5.27-36.63-9-21.18-6.61-35.29-20.94-42.44-42-1.26-3.72-2.28-7.51-3.44-11.27-.22-.7-.56-1.37-.85-2.05l-.72,0c-.26,1-.59,1.88-.77,2.84-1.48,7.81-2.81,15.68-6.66,22.78a41.22,41.22,0,0,1-22,19.18c-12.66,4.87-25.59,9-38.4,13.5a4.58,4.58,0,0,1-5.78-2.18c-7.05-11.87-12.67-24.28-12.45-38.47a44.74,44.74,0,0,1,11.59-30c5.1-5.65,11.26-10.34,16.94-15.46a1.74,1.74,0,0,0,.62-1.31c-1.48.28-3,.46-4.44.87a79.51,79.51,0,0,1-26.73,3.19c-13.05-.84-24.74-5.09-34.39-14.24a90.2,90.2,0,0,1-15.71-19.22c-1.39-2.33-1.35-4.05.65-6.13,11.25-11.7,23.2-22.44,38.4-28.89,9.12-3.87,18.55-5.87,28.54-5,13.72,1.19,26.06,6.51,38.25,12.38,1.65.79,3.32,1.53,5,2.29Zm30.18.21c-10.23.05-18.45,2.86-25.82,8.69-14.9,11.79-16.62,34.44-3.45,48.17A39.53,39.53,0,0,0,520,316.37c15.17-10.75,19.16-30.31,8.8-45.59C521.33,259.81,510.4,254.84,498.13,254.67Z" transform="translate(-225.24 -27.49)"/><path class="cls-2" d="M498.13,254.67c12.27.17,23.2,5.14,30.64,16.11,10.36,15.28,6.37,34.84-8.8,45.59a39.53,39.53,0,0,1-51.11-4.84c-13.17-13.73-11.45-36.38,3.45-48.17C479.68,257.53,487.9,254.72,498.13,254.67Z" transform="translate(-225.24 -27.49)"/><path class="cls-4" d="M312.19,529.75h7.43l13.94,36.17,13.85-36.21h7.43L337.44,575h-7.75Z" transform="translate(-225.24 -27.49)"/><path class="cls-4" d="M374.59,570.39a12.18,12.18,0,0,1-10,5.18c-6.14,0-10.34-4.18-10.35-9,0-5.17,3.55-8.73,9-9.71l11.3-2c0-3.23-2.59-5.81-6.46-5.81-4.85,0-8.08,4.21-8.08,4.21l-4.2-4.19a15.78,15.78,0,0,1,12.27-5.83c7.75,0,12.93,5.15,12.94,11.94l0,19.71H374.6Zm0-10.34-9,1.63c-3.23.58-4.85,2.27-4.85,4.2,0,2.27,1.95,4.2,5.18,4.2a8.76,8.76,0,0,0,8.71-9.06Z" transform="translate(-225.24 -27.49)"/><path class="cls-4" d="M390.07,543.88h6.46v4.53a12,12,0,0,1,9.68-5.19c7.11,0,12.29,5.16,12.3,13.56l0,18.09h-6.46l0-18.09c0-4.53-2.92-7.43-7.12-7.43-4.85,0-8.4,3.57-8.39,8.74l0,16.8h-6.46Z" transform="translate(-225.24 -27.49)"/><path class="cls-4" d="M431.09,530.26a3.88,3.88,0,1,1-3.88,3.88A3.93,3.93,0,0,1,431.09,530.26Zm-3.22,13.58h6.46l0,31h-6.46Z" transform="translate(-225.24 -27.49)"/><path class="cls-4" d="M444,529.6h6.46l0,45.24h-6.46Z" transform="translate(-225.24 -27.49)"/><path class="cls-4" d="M460.16,529.58h6.47l.05,45.24h-6.46Z" transform="translate(-225.24 -27.49)"/><path class="cls-4" d="M494.14,570.25a12.2,12.2,0,0,1-10,5.18c-6.14,0-10.35-4.18-10.35-9,0-5.17,3.54-8.73,9-9.7l11.31-2c0-3.23-2.59-5.81-6.47-5.81-4.85,0-8.07,4.21-8.07,4.21L475.37,549a15.81,15.81,0,0,1,12.27-5.83c7.76,0,12.93,5.15,12.94,11.94l0,19.71h-6.46Zm0-10.34-9.05,1.63c-3.23.58-4.84,2.27-4.84,4.21,0,2.26,1.94,4.19,5.17,4.19a8.78,8.78,0,0,0,8.72-9.06Z" transform="translate(-225.24 -27.49)"/><path class="cls-4" d="M511.9,563.77a13.94,13.94,0,0,0,11.31,5.16c5.82,0,9-3.25,9-6.8,0-10-23.91-3.85-23.93-20.65,0-6.79,5.8-12.61,15.49-12.62a19.16,19.16,0,0,1,14.23,5.8l-4.84,4.85a12.31,12.31,0,0,0-9.38-4.19c-5.49,0-8.4,2.92-8.39,6.15,0,10,23.91,3.85,23.93,20.65,0,7.11-6.12,13.26-16.14,13.27-11,0-16.16-6.77-16.16-6.77Z" transform="translate(-225.24 -27.49)"/><path class="cls-4" d="M549.68,549.83h-5.81V543.7h3.56c1.93,0,2.9-1,2.9-3.56v-6.79h5.82v10.34h7.11v6.14h-7.1v14.54c0,3.23,1.62,4.85,4.53,4.84a7.74,7.74,0,0,0,3.56-1v6.14a11.78,11.78,0,0,1-4.84,1c-6.14,0-9.7-3.55-9.71-10.33Z" transform="translate(-225.24 -27.49)"/><path class="cls-4" d="M589.45,570.14a12.23,12.23,0,0,1-10,5.18c-6.14,0-10.35-4.19-10.35-9,0-5.17,3.54-8.73,9-9.71l11.31-2c0-3.23-2.59-5.81-6.47-5.81-4.84,0-8.07,4.21-8.07,4.21l-4.21-4.19A15.81,15.81,0,0,1,583,543c7.75,0,12.92,5.15,12.93,11.94l0,19.71h-6.47Zm0-10.34-9.05,1.63c-3.23.58-4.84,2.27-4.84,4.2,0,2.27,1.94,4.2,5.17,4.2a8.78,8.78,0,0,0,8.72-9.06Z" transform="translate(-225.24 -27.49)"/><path class="cls-4" d="M632.42,568.8a16.9,16.9,0,0,1-13.24,6.48,16.16,16.16,0,1,1,12.89-26.19l-4.52,4.2a10.76,10.76,0,0,0-8.4-4.19c-5.49,0-9.69,4.22-9.68,10s4.21,10,9.7,10,8.72-4.54,8.72-4.54Z" transform="translate(-225.24 -27.49)"/><path class="cls-4" d="M638.83,529.37h6.47l0,28.44,13.23-14.23h8.08L654.7,556.17l12.94,18.4h-7.43L650.5,560.7l-5.16,5.5v8.4h-6.46Z" transform="translate(-225.24 -27.49)"/></svg>